<svg width="108" height="38" viewBox="0 0 108 38" fill="none" xmlns="http://www.w3.org/2000/svg">
<path d="M55.3067 29.3219V20.8471H82.4911C99.1634 22.4246 112.222 14.5363 106.067 29.8841L102.901 37.7804L79.1038 37.7885L55.3067 37.7967V29.3219ZM66.3621 31.3901C67.0558 30.7946 67.1925 29.8047 66.6267 29.4731C66.4234 29.3538 66.3555 28.8601 66.4729 28.3533C66.7601 27.1127 65.9285 26.3883 64.2168 26.3883H62.8668V29.1589V31.9295H64.3002C65.1518 31.9295 65.9887 31.7106 66.3621 31.3901ZM63.6784 30.7887C63.3776 30.0452 63.7986 29.3219 64.5322 29.3219C65.524 29.3219 66.1537 30.1741 65.6159 30.7887C65.3806 31.0576 64.8929 31.2776 64.5322 31.2776C64.1714 31.2776 63.7872 31.0576 63.6784 30.7887ZM63.5541 27.8551C63.5541 27.1112 63.6799 27.0106 64.4991 27.1C65.1788 27.1742 65.4441 27.3862 65.4441 27.8551C65.4441 28.324 65.1788 28.536 64.4991 28.6101C63.6799 28.6995 63.5541 28.599 63.5541 27.8551ZM71.1142 31.4858C71.1142 31.188 70.831 31.0934 70.2531 31.1982C69.3447 31.3629 68.2415 30.7531 68.5609 30.2628C68.6645 30.1039 69.2916 29.9738 69.9545 29.9738C71.0565 29.9738 71.1505 29.8998 71.0511 29.1103C70.9042 27.9439 70.0402 27.4665 68.8127 27.8737C67.9871 28.1475 67.8343 28.3935 67.7427 29.5965C67.6839 30.3683 67.8188 31.209 68.0425 31.4647C68.577 32.0756 71.1142 32.093 71.1142 31.4858V31.4858ZM68.7459 28.821C69.0446 28.5376 69.5243 28.4112 69.8504 28.5299C70.8005 28.8757 70.503 29.3219 69.3223 29.3219C68.3288 29.3219 68.2708 29.2716 68.7459 28.821ZM74.8292 30.8888C74.9146 30.1875 74.7224 29.9063 73.873 29.4896C72.7641 28.9457 72.7675 28.2418 73.8781 28.4099C74.2308 28.4633 74.565 28.3603 74.6208 28.181C74.7705 27.7005 72.8724 27.5808 72.2961 28.0344C71.495 28.6651 71.7213 29.299 73.0037 30.0167C74.3732 30.7831 74.2616 31.4071 72.7917 31.2024C72.1073 31.1072 71.8014 31.2041 71.8014 31.5158C71.8014 31.8451 72.1962 31.9399 73.2619 31.8668C74.5605 31.7777 74.7342 31.6693 74.8292 30.8888H74.8292ZM77.987 31.6036C77.987 31.4243 77.755 31.2776 77.4715 31.2776C77.0992 31.2776 76.956 30.9154 76.956 29.9738C76.956 29.0322 77.0992 28.67 77.4715 28.67C77.755 28.67 77.987 28.45 77.987 28.181C77.987 27.9121 77.755 27.6921 77.4715 27.6921C77.188 27.6921 76.956 27.4721 76.956 27.2032C76.956 26.9343 76.7627 26.7154 76.5265 26.7168C75.967 26.7201 75.093 28.4612 75.5744 28.6134C75.7673 28.6744 75.9251 29.3477 75.9251 30.1096C75.9251 30.8715 76.0282 31.5927 76.1542 31.7122C76.514 32.0535 77.987 31.9661 77.987 31.6036ZM81.3546 31.5384C82.052 30.8769 81.8192 30.307 80.5648 29.6049C79.2575 28.8733 79.2807 28.1723 80.6018 28.4868C81.1981 28.6288 81.4234 28.5466 81.4234 28.1873C81.4234 27.6755 80.2438 27.5165 79.2178 27.89C78.2723 28.2341 78.5636 29.5768 79.7052 30.1368C80.2722 30.4149 80.7361 30.802 80.7361 30.997C80.7361 31.2056 80.3116 31.2925 79.7052 31.2081C79.0017 31.1102 78.6742 31.2019 78.6742 31.497C78.6742 32.0477 80.7834 32.0802 81.3546 31.5384ZM85.8118 31.3449C85.9179 31.0389 85.7119 30.9818 85.0608 31.1368C84.1866 31.3449 83.1416 30.8674 83.1416 30.2598C83.1416 30.1025 83.7601 29.9738 84.5161 29.9738C85.7214 29.9738 85.8907 29.8814 85.8907 29.2241C85.8907 28.2271 85.2735 27.6921 84.1232 27.6921C82.404 27.6921 81.4126 30.243 82.6688 31.4346C83.3256 32.0575 85.5873 31.993 85.8118 31.3449ZM83.5504 28.7944C83.8563 28.5043 84.276 28.3662 84.4832 28.4877C85.1655 28.8877 84.8761 29.3219 83.927 29.3219C83.0676 29.3219 83.038 29.2804 83.5504 28.7944ZM88.2962 31.6228C88.2962 31.4541 88.1415 31.2254 87.9525 31.1146C87.7635 31.0038 87.6089 29.8217 87.6089 28.4878C87.6089 26.5491 87.5054 26.0623 87.0934 26.0623C86.6816 26.0623 86.578 26.5483 86.578 28.4803C86.578 29.8102 86.6718 31.1304 86.7866 31.4139C87.0084 31.9624 88.2962 32.1405 88.2962 31.6228ZM90.7016 31.6228C90.7016 31.4541 90.547 31.2254 90.358 31.1146C90.169 31.0038 90.0144 29.8217 90.0144 28.4878C90.0144 26.5491 89.9109 26.0623 89.4989 26.0623C89.082 26.0623 88.9835 26.5815 88.9835 28.7786C88.9835 30.2726 89.0865 31.5927 89.2125 31.7122C89.5592 32.041 90.7016 31.9724 90.7016 31.6228ZM94.8253 31.4858C94.8253 31.188 94.5422 31.0934 93.9643 31.1982C93.0559 31.3629 91.9527 30.7531 92.2721 30.2628C92.3757 30.1039 93.0028 29.9738 93.6657 29.9738C94.7677 29.9738 94.8617 29.8998 94.7622 29.1103C94.6154 27.9439 93.7513 27.4665 92.5239 27.8737C91.6982 28.1475 91.5455 28.3935 91.4538 29.5965C91.395 30.3683 91.53 31.209 91.7536 31.4647C92.2882 32.0756 94.8253 32.093 94.8253 31.4858V31.4858ZM92.457 28.821C92.7558 28.5376 93.2354 28.4112 93.5616 28.5299C94.5117 28.8757 94.2142 29.3219 93.0335 29.3219C92.0399 29.3219 91.982 29.2716 92.457 28.821ZM96.8872 30.2998C96.8872 28.8873 96.9788 28.67 97.5744 28.67C97.9525 28.67 98.2617 28.4645 98.2617 28.2133C98.2617 27.9025 97.8775 27.767 97.059 27.789L95.8562 27.8213V29.8754C95.8562 31.484 95.9681 31.9295 96.3717 31.9295C96.7612 31.9295 96.8872 31.5311 96.8872 30.2998ZM24.2073 25.4276C20.9776 24.6398 19.0831 23.9511 16.8341 22.7472C14.1831 21.3281 11.3208 19.2213 11.3208 18.6892C11.3208 18.4418 11.3774 18.2394 11.4466 18.2394C11.5158 18.2394 13.0289 18.8939 14.8091 19.6938C24.3811 23.9947 36.0876 24.4352 45.6639 20.8549C47.3394 20.2285 47.7466 20.2686 47.7466 21.0603C47.7466 22.0821 42.1823 24.6017 37.8719 25.5316C34.4673 26.2661 27.4253 26.2125 24.2073 25.4276ZM48.233 24.0251C49.6987 19.0762 49.6881 19.0503 46.3016 19.3196C43.5046 19.542 43.0181 19.1195 45.0594 18.2408C46.5033 17.6193 49.5092 17.374 50.6395 17.7854C51.3375 18.0394 51.371 20.3409 50.6988 21.8666C49.7482 24.0243 47.703 25.8146 48.233 24.0251ZM1.67245 16.3088C0.886791 15.5635 0.667969 15.063 0.667969 14.0109C0.667969 11.3218 2.19571 9.90969 5.50744 9.53765C7.48244 9.31578 7.66839 9.14756 7.20809 7.99919C6.97169 7.40939 6.61781 7.15695 6.02744 7.15695C5.17751 7.15695 4.10437 7.90798 4.10437 8.50279C4.10437 8.67957 3.44716 8.7791 2.6439 8.72398C0.876077 8.60265 0.563376 7.78538 1.7413 6.36495C3.86832 3.80004 9.56723 4.00777 10.6421 6.68939C10.8264 7.14916 10.9821 8.94592 10.9881 10.6822C10.9959 12.9401 11.1427 14.0192 11.5036 14.4717C12.2089 15.3563 12.1628 15.4867 10.7941 16.4769L9.58015 17.3552L8.75253 16.6177L7.92492 15.8802L6.99922 16.5709C6.33983 17.0629 5.58496 17.2616 4.37523 17.2616C2.95636 17.2616 2.51167 17.1048 1.67245 16.3088ZM6.96104 14.0817C7.04124 13.9482 7.2115 13.289 7.33939 12.6167C7.55904 11.462 7.52265 11.3944 6.68162 11.3944C5.59682 11.3944 3.95893 12.8464 4.24529 13.5542C4.35678 13.8298 4.44801 14.1793 4.44801 14.3307C4.44801 15.0105 6.52678 14.8045 6.96104 14.0817ZM13.6279 17.0596C13.493 16.9316 13.3826 14.1378 13.3826 10.8511V4.87526H14.9398C16.0028 4.87526 16.5594 5.0295 16.6936 5.3613C16.8596 5.77172 17.0256 5.74637 17.7601 5.19832C18.2385 4.84136 19.0034 4.54931 19.4598 4.54931C20.4663 4.54931 22.1966 5.35752 22.4109 5.92776C22.519 6.21524 22.8525 6.09263 23.5006 5.52717C24.8574 4.34331 27.1099 4.38391 28.4091 5.61563C29.3459 6.50385 29.3639 6.59559 29.4811 11.0903C29.5467 13.6045 29.503 16.0294 29.3841 16.479C29.1863 17.2266 29.0293 17.288 27.5466 17.1975L25.9255 17.0986L25.7537 12.5352L25.5819 7.97184H24.5664C23.2421 7.97184 23.0825 8.5441 23.0388 13.4494L23.0046 17.2973L21.3723 17.1979L19.74 17.0986L19.5682 12.5352C19.3989 8.0389 19.3844 7.97023 18.5835 7.86275C18.1365 7.80275 17.5952 7.91949 17.3808 8.12216C17.1488 8.34137 16.9213 10.2343 16.819 12.7946L16.6472 17.0986L15.2602 17.1954C14.4973 17.2487 13.7628 17.1875 13.6279 17.0596ZM32.2564 16.3088C31.2892 15.3913 31.0998 14.7783 31.2418 13.0241C31.3959 11.1204 33.046 9.9365 36.1327 9.51515C37.1338 9.37849 37.9142 9.15869 37.867 9.0267C37.8197 8.89471 37.7811 8.48876 37.7811 8.12458C37.7811 6.85451 35.2804 6.87876 34.8541 8.15297C34.6678 8.70968 34.3909 8.80498 33.1989 8.72264C31.4613 8.6026 31.155 7.77608 32.3253 6.36495C34.4523 3.80005 40.1512 4.00777 41.2261 6.68939C41.4103 7.14916 41.5611 8.95456 41.5611 10.7014C41.5611 12.9893 41.7022 14.0543 42.0657 14.5101C42.7731 15.3973 42.7402 15.4914 41.3781 16.4769L40.1641 17.3552L39.3365 16.6177L38.5089 15.8802L37.5832 16.5709C36.9238 17.0629 36.1689 17.2616 34.9592 17.2616C33.5403 17.2616 33.0956 17.1048 32.2564 16.3088ZM37.3024 14.2716C37.4394 14.0613 37.6597 13.3279 37.792 12.6418C37.9987 11.5695 37.9447 11.3944 37.4075 11.3944C35.6624 11.3944 34.362 12.8162 34.8972 14.1391C35.1414 14.7427 36.9311 14.8413 37.3024 14.2716ZM55.9913 16.0319C52.3883 12.6143 53.8129 5.47637 58.2558 4.68578C62.4164 3.94541 65.7549 8.15821 64.6396 12.7414C63.8785 15.8688 62.1604 17.2616 59.0634 17.2616C57.4678 17.2616 57.1562 17.1368 55.9913 16.0319ZM60.5052 14.1144C61.1596 13.3658 61.1454 8.42773 60.4867 7.67489C59.8288 6.92291 58.679 7.14974 58.1554 8.13481C57.6199 9.14245 57.5826 12.2483 58.0895 13.6274C58.5177 14.7926 59.7034 15.0316 60.5052 14.1144ZM66.5485 17.0596C66.4136 16.9316 66.3032 14.1378 66.3032 10.8511V4.87526H67.8604C68.9094 4.87526 69.4804 5.03075 69.6103 5.35171C69.7699 5.74616 69.9713 5.71019 70.7804 5.14273C72.0494 4.2528 74.0523 4.49701 75.1299 5.67304C76.0972 6.72873 76.3307 8.36585 76.2017 13.1871L76.0969 17.0986H74.3787H72.6605L72.4887 12.5352C72.3194 8.0389 72.305 7.97023 71.5041 7.86275C71.057 7.80275 70.5158 7.91972 70.3013 8.12268C70.0694 8.34216 69.8418 10.2357 69.7396 12.7951L69.5678 17.0986L68.1808 17.1954C67.4179 17.2487 66.6834 17.1875 66.5485 17.0596ZM77.4663 16.594C77.0224 15.2676 78.9511 14.3421 79.659 15.5419C80.1294 16.3393 79.5151 17.2616 78.5135 17.2616C77.985 17.2616 77.6096 17.0222 77.4663 16.594ZM81.839 16.1487C80.4303 14.6268 79.9489 13.0414 80.1143 10.4682C80.2813 7.86966 81.1584 5.99701 82.5986 5.16396C83.8793 4.42315 85.8109 4.36958 86.8299 5.0466C87.5762 5.54239 87.5787 5.53671 87.6796 3.17236L87.7807 0.800826L88.9035 0.698265L90.0263 0.595703L89.9344 8.84714L89.8426 17.0986L88.8975 17.2017C88.1154 17.2871 87.9525 17.179 87.9525 16.5745V15.8441L87.1572 16.5528C86.556 17.0886 85.9356 17.2616 84.6155 17.2616C83.0582 17.2616 82.7576 17.141 81.839 16.1487ZM86.6044 14.679C87.556 13.7764 87.6089 13.5812 87.6089 10.9745C87.6089 8.70448 87.487 8.07574 86.9126 7.38315C85.5744 5.76938 83.976 5.96321 82.9391 7.865C82.5304 8.61469 82.4177 9.54203 82.5074 11.4159C82.61 13.5588 82.7578 14.0825 83.4606 14.792C84.5406 15.8824 85.367 15.8527 86.6044 14.679ZM93.5969 16.648C92.0127 15.7316 90.937 13.1178 91.1064 10.5958C91.4278 5.80681 95.292 3.13242 98.8865 5.21113C100.291 6.02351 101.437 8.31701 101.289 10.0179L101.183 11.2314L97.3167 11.3236C93.8445 11.4063 93.4508 11.4761 93.4508 12.0083C93.4508 13.2835 94.2458 14.69 95.2432 15.1793C96.573 15.8315 97.7094 15.5471 98.6633 14.3233C99.9836 12.6294 101.654 13.3903 100.627 15.218C99.5201 17.1887 95.8296 17.9394 93.5969 16.648ZM98.949 8.77191C98.949 7.63694 97.6313 6.17908 96.6055 6.17908C96.2444 6.17908 95.5569 6.47156 95.0778 6.82903C94.2008 7.48339 93.3343 9.21954 93.7079 9.5739C93.8185 9.67878 95.043 9.76459 96.429 9.76459H98.949V8.77191ZM43.8628 16.7284C43.7309 16.6033 43.623 15.9235 43.623 15.2176C43.623 14.1552 44.0338 13.3814 46.009 10.7236L48.3949 7.51305L46.2667 7.41649L44.1384 7.31993V6.17908V5.03824L48.5198 4.94701L52.9012 4.85579V5.94617C52.9012 6.76083 52.3457 7.78386 50.7043 9.99188L48.5074 12.9472L50.0121 13.1081C50.8397 13.1966 51.9144 13.5161 52.4003 13.8181C53.1286 14.2707 53.2654 14.5786 53.1785 15.5699C53.0629 16.8887 53.1636 16.8662 50.238 16.2246C48.5098 15.8456 46.29 16.0476 44.6359 16.7344C44.3426 16.8562 43.9946 16.8535 43.8628 16.7284Z" fill="#949494"/>
</svg>
