<svg width="108" height="32" viewBox="0 0 108 32" fill="none" xmlns="http://www.w3.org/2000/svg">
<path fill-rule="evenodd" clip-rule="evenodd" d="M15.4159 1.56021C15.5138 3.2545 15.6114 4.9488 15.7099 6.64328C15.7219 6.84981 15.7585 7.05081 15.4221 7.05081C15.1576 7.05081 15.0078 7.00759 14.9689 6.70949C14.9125 6.27787 14.8058 5.85029 14.6909 5.42824C14.0694 3.14858 12.894 2.20442 10.4424 2.09702C9.1255 2.03927 7.80376 2.08378 6.48471 2.06428C6.16472 2.05969 6.10735 2.19173 6.10773 2.45655C6.11428 5.29693 6.11216 8.13731 6.1112 10.9773C6.1112 11.1723 6.10927 11.3543 6.40115 11.3442C7.17321 11.3166 7.9472 11.3957 8.71829 11.2712C9.33786 11.1712 9.77183 10.8556 10.0968 10.3561C10.6186 9.55391 10.7122 8.65426 10.795 7.74707C10.81 7.58211 10.7256 7.34432 11.0094 7.30018C11.3165 7.252 11.5433 7.27002 11.5322 7.68712C11.5044 8.71146 11.5233 9.73727 11.5233 10.7625C11.5233 12.4096 11.5356 14.0568 11.5087 15.7033C11.5048 15.9331 11.7794 16.3469 11.218 16.3979C10.6249 16.4512 10.8286 16.0093 10.7799 15.7432C10.6889 15.2474 10.6586 14.7405 10.5477 14.2495C10.2389 12.8827 9.4401 12.2468 7.9703 12.1729C7.514 12.1501 7.05384 12.1848 6.59889 12.149C6.19033 12.117 6.1008 12.268 6.10254 12.6356C6.11717 15.4754 6.11062 18.3156 6.11062 21.1558C6.11062 21.3574 6.11543 21.5589 6.11062 21.7608C6.10677 21.9344 6.1472 22.0569 6.36804 22.051C8.08871 22.0036 9.81669 22.1803 11.5299 21.8984C13.4176 21.5876 14.4554 20.424 14.9878 18.7522C15.276 17.8474 15.445 16.9216 15.5122 15.9813C15.5338 15.6742 15.6447 15.5826 15.9583 15.5885C16.3049 15.5949 16.2519 15.8059 16.2471 16.0004C16.1938 18.1503 16.1329 20.3001 16.0881 22.4499C16.0823 22.7405 16.0124 22.8619 15.6761 22.8608C10.4507 22.8483 5.22535 22.8472 0 22.8435V22.0361C0.155182 21.8436 0.376788 21.8063 0.611101 21.7965C0.980765 21.7814 1.35043 21.7934 1.71971 21.784C2.47579 21.7649 2.67198 21.5725 2.69316 20.8369C2.69604 20.7363 2.69508 20.6354 2.69508 20.5344V3.59178C2.69508 3.49064 2.69604 3.39004 2.69354 3.28926C2.67352 2.52735 2.4754 2.33481 1.68813 2.31568C1.33637 2.30759 0.983845 2.32267 0.632472 2.30097C0.422611 2.28865 0.202545 2.28883 0.0806714 2.07513C0.0132848 1.30734 0.0132848 1.30734 0.805559 1.30734C5.47796 1.30734 10.1504 1.30697 14.8226 1.30881C15.054 1.30918 15.3347 1.22605 15.4152 1.56021H15.4159ZM99.3747 22.1408C100.398 21.6869 100.889 20.881 101.038 19.8481C101.228 18.5276 101.19 17.1991 101.203 15.8721C101.206 15.5846 101.06 15.5447 100.814 15.5473C100.075 15.555 99.3354 15.5344 98.5969 15.556C98.2503 15.5659 98.1383 15.4566 98.1411 15.1264C98.144 14.813 98.2605 14.7264 98.5751 14.7273C101.426 14.7365 104.276 14.7341 107.127 14.7291C107.311 14.7291 107.468 14.7677 107.61 14.8744V15.5806C106.82 15.5707 106.029 15.5699 105.239 15.5466C104.876 15.5355 104.909 15.7663 104.903 15.9819C104.868 17.1309 104.687 18.2509 104.267 19.3366C102.973 22.6855 97.2251 25.2761 93.2523 21.2866C91.3339 19.36 90.2989 17.0101 89.9283 14.3988C89.4496 11.0279 89.8689 7.79452 91.7277 4.8197C92.569 3.47408 93.6145 2.31127 95.0883 1.55542C95.6663 1.25934 96.2782 1.06017 96.9218 0.938799C97.0772 0.909374 97.2907 0.967303 97.367 0.751953H98.7397C100.012 1.08997 101.183 1.61777 102.225 2.40524C102.453 2.57737 102.703 2.46593 102.873 2.26051C103.003 2.10327 103.126 1.935 103.216 1.75514C103.341 1.50448 103.56 1.55543 103.761 1.57418C103.992 1.59625 103.937 1.79082 103.942 1.93059C104.002 3.64272 104.059 5.35541 104.116 7.06773C104.121 7.23545 104.152 7.42377 103.876 7.41531C103.659 7.40869 103.43 7.48225 103.361 7.14754C103.148 6.10592 102.83 5.09372 102.3 4.15269C101.115 2.04939 99.0064 1.20196 96.5951 1.83496C95.5065 2.12093 94.8261 2.81884 94.343 3.74258C93.9021 4.58596 93.7366 5.49554 93.6807 6.42205C93.4493 10.3175 93.4522 14.2131 93.7885 18.1036C93.8721 19.0643 94.1049 20.0033 94.6588 20.8268C95.4324 21.9769 96.5113 22.5908 97.9881 22.429C98.3847 22.0459 98.8826 22.1044 99.3749 22.1402L99.3747 22.1408ZM40.9509 12.0625C40.9509 8.92 40.9393 5.77747 40.963 2.63512C40.9669 2.15697 40.8128 2.03192 40.3411 2.06042C39.7454 2.0972 39.1447 2.05399 38.5475 2.07513C38.2105 2.0869 38.0821 1.99275 38.0904 1.65326C38.0977 1.34614 38.199 1.25235 38.519 1.25235C43.34 1.26044 48.1603 1.26118 52.9807 1.25125C53.3215 1.25051 53.3927 1.38421 53.4008 1.66503C53.4574 3.59601 53.5233 5.52699 53.5886 7.45797C53.5943 7.63342 53.619 7.789 53.3454 7.80261C53.0758 7.8164 52.9815 7.71158 52.9295 7.47158C52.7601 6.68264 52.5778 5.89553 52.3769 5.11321C52.2936 4.78862 52.1652 4.47286 52.0352 4.16133C51.5234 2.93525 50.5739 2.27522 49.1973 2.14796C47.6339 2.00378 46.0676 2.10474 44.5033 2.06631C44.2234 2.0595 44.1408 2.16194 44.1413 2.41903C44.1477 5.2927 44.149 8.16637 44.14 11.0399C44.1392 11.3286 44.2436 11.4316 44.5372 11.4145C44.9935 11.3874 45.4504 11.3727 45.9071 11.363C47.0925 11.3385 47.7746 10.6996 48.1532 9.69092C48.3929 9.05278 48.4857 8.38576 48.5363 7.71507C48.5563 7.45135 48.6287 7.32464 48.9397 7.33365C49.2519 7.34248 49.267 7.50468 49.267 7.72684C49.2643 10.5166 49.2643 13.3059 49.267 16.0957C49.2673 16.3225 49.2419 16.4722 48.9329 16.4797C48.6139 16.4871 48.5581 16.35 48.5386 16.0928C48.4901 15.4559 48.4158 14.822 48.2537 14.1997C47.9057 12.864 47.2481 12.3308 45.822 12.2582C45.383 12.2356 44.9421 12.2468 44.5031 12.2257C44.2259 12.2122 44.1411 12.3187 44.1417 12.5778C44.1487 15.6196 44.15 18.6613 44.1398 21.7031C44.1386 22.0152 44.283 22.0593 44.5537 22.0558C45.3456 22.0448 46.1379 22.0674 46.9288 22.0448C47.2746 22.0352 47.3318 22.1709 47.3366 22.4604C47.3414 22.7653 47.2475 22.8619 46.9207 22.8608C44.1232 22.8492 41.3257 22.8506 38.5282 22.8589C38.2256 22.86 38.0898 22.8015 38.0898 22.4735C38.0898 22.1382 38.2038 22.0332 38.5467 22.0463C39.1262 22.068 39.71 22.0205 40.2876 22.0615C40.8017 22.0983 40.972 21.9742 40.9668 21.4396C40.9357 18.3139 40.9514 15.1881 40.9514 12.0624L40.9509 12.0625ZM79.1976 12.0684C79.1976 15.2286 79.204 18.3886 79.1893 21.549C79.1874 21.9297 79.2696 22.0731 79.7049 22.0621C80.971 22.0303 82.2406 22.0032 83.5051 22.0529C85.2366 22.1204 86.3186 21.3007 87.022 19.8839C87.5851 18.7474 87.8004 17.5171 88.0822 16.3048C88.1125 16.1735 88.1296 16.0363 88.1843 15.9144C88.2786 15.7038 88.4889 15.7853 88.6483 15.7959C88.8938 15.8129 88.8206 16.0142 88.8116 16.149C88.6685 18.2786 88.5158 20.4082 88.3768 22.5384C88.3579 22.8179 88.212 22.8598 87.9667 22.8569C87.1927 22.8483 86.4178 22.854 85.6436 22.854C81.6486 22.854 77.6535 22.8508 73.6592 22.8591C73.3115 22.8598 73.0912 22.8359 73.1251 22.4119C73.1482 22.1198 73.2564 22.0404 73.5415 22.0474C74.1571 22.0621 74.7768 22.0143 75.3885 22.0634C75.9116 22.1053 75.9811 21.8931 75.9796 21.4646C75.9654 17.582 75.9715 13.6989 75.9715 9.81579C75.9715 7.42873 75.9611 5.04204 75.9804 2.65498C75.9842 2.21729 75.8962 2.01868 75.3808 2.05785C74.7686 2.10474 74.1492 2.05104 73.534 2.0755C73.1844 2.08911 73.1317 1.94015 73.1278 1.65547C73.1245 1.35019 73.2308 1.25088 73.5539 1.2518C76.3173 1.26192 79.08 1.2632 81.843 1.25125C82.203 1.24941 82.235 1.41125 82.2371 1.68287C82.2385 1.94861 82.1769 2.08286 81.8573 2.07458C81.1545 2.05619 80.4487 2.09408 79.7461 2.05987C79.3087 2.03854 79.1851 2.16414 79.1874 2.58767C79.2059 5.74804 79.1974 8.90805 79.1974 12.0684H79.1976ZM100.744 28.3716C100.744 27.3314 100.737 26.2906 100.749 25.25C100.752 24.9356 100.701 24.7204 100.296 24.7585C100.171 24.7704 99.9669 24.7982 99.9823 24.5985C99.9977 24.4136 100.195 24.4672 100.325 24.4587C100.536 24.4447 100.747 24.4504 100.958 24.4375C101.785 24.3875 101.785 24.3861 101.954 25.1735C102.371 24.723 102.796 24.3397 103.457 24.3386C104.286 24.3371 104.777 24.7255 104.881 25.5119C104.982 26.2815 104.939 27.0545 104.932 27.8258C104.929 28.1991 104.981 28.4584 105.465 28.3988C105.576 28.3852 105.75 28.3705 105.761 28.5287C105.776 28.7376 105.576 28.6923 105.452 28.6936C104.767 28.7004 104.082 28.6986 103.397 28.6942C103.282 28.6936 103.116 28.7173 103.104 28.5575C103.092 28.392 103.256 28.3883 103.372 28.3981C103.738 28.4279 103.811 28.2436 103.805 27.9398C103.789 27.0846 103.801 26.2284 103.786 25.3725C103.783 25.1257 103.791 24.8383 103.506 24.7116C103.207 24.5782 102.925 24.6932 102.664 24.8554C102.274 25.0989 102.103 25.4876 101.923 25.8705C101.765 26.6477 101.897 27.4319 101.855 28.2116C101.845 28.3881 101.949 28.4389 102.117 28.4433C102.265 28.4475 102.431 28.3955 102.553 28.5919C101.708 28.6419 100.864 28.6467 99.8969 28.6375C100.207 28.3164 100.537 28.5561 100.743 28.3716H100.744ZM96.8208 26.9243C96.9278 27.4466 96.8766 27.974 96.8521 28.4985C96.844 28.6723 96.6854 28.6943 96.5375 28.6945C95.4289 28.6964 94.3201 28.7052 93.2115 28.692C92.8369 28.6875 92.7745 28.5029 93.034 28.1467C93.5259 27.4699 94.0344 26.8047 94.5352 26.1348C94.8015 25.7793 95.0666 25.4231 95.3315 25.067C95.4827 24.8635 95.4274 24.7864 95.1663 24.7618C94.1632 24.6661 93.731 24.9236 93.3738 25.8573C93.3338 25.9617 93.3405 26.1372 93.1855 26.1199C92.993 26.0978 93.0575 25.9115 93.0498 25.7894C92.9674 24.457 92.9685 24.4569 94.3561 24.457C95.0425 24.457 95.7289 24.4508 96.4153 24.4602C96.9074 24.4664 96.9871 24.6069 96.6975 25.003C95.9832 25.9818 95.2501 26.9484 94.5271 27.9216C94.4385 28.0411 94.2614 28.1607 94.3288 28.307C94.4006 28.4652 94.6087 28.3883 94.7562 28.388C95.8302 28.3872 96.1482 28.17 96.5591 27.186C96.5999 27.0878 96.5938 26.9429 96.8206 26.9241L96.8208 26.9243Z" fill="#949494"/>
<path fill-rule="evenodd" clip-rule="evenodd" d="M100.744 28.3713C100.603 28.4909 100.421 28.4868 100.251 28.5562H102.292C101.871 28.5234 101.771 28.265 101.801 27.9125C101.862 27.2332 101.668 26.5397 101.923 25.8704C101.908 26.5579 101.899 27.2457 101.875 27.9325C101.865 28.2297 101.934 28.4272 102.305 28.3967C102.423 28.3868 102.584 28.3919 102.568 28.56C102.552 28.7206 102.39 28.6952 102.273 28.6954C100.693 28.6979 99.1121 28.6978 97.5314 28.6954C97.4139 28.6954 97.2537 28.7119 97.2561 28.5437C97.258 28.3763 97.4205 28.3855 97.5352 28.3969C97.9241 28.4355 98.0046 28.2465 97.9985 27.9178C97.9811 27.0283 97.9838 26.1388 97.9973 25.2494C98.0019 24.9349 97.9526 24.7179 97.5472 24.7584C97.4363 24.7701 97.2638 24.7915 97.2584 24.6241C97.2516 24.4172 97.444 24.4667 97.5718 24.4599C97.8348 24.4459 98.0993 24.4544 98.362 24.4364C99.124 24.3836 99.124 24.3799 99.124 25.1402C99.1248 26.0126 99.1577 26.8872 99.1119 27.7571C99.0842 28.2798 99.2852 28.453 99.7979 28.4081C100.111 28.3805 100.428 28.3824 100.743 28.371L100.744 28.3713ZM70.2382 25.2858C69.9683 26.1502 70.0155 27.0395 70.0066 27.9252C70.0037 28.2106 70.0374 28.4291 70.4215 28.3971C70.5378 28.3872 70.7019 28.3842 70.703 28.5455C70.7038 28.7084 70.5394 28.6941 70.4233 28.6945C69.7565 28.6985 69.09 28.6987 68.4234 28.6935C68.3102 28.6924 68.1427 28.7127 68.1512 28.5405C68.1589 28.3781 68.3235 28.3873 68.4369 28.3976C68.8547 28.4351 68.8755 28.1904 68.8726 27.8919C68.8641 27.0208 68.8599 26.1492 68.8745 25.2783C68.8803 24.945 68.8283 24.7122 68.398 24.7571C68.3017 24.7672 68.1654 24.7626 68.1525 24.6302C68.1358 24.4537 68.2935 24.473 68.409 24.461C68.5133 24.4503 68.6188 24.4542 68.7244 24.4474C69.0734 24.424 69.4286 24.3496 69.7712 24.386C70.2954 24.4415 69.7773 24.9984 70.1297 25.1663C70.223 25.1586 70.2821 25.1799 70.2375 25.2858H70.2382ZM70.2382 25.2858L70.13 25.1659C70.5473 24.456 71.2075 24.2515 72.0053 24.3611C72.6676 24.4522 73.2876 25.2408 73.1599 25.855C73.0213 26.5222 73.0512 27.1927 73.0338 27.8641C73.0257 28.186 73.0633 28.4423 73.5036 28.3974C73.6095 28.3868 73.7316 28.4122 73.7339 28.5442C73.7368 28.6792 73.6145 28.6935 73.5075 28.6937C72.8217 28.6956 72.1353 28.6956 71.4493 28.6919C71.3449 28.6911 71.2186 28.6783 71.224 28.5416C71.2292 28.4079 71.3574 28.389 71.4597 28.4C71.904 28.4467 71.9298 28.1896 71.9229 27.8682C71.9062 27.045 71.9171 26.2211 71.896 25.398C71.8892 25.1387 71.9204 24.8058 71.5892 24.7065C71.2415 24.6017 70.8934 24.6721 70.6189 24.9415C70.4972 25.0611 70.3655 25.1714 70.2382 25.2862V25.2858ZM73.2377 25.2314C73.4457 24.6164 74.0922 24.2762 74.9047 24.3463C75.542 24.4014 75.9906 24.7913 76.0256 25.4147C76.0722 26.2355 76.0691 27.0592 76.0635 27.8814C76.0608 28.2176 76.1165 28.4466 76.546 28.3986C76.6635 28.3853 76.8271 28.3927 76.8175 28.5549C76.8079 28.7125 76.6442 28.6946 76.5262 28.6954C75.8758 28.6987 75.225 28.6994 74.5751 28.6945C74.4611 28.6937 74.2972 28.7266 74.2737 28.5681C74.2476 28.3943 74.4137 28.3901 74.5275 28.3993C74.8937 28.428 74.9674 28.2448 74.9619 27.9406C74.9476 27.1351 74.9676 26.3287 74.9484 25.523C74.9411 25.233 75.0042 24.8665 74.6623 24.712C74.2787 24.5382 73.9622 24.8003 73.6476 24.9774C73.509 25.055 73.4647 25.2739 73.2375 25.2312L73.2377 25.2314ZM99.3747 22.1405C98.9332 22.3281 98.4806 22.4671 97.9877 22.4296C97.9388 22.1185 98.0268 21.8595 98.3527 21.7466C98.6569 21.6418 98.9353 21.7091 99.1273 21.9792C99.1904 22.0682 99.2684 22.1205 99.3747 22.1405ZM68.6185 3.80779C67.4051 2.32185 65.9706 1.19637 63.9361 0.903963C63.8617 0.89348 63.8055 0.826172 63.7847 0.826172H62.5173C62.4907 0.826172 62.3709 0.919962 62.2724 0.935226C60.4368 1.21844 59.0382 2.17105 57.8647 3.48541C53.6226 8.23672 53.612 15.8406 57.8347 20.7162C58.8584 21.8987 60.0746 22.8149 61.6753 23.1443C64.3496 23.6941 66.465 22.7305 68.1976 20.8344C72.4649 16.1651 72.6447 8.73841 68.6183 3.80779H68.6185ZM67.2626 18.7462C66.9436 20.8427 65.8571 21.9553 63.9222 22.3801C61.9506 22.8132 60.3064 22.0521 59.4362 20.3125C58.8707 19.1823 58.6997 17.9714 58.6102 16.742C58.5755 16.2725 58.5278 15.803 58.522 15.333C58.5089 14.2406 58.5182 13.1482 58.5182 12.0558C58.4843 9.92109 58.4824 7.78561 58.8162 5.66668C58.908 5.08334 59.0584 4.51453 59.3014 3.96999C59.9876 2.43404 61.2749 1.73631 62.9522 1.66459C64.6933 1.59047 66.0202 2.27514 66.8121 3.79896C67.2492 4.64013 67.4461 5.54788 67.5168 6.47236C67.831 10.5701 67.883 14.6685 67.2626 18.746V18.7462ZM87.3683 24.6464C87.2963 24.4165 87.1138 24.3457 86.8793 24.344C86.6546 24.3422 86.4538 24.413 86.3082 24.5647C86.1061 24.7751 85.9401 24.7953 85.686 24.6175C85.2148 24.2872 84.6551 24.2688 84.1145 24.388C83.4618 24.5314 82.9551 24.8851 82.7783 25.5429C82.6127 26.1581 82.8715 26.6233 83.3925 26.9799C83.4129 26.9937 83.411 27.0375 83.4264 27.0928C83.3057 27.1475 83.1784 27.1967 83.0594 27.2607C82.3278 27.6543 82.2277 28.7051 82.9162 29.1667C83.277 29.4089 83.1636 29.4893 82.8958 29.6791C82.2787 30.1168 82.3014 30.7227 82.9073 31.1865C83.1903 31.4028 83.5571 31.4322 83.85 31.618H85.1168C85.541 31.428 86.0237 31.3748 86.4001 31.0699C87.0181 30.5686 87.2607 29.8157 86.9983 29.1217C86.778 28.54 86.2501 28.2882 85.3463 28.3235C84.7489 28.3471 84.1513 28.3719 83.5535 28.3732C83.2989 28.3737 82.9697 28.3934 82.9108 28.0686C82.8449 27.71 83.1713 27.5947 83.4422 27.4739C83.6085 27.4003 83.7862 27.4316 83.962 27.4415C84.2604 27.4581 84.5621 27.4857 84.8573 27.459C86.165 27.34 86.7734 26.4236 86.3346 25.2522C86.2942 25.144 86.1973 25.0374 86.3256 24.934C86.4742 24.8145 86.583 24.904 86.6794 25.016C86.84 25.2036 87.0368 25.2312 87.2378 25.0988C87.4007 24.9918 87.4236 24.82 87.3687 24.6458L87.3683 24.6464ZM83.2604 30.0075C83.3686 29.6443 83.602 29.3863 84.0487 29.3946C84.3467 29.4001 84.6449 29.3957 84.9428 29.3957C85.3269 29.3445 85.7114 29.2767 86.0949 29.3657C86.741 29.5158 86.9343 29.9851 86.5656 30.5035C86.0435 31.2382 84.3488 31.5449 83.591 31.0374C83.2046 30.779 83.1416 30.4048 83.2606 30.0075H83.2604ZM85.4091 26.4233C85.3463 27.0084 85.163 27.167 84.577 27.1533C84.0359 27.1405 83.8654 26.9805 83.8328 26.3984C83.8124 26.0317 83.8213 25.6628 83.8376 25.2957C83.8555 24.8735 84.0937 24.6631 84.5438 24.6558C85.0059 24.6479 85.3382 24.7926 85.4049 25.2709C85.4345 25.4857 85.433 25.7042 85.4407 25.8333C85.4272 26.0889 85.4266 26.2568 85.4089 26.4233H85.4091ZM36.754 21.9862C36.6604 21.6721 36.3965 21.948 36.2369 21.9837C35.1922 22.2185 34.5199 21.8393 34.274 20.8385C34.2418 20.7079 34.2239 20.5742 34.2024 20.4416C34.0208 19.3244 34.1452 18.1938 34.0175 17.0714C33.7869 15.0408 32.9336 13.4062 31.0009 12.3845C30.3825 12.0577 29.7264 11.8254 29.0533 11.579C30.029 11.3127 30.989 11.0486 31.8935 10.63C34.1088 9.60478 35.1053 7.67692 34.6381 5.23432C34.3185 3.56302 33.082 1.56969 30.1597 1.34772C29.369 1.2874 28.5796 1.25724 27.7877 1.25724C24.9022 1.25724 22.0167 1.25834 19.1309 1.25595C18.8228 1.25559 18.5629 1.21549 18.5625 1.67231C18.5621 2.1523 18.8594 2.0677 19.1472 2.06825C19.7104 2.06972 20.2755 2.09712 20.8357 2.05979C21.2928 2.02945 21.4353 2.15358 21.4299 2.6104C21.4041 4.86247 21.4183 7.11473 21.4183 9.36699C21.4183 13.3834 21.4095 17.4002 21.4295 21.4172C21.4318 21.904 21.3415 22.1135 20.7768 22.064C20.1661 22.0107 19.5458 22.0668 18.9308 22.0467C18.5881 22.0353 18.5775 22.2137 18.5746 22.4568C18.5723 22.7057 18.5948 22.8609 18.9331 22.8596C21.6602 22.8482 24.3876 22.8485 27.1148 22.8592C27.4333 22.8605 27.4935 22.7378 27.4935 22.4712C27.4935 22.1913 27.4448 22.034 27.0919 22.0454C26.4065 22.0682 25.7192 22.0408 25.0337 22.0572C24.7357 22.064 24.6371 21.968 24.6381 21.6824C24.6462 18.523 24.645 15.3631 24.64 12.2033C24.6396 11.9525 24.7155 11.8398 25 11.8455C25.8612 11.862 26.7244 11.821 27.5808 11.9514C28.7431 12.1283 29.5997 12.6607 30.0344 13.7591C30.3627 14.5885 30.5465 15.4266 30.5321 16.3159C30.5155 17.3399 30.3698 18.3738 30.5273 19.3871C31.0514 22.7599 33.3937 23.7346 36.4404 22.7621C36.914 22.6109 36.8366 22.261 36.7546 21.986L36.754 21.9862ZM25.0025 11.0407C24.6127 11.0536 24.6414 10.8242 24.6415 10.5822C24.6429 9.22134 24.6421 7.86083 24.6421 6.50031C24.6421 5.17345 24.6525 3.84623 24.635 2.51937C24.6302 2.17179 24.7361 2.05041 25.11 2.06273C26.3568 2.10356 27.6048 2.03202 28.8524 2.14365C29.9397 2.24149 30.6315 2.81269 30.9131 3.75758C31.4651 5.61077 31.381 7.48585 30.8092 9.32175C30.5088 10.2854 29.7858 10.8393 28.6913 10.9535C27.4616 11.0819 26.2315 11.0013 25.0024 11.0411L25.0025 11.0407ZM91.7561 27.7067C91.7473 26.9349 91.7504 26.1627 91.7377 25.3908C91.73 24.9311 91.5521 24.5522 91.0438 24.4413C90.2607 24.2707 89.476 24.2593 88.7199 24.5756C88.507 24.6644 88.3242 24.7981 88.2039 24.9916C88.0576 25.2251 88.0214 25.4716 88.2108 25.697C88.3749 25.8925 88.6065 25.9135 88.8335 25.8184C89.1392 25.69 89.16 25.4524 89.053 25.1849C88.9305 24.8788 89.1007 24.7527 89.3811 24.6861C90.2494 24.4805 90.5621 24.7299 90.6198 25.5951C90.6522 26.0781 90.5284 26.2862 89.9748 26.2958C89.3787 26.3061 88.7869 26.4507 88.2877 26.801C87.85 27.1085 87.6689 27.5259 87.8086 28.0387C87.9347 28.5012 88.3529 28.7761 88.9176 28.8133C89.4188 28.8464 89.8691 28.7263 90.2207 28.3851C90.4725 28.1405 90.6173 28.0681 90.8102 28.4458C91.012 28.8407 91.4283 28.8522 91.8249 28.7939C92.2138 28.7364 92.4285 28.4986 92.5157 28.0467C91.8734 28.4048 91.7635 28.3447 91.7561 27.7069V27.7067ZM90.284 28.0105C90.0264 28.2505 89.7301 28.3673 89.3764 28.2713C89.0896 28.1933 88.9592 27.9719 88.9292 27.7067C88.8887 27.3545 88.975 27.0322 89.3038 26.8258C89.605 26.6368 89.9552 26.5867 90.3089 26.5805C90.7242 26.5735 90.5755 26.8847 90.6117 27.0535C90.6156 27.4323 90.559 27.7542 90.284 28.0105ZM81.2458 27.6453C81.2352 26.8723 81.2292 26.0992 81.2284 25.3263C81.228 24.8329 80.972 24.5134 80.4833 24.4209C79.7517 24.2819 79.0143 24.2631 78.3035 24.543C78.0197 24.6548 77.7673 24.8152 77.6546 25.1003C77.5641 25.3301 77.5576 25.5723 77.7759 25.7513C77.9715 25.9109 78.201 25.9094 78.4138 25.782C78.6514 25.64 78.6483 25.4204 78.5609 25.2012C78.4921 25.0274 78.4685 24.8864 78.6604 24.7643C79.2758 24.3726 80.0517 24.7172 80.116 25.4171C80.1252 25.5173 80.1225 25.619 80.1352 25.7191C80.1795 26.0887 80.0528 26.2649 79.6212 26.28C78.9852 26.3021 78.3597 26.429 77.8202 26.7843C77.3535 27.0914 77.1743 27.5754 77.3204 28.0653C77.4509 28.5023 77.8914 28.7722 78.4556 28.8166C79.1371 28.8699 79.6227 28.5286 80.1133 28.0559C80.3274 28.695 80.7586 28.9056 81.3617 28.7906C81.7436 28.7171 81.947 28.4793 82.0282 28.0822C81.3567 28.3866 81.2558 28.325 81.2465 27.6449L81.2458 27.6453ZM80.1412 26.9943C80.1069 27.4165 80.0742 27.7451 79.7962 28.003C79.5368 28.2432 79.2428 28.3677 78.8905 28.2726C78.6088 28.1966 78.4702 27.9839 78.4457 27.7091C78.413 27.3376 78.4873 27.0038 78.8558 26.798C79.0705 26.6781 79.3133 26.6366 79.5559 26.5945C79.9698 26.5222 80.2213 26.6141 80.1412 26.9945V26.9943Z" fill="#949494"/>
</svg>
