<svg width="151" height="29" viewBox="0 0 151 29" fill="none" xmlns="http://www.w3.org/2000/svg">
<path d="M97.5445 21.4746C94.568 13.9757 93.7619 12.5159 92.5968 12.5159C92.1598 12.5159 91.8977 12.2398 92.0145 11.9023C92.2851 11.1202 99.6252 11.0826 99.8948 11.8619C99.9954 12.1528 99.6099 12.5088 99.0383 12.6529C97.6027 13.0147 97.7227 14.1212 99.7136 18.8778L101.428 22.9747L102.769 19.0936C104.428 14.2927 104.436 13.6194 102.837 12.9175C100.43 11.8605 101.377 11.2474 105.384 11.2685C109.239 11.289 109.934 11.6473 108.321 12.784C107.549 13.3285 107.513 13.6715 108.031 15.5408C108.357 16.7151 109.114 18.7788 109.714 20.1268C110.979 22.9709 111.038 22.9178 112.96 17.2337C114.303 13.2614 114.301 12.5159 112.95 12.5159C112.523 12.5159 112.265 12.2536 112.376 11.933C112.648 11.144 118.49 11.144 118.763 11.933C118.874 12.2536 118.725 12.5159 118.433 12.5159C117.217 12.5159 115.852 14.8561 113.273 21.3639C111.772 25.1491 110.331 28.1776 110.071 28.0939C109.81 28.0102 108.686 25.6305 107.572 22.8059C106.459 19.9812 105.497 17.6197 105.434 17.558C105.371 17.4962 104.346 19.8709 103.155 22.835C101.965 25.7991 100.818 28.2242 100.607 28.2242C100.396 28.2242 99.0173 25.1868 97.5438 21.4745L97.5445 21.4746ZM41.5612 26.7325C40.2445 25.5502 40.1755 24.7537 41.221 22.805C42.0081 21.3381 44.237 20.0068 47.7292 18.9179L49.6641 18.3146L49.5118 15.834C49.3324 12.9117 48.4036 12.0463 46.2353 12.7812C45.2797 13.1051 44.7075 13.7467 44.4197 14.8174C43.971 16.4863 42.2675 17.4127 41.3224 16.5017C40.4523 15.6631 41.8996 13.5814 44.2925 12.2298C46.913 10.7496 50.5767 10.6092 51.8272 11.941C52.5177 12.6764 52.6701 13.9578 52.6701 19.0299C52.6701 22.4528 52.8885 25.3512 53.1587 25.5121C53.4274 25.6722 54.1046 25.5288 54.6634 25.1914C56.0389 24.3635 56.6097 25.0482 55.5156 26.2136C54.212 27.6019 52.2734 27.9174 50.7926 26.9823C49.6408 26.2549 49.3866 26.253 47.841 26.9598C45.4861 28.0369 42.91 27.9436 41.5613 26.7325L41.5612 26.7325ZM48.2722 24.7525C49.8561 23.5516 50.2392 20.3701 48.7999 20.3701C47.718 20.3701 44.5211 21.849 44.5211 22.3494C44.5211 22.5666 44.3933 23.0652 44.2371 23.4574C43.9199 24.2541 45.2534 25.7699 46.2714 25.7699C46.6338 25.7699 47.5341 25.312 48.2722 24.7525ZM120.605 26.8267C118.798 25.7315 116.842 22.2275 116.846 20.0924C116.858 14.39 121.822 9.86758 126.979 10.8617C130.284 11.4988 133.123 15.7797 130.808 16.6359C130.365 16.7997 127.844 16.9339 125.205 16.9339H120.409V18.9218C120.409 21.2301 121.45 23.4225 123.066 24.5129C124.722 25.6313 128.137 25.4933 129.789 24.2412C131.275 23.1148 132.154 23.3609 131.301 24.6643C129.447 27.498 123.648 28.6704 120.605 26.8267ZM128.048 14.3128C128.048 12.1023 124.511 11.5304 122.318 13.3864C120.547 14.8857 121.218 15.4612 124.738 15.4612C127.869 15.4612 128.048 15.3991 128.048 14.3128ZM0.210938 26.7395C0.210938 26.4628 0.783901 26.0265 1.48422 25.7699C2.74072 25.3094 2.75748 25.2287 2.75748 19.6459C2.75748 14.3732 2.6903 13.9886 1.76892 13.9886C0.215731 13.9886 0.0141875 13.0546 1.45356 12.5272C2.24527 12.2371 2.75748 11.6684 2.75748 11.0796C2.75748 6.68422 5.34709 2.26438 8.7176 0.907032C10.9472 0.00917104 12.1019 0.0724149 13.5074 1.16935C14.5241 1.96279 14.5959 2.20793 14.0108 2.88742C13.2546 3.76565 11.1431 3.95531 10.6518 3.18914C10.4788 2.91916 9.78349 2.69825 9.1069 2.69825C7.40233 2.69825 6.34307 4.87684 6.1909 8.69552L6.06809 11.7797L8.68784 11.9262C10.9762 12.0542 11.2755 12.1908 11.0544 13.0059C10.8596 13.7238 10.2555 13.973 8.43467 14.0865L6.06809 14.234L5.91871 18.8974C5.73526 24.6262 5.9599 25.5756 7.59152 25.9703C10.2598 26.6158 8.75658 27.2424 4.54007 27.2424C1.92382 27.2424 0.210938 27.0434 0.210938 26.7394V26.7395ZM12.1798 26.7524C12.0067 26.4825 12.3287 26.2616 12.8958 26.2616C14.5127 26.2616 14.981 24.7391 14.981 19.4813C14.981 15.0247 14.8853 14.5389 13.8813 13.8963C12.8028 13.2062 12.8268 13.167 15.1179 11.8729C16.4029 11.1471 17.5281 10.5531 17.6182 10.5529C17.7083 10.5527 17.7035 13.6213 17.6067 17.3719C17.4282 24.3266 17.8028 26.2616 19.3274 26.2616C19.7378 26.2616 20.0735 26.4825 20.0735 26.7524C20.0735 27.0357 18.4707 27.2433 16.2837 27.2433C14.1993 27.2433 12.3523 27.0224 12.1791 26.7524H12.1798ZM20.5834 26.7855C20.5834 26.5337 21.0991 26.1726 21.7294 25.983C23.4523 25.4648 23.623 24.9316 23.6315 20.0429C23.6392 15.132 23.3908 13.9894 22.3115 13.9894C21.0501 13.9894 21.5544 13.1685 23.6284 11.8456C26.1463 10.2396 26.6951 10.2267 26.6951 11.7731V12.9931L28.3504 12.0203C30.7508 10.6098 34.3785 10.7053 36.2163 12.2276C37.6149 13.386 37.649 13.5381 37.816 19.3734C37.9815 25.1574 38.0234 25.3492 39.2166 25.7864C41.6634 26.683 40.4716 27.2432 36.1174 27.2432C31.7365 27.2432 30.5729 26.6825 33.0615 25.7705C34.3084 25.3137 34.3348 25.1967 34.3348 20.1375C34.3348 15.6256 34.2059 14.8467 33.3162 13.9893C32.1076 12.8244 30.7366 12.745 28.7688 13.7257C26.86 14.6771 26.6951 15.229 26.6951 20.6685C26.6951 25.1613 26.7344 25.3183 27.9684 25.7705C30.4571 26.6825 29.2935 27.2432 24.9126 27.2432C22.5315 27.2432 20.5834 27.0372 20.5834 26.7854V26.7855ZM56.2352 26.7402C56.2352 26.4635 56.8082 26.0272 57.5085 25.7706C58.7592 25.3123 58.7818 25.2091 58.7818 19.952C58.7818 15.013 58.6969 14.5457 57.6821 13.8962C56.6037 13.2061 56.6276 13.1669 58.9187 11.8728C61.8078 10.241 62.347 10.2253 62.347 11.7731V12.9932L64.0022 12.0205C65.6246 11.0671 69.0428 10.7258 70.7278 11.349C72.3923 11.9646 73.0422 14.2419 73.0503 19.4875C73.058 24.7535 73.2213 25.3887 74.6978 25.9137C76.8438 26.6769 75.3793 27.2433 71.2599 27.2433C67.0434 27.2433 65.5402 26.6166 68.2085 25.9711C69.8447 25.5753 70.1372 24.397 69.912 19.11C69.7505 15.3203 69.6025 14.7833 68.4777 13.9055C67.0525 12.7932 64.8158 12.9699 63.2717 14.3167C62.4873 15.0009 62.347 15.9258 62.347 20.4128C62.347 25.4663 62.3962 25.7093 63.453 25.8592C64.0614 25.9455 64.6534 26.2922 64.7688 26.6296C64.9256 27.0886 63.8764 27.2433 60.6068 27.2433C57.9616 27.2433 56.2352 27.0446 56.2352 26.7402ZM76.6077 26.9656C76.6077 26.3481 77.9854 24.2938 81.6889 19.3891C83.8295 16.5542 85.7528 13.9587 85.9628 13.6212C86.2504 13.1592 85.6326 13.0076 83.4632 13.0076C80.9181 13.0076 80.4149 13.1796 79.1543 14.4802C77.3426 16.3495 76.4778 16.397 76.9241 14.6029C77.5886 11.9321 78.6481 10.4422 79.5707 10.8814C80.042 11.1058 82.8913 11.2251 85.9026 11.1465C88.914 11.0678 91.3777 11.2017 91.3777 11.444C91.3777 11.6863 90.6185 12.8551 89.6905 14.0414C87.1903 17.2374 81.7008 25.0737 81.7008 25.4467C81.7008 25.9757 86.1365 25.8145 87.4498 25.2378C88.117 24.9448 89.0575 24.0612 89.5398 23.2742C90.6894 21.3985 91.3794 21.4605 91.3708 23.4388C91.3535 27.3495 91.5687 27.2432 83.6787 27.2432C79.7897 27.2432 76.6077 27.1182 76.6077 26.9655V26.9656ZM131.738 26.6296C131.853 26.2922 132.446 25.9454 133.054 25.8592C134.147 25.7042 134.16 25.5842 134.16 15.936C134.16 6.53842 134.12 6.14905 133.098 5.62181C131.856 4.98117 132.06 4.68869 134.297 3.90153C135.202 3.58307 136.344 3.15853 136.834 2.95819C137.668 2.61732 137.725 3.32317 137.725 13.949V25.304L138.998 25.7706C141.495 26.6853 140.321 27.2432 135.9 27.2432C132.631 27.2432 131.581 27.0885 131.738 26.6296ZM142.878 26.3188C141.862 25.3398 141.8 24.7833 141.8 16.6892C141.8 8.51304 141.752 8.09869 140.811 8.09869C138.796 8.09869 139.064 6.93941 141.569 4.81498C142.941 3.65118 144.227 2.69899 144.427 2.69899C144.627 2.69899 144.863 3.41691 144.951 4.29436C145.106 5.8529 145.173 5.89321 147.816 6.03921C150.039 6.16203 150.493 6.33714 150.358 7.02094C150.233 7.65334 149.553 7.88892 147.525 8.00165L144.855 8.15005L144.863 15.365C144.867 19.3332 145.009 23.0793 145.179 23.6897C145.544 25.0044 147.398 25.5794 148.852 24.8292C149.422 24.5356 150.011 24.4873 150.161 24.7218C150.678 25.5273 148.461 26.8686 146.21 27.1132C144.382 27.3118 143.753 27.162 142.879 26.3188L142.878 26.3188ZM15.0013 7.87686C13.6528 6.31081 15.6424 3.8492 17.2302 5.11925C18.1883 5.88563 18.2762 7.18086 17.4257 8.00057C16.6091 8.7876 15.7476 8.74362 15.0013 7.8768V7.87686Z" fill="#949494"/>
</svg>
