<svg width="138" height="35" viewBox="0 0 138 35" fill="none" xmlns="http://www.w3.org/2000/svg">
<path d="M22.77 34.9318C22.6633 34.9318 22.576 34.8169 22.576 34.6765C22.576 34.5362 22.6137 34.3266 22.6599 34.2108C22.7061 34.0951 22.8618 34.0004 23.0058 34.0004C23.1499 34.0004 23.2677 34.0214 23.2677 34.0471C23.2677 34.0727 23.1994 34.2823 23.1158 34.5127C23.0323 34.7432 22.8767 34.9318 22.77 34.9318ZM41.238 34.9318C41.0947 34.9318 40.9774 34.9108 40.9774 34.8851C40.9774 34.8594 41.0458 34.6499 41.1293 34.4194C41.2129 34.1889 41.3685 34.0004 41.4752 34.0004C41.5819 34.0004 41.6684 34.0752 41.6673 34.1667C41.6662 34.2582 41.6279 34.4677 41.582 34.6324C41.533 34.8085 41.3913 34.9318 41.238 34.9318ZM3.21964 34.3995H2.65254V33.069V31.7385H3.46124C4.06685 31.7385 4.32702 31.7991 4.49727 31.98C4.6223 32.1129 4.76382 32.4102 4.81174 32.6406C4.85967 32.871 4.85877 33.2652 4.80975 33.5165C4.74187 33.8644 4.60929 34.0242 4.25369 34.1865C3.99687 34.3037 3.53155 34.3995 3.21964 34.3995ZM3.28882 34.1334C3.33439 34.1334 3.58344 34.0368 3.84225 33.9187C4.28033 33.7188 4.31282 33.6602 4.31282 33.0701C4.31282 32.7215 4.23465 32.3739 4.1391 32.2977C4.04356 32.2214 3.79451 32.1178 3.58567 32.0674L3.20596 31.9757V33.0546C3.20596 33.648 3.24325 34.1334 3.28882 34.1334ZM6.10077 34.3722C5.84031 34.3938 5.50269 34.3237 5.3505 34.2166C5.13696 34.0662 5.07693 33.8779 5.08755 33.3919C5.09733 32.9445 5.17513 32.7102 5.35612 32.5829C5.49626 32.4844 5.78228 32.4037 5.9917 32.4037C6.22835 32.4037 6.45401 32.5157 6.58787 32.6994C6.70633 32.8621 6.80325 33.1016 6.80325 33.2317C6.80325 33.4233 6.68503 33.4682 6.18064 33.4682C5.73078 33.4682 5.55803 33.5214 5.55803 33.6599C5.55803 33.7653 5.63408 33.8968 5.72702 33.9521C5.81996 34.0073 6.07467 34.0394 6.29303 34.0234C6.56184 34.0037 6.67137 34.049 6.63219 34.1637C6.60036 34.2568 6.36122 34.3507 6.10077 34.3722ZM5.90393 33.2021C6.10734 33.2021 6.24982 33.1257 6.24982 33.0167C6.24982 32.9148 6.16402 32.7997 6.05914 32.761C5.95427 32.7223 5.79862 32.7578 5.71325 32.8399C5.62788 32.922 5.55803 33.0371 5.55803 33.0956C5.55803 33.1542 5.71369 33.2021 5.90393 33.2021ZM8.19405 34.3796C7.74277 34.3894 7.43631 34.3241 7.29473 34.1879C7.14891 34.0477 7.07996 33.7281 7.07996 33.1926C7.07996 32.5801 7.12636 32.4037 7.2875 32.4037C7.4439 32.4037 7.49503 32.5653 7.49503 33.0595C7.49503 33.4842 7.57332 33.7906 7.71723 33.9289C7.88878 34.0939 7.98338 34.1075 8.1323 33.9887C8.25348 33.892 8.32518 33.5688 8.32518 33.1192V32.4037H8.79329C9.14504 32.4037 9.27939 32.3376 9.33377 32.1376C9.37356 31.9913 9.47422 31.8715 9.55744 31.8715C9.64066 31.8715 9.70875 31.9913 9.70875 32.1376C9.70875 32.315 9.80099 32.4037 9.98546 32.4037C10.1377 32.4037 10.2622 32.4636 10.2622 32.5368C10.2622 32.61 10.1344 32.6698 9.97823 32.6698C9.72308 32.6698 9.69853 32.7396 9.73611 33.3582L9.77793 34.0466L10.442 34.0391C10.8073 34.0349 11.1497 33.9875 11.203 33.9338C11.2563 33.8801 11.1835 33.7683 11.0413 33.6854C10.8991 33.6025 10.6523 33.437 10.4929 33.3175C10.2403 33.1283 10.2242 33.0554 10.368 32.752C10.5061 32.4604 10.6235 32.4037 11.0894 32.4037C11.4978 32.4037 11.6457 32.4581 11.6457 32.6083C11.6457 32.7505 11.5341 32.8013 11.2798 32.7747C11.0785 32.7536 10.8946 32.7962 10.871 32.8694C10.8475 32.9426 11.0396 33.132 11.2978 33.2904L11.7674 33.5783L11.8631 33.1592C11.9157 32.9287 12.0596 32.6664 12.1827 32.5762C12.3059 32.486 12.6402 32.4103 12.9255 32.408C13.313 32.4048 13.4444 32.4582 13.4444 32.6188C13.4444 32.7738 13.3608 32.8129 13.1453 32.7587C12.9808 32.7173 12.7318 32.7424 12.5919 32.8144C12.4209 32.9024 12.3375 33.0949 12.3375 33.4016C12.3375 33.7084 12.4209 33.9009 12.5919 33.9889C12.7318 34.0609 12.9808 34.0859 13.1453 34.0446C13.3608 33.9904 13.4444 34.0295 13.4444 34.1844C13.4444 34.3423 13.3132 34.3995 12.951 34.3995C12.6797 34.3995 12.3373 34.3376 12.1901 34.2618C12.0429 34.1861 11.9206 34.0214 11.9183 33.8959C11.9147 33.7016 11.8907 33.7073 11.7571 33.9339C11.6708 34.0802 11.5338 34.242 11.4527 34.2933C11.3716 34.3447 10.8906 34.3854 10.384 34.3839C9.46822 34.3811 9.46228 34.3787 9.37823 33.9745C9.33172 33.7509 9.29368 33.3659 9.29368 33.1189C9.29368 32.8084 9.22962 32.6698 9.08614 32.6698C8.92339 32.6698 8.8786 32.8527 8.8786 33.5173V34.3648L8.19405 34.3796ZM13.7903 34.3995C13.6184 34.3995 13.5827 34.1482 13.5827 32.9359C13.5827 31.7237 13.6184 31.4723 13.7903 31.4723C13.9383 31.4723 13.9978 31.6172 13.9978 31.9778C13.9978 32.4737 14.0067 32.4823 14.465 32.4309C14.8332 32.3896 14.9798 32.4438 15.1568 32.6868C15.2951 32.8767 15.3814 33.2648 15.3814 33.6974C15.3814 34.3108 15.3464 34.3995 15.1047 34.3995C14.8593 34.3995 14.828 34.3108 14.828 33.6155C14.828 33.0477 14.7717 32.8106 14.6242 32.7562C14.5064 32.7127 14.3313 32.8034 14.2091 32.9711C14.0929 33.1307 13.9978 33.5174 13.9978 33.8304C13.9978 34.2476 13.9424 34.3995 13.7903 34.3995ZM15.8656 34.3995C15.6937 34.3995 15.6581 34.1482 15.6581 32.9359C15.6581 31.7237 15.6937 31.4723 15.8656 31.4723C16.0375 31.4723 16.0732 31.7237 16.0732 32.9359C16.0732 34.1482 16.0375 34.3995 15.8656 34.3995ZM17.3843 34.3815C16.6948 34.3968 16.6047 34.3658 16.4622 34.065C16.3265 33.7787 16.3499 33.6849 16.6279 33.4003C16.8059 33.2181 17.1015 33.069 17.2849 33.069C17.4918 33.069 17.595 33.0059 17.5571 32.9027C17.5236 32.8112 17.4094 32.7447 17.3035 32.7548C17.1975 32.765 16.9956 32.8187 16.8547 32.8741C16.6519 32.9538 16.6089 32.9222 16.6483 32.7225C16.6843 32.5401 16.8366 32.4591 17.1986 32.4299C17.522 32.4039 17.7785 32.4661 17.9238 32.6058C18.0795 32.7555 18.1485 33.0588 18.1485 33.5932V34.3645L17.3843 34.3815ZM17.2155 34.0999C17.2971 34.0737 17.4546 33.9209 17.5655 33.7602C17.7552 33.4855 17.7465 33.4682 17.4192 33.4682C17.2279 33.4682 17.0333 33.5634 16.9868 33.6798C16.9404 33.7961 16.9395 33.949 16.9847 34.0194C17.03 34.0899 17.1338 34.1261 17.2155 34.0999H17.2155ZM18.6156 34.3995C18.4709 34.3995 18.4252 34.1601 18.4252 33.4016V32.4037H19.0894C19.4546 32.4037 19.8282 32.4756 19.9195 32.5634C20.0135 32.6538 20.0855 33.0867 20.0855 33.5613C20.0855 34.2177 20.0405 34.3995 19.878 34.3995C19.7192 34.3995 19.6705 34.2313 19.6705 33.684C19.6705 33.264 19.5971 32.91 19.4929 32.8268C19.3891 32.744 19.2361 32.7321 19.1248 32.7983C19.0149 32.8636 18.9072 33.226 18.8702 33.6555C18.826 34.1685 18.7469 34.3995 18.6156 34.3995ZM21.6147 34.3796C21.1634 34.3894 20.8569 34.3241 20.7154 34.1879C20.587 34.0644 20.5006 33.7482 20.5006 33.4016C20.5006 33.0386 20.5866 32.7392 20.7305 32.6008C20.8819 32.4552 21.1182 32.3974 21.4223 32.4315C21.8743 32.4822 21.8842 32.4725 21.8842 31.9778C21.8842 31.6172 21.9436 31.4723 22.0917 31.4723C22.2635 31.4723 22.2992 31.7217 22.2992 32.9186V34.3648L21.6147 34.3796ZM21.552 34.0434C21.6449 34.0092 21.7604 33.8294 21.8088 33.644C21.8636 33.4343 21.8149 33.1868 21.6801 32.9889C21.4931 32.7144 21.4261 32.6934 21.1896 32.8355C21.009 32.9439 20.9157 33.1455 20.9157 33.427C20.9157 33.6896 21.0057 33.9026 21.1494 33.9799C21.278 34.0491 21.4592 34.0777 21.552 34.0434ZM25.9181 34.3995C25.5883 34.3995 25.245 34.2993 25.0471 34.1452C24.7697 33.9292 24.7205 33.7709 24.7205 33.0947C24.7205 32.4986 24.7867 32.2283 24.9841 32.0185C25.1819 31.8083 25.4124 31.7385 25.9079 31.7385C26.4565 31.7385 26.6168 31.7978 26.855 32.089C27.0567 32.3356 27.1417 32.6335 27.1417 33.093C27.1417 33.6093 27.0705 33.8149 26.8021 34.073C26.5566 34.309 26.3117 34.3995 25.9181 34.3995ZM25.9336 34.1334C25.9962 34.1334 26.2003 33.9865 26.3871 33.8068C26.5742 33.6269 26.7267 33.3243 26.7267 33.1328C26.7267 32.9417 26.663 32.671 26.5851 32.5311C26.5073 32.3912 26.3163 32.2113 26.1608 32.1312C25.9422 32.0187 25.8015 32.0338 25.5414 32.1978C25.2603 32.3749 25.2047 32.5179 25.2047 33.0645C25.2047 33.5902 25.2653 33.76 25.5122 33.9263C25.6814 34.0402 25.871 34.1334 25.9336 34.1334ZM27.7379 34.3995C27.4182 34.3995 27.2801 34.3378 27.2801 34.1949C27.2801 34.0527 27.3917 34.002 27.6461 34.0286C27.8473 34.0497 28.0393 33.9921 28.0726 33.9007C28.1059 33.8093 27.9416 33.6297 27.7075 33.5016C27.4502 33.3608 27.2815 33.1607 27.281 32.9958C27.2806 32.8458 27.3548 32.6512 27.4461 32.5634C27.5374 32.4756 27.8176 32.4037 28.0687 32.4037C28.3905 32.4037 28.5253 32.4651 28.5253 32.6117C28.5253 32.73 28.421 32.8094 28.2832 32.7959C28.15 32.7829 27.9632 32.7791 27.8681 32.7876C27.773 32.796 27.6952 32.8555 27.6952 32.9198C27.6952 32.9841 27.8827 33.1114 28.112 33.2028C28.3656 33.3038 28.5632 33.5006 28.6166 33.7053C28.6797 33.947 28.6328 34.0922 28.4501 34.2207C28.3102 34.319 27.9897 34.3995 27.7379 34.3995ZM29.5712 34.3995C29.3854 34.3995 29.1959 34.3411 29.15 34.2697C29.104 34.1982 29.0286 33.824 28.9823 33.4381C28.936 33.0521 28.8352 32.6969 28.7584 32.6487C28.6721 32.5944 28.7065 32.4765 28.8488 32.3398C28.9752 32.2181 29.0787 32.063 29.0787 31.9951C29.0787 31.9271 29.1721 31.8715 29.2863 31.8715C29.4016 31.8715 29.4938 31.9898 29.4938 32.1376C29.4938 32.2855 29.586 32.4037 29.7013 32.4037C29.8155 32.4037 29.9089 32.4636 29.9089 32.5368C29.9089 32.61 29.8122 32.6698 29.6941 32.6698C29.522 32.6698 29.4876 32.8084 29.5212 33.3684C29.5494 33.8401 29.6191 34.0561 29.7359 34.0336C29.8311 34.0154 29.9089 34.0902 29.9089 34.2C29.9089 34.3229 29.7791 34.3995 29.5712 34.3995ZM31.067 34.3726C30.6677 34.4014 30.4529 34.3439 30.2822 34.1626C30.151 34.0231 30.0472 33.6973 30.0472 33.4244C30.0472 33.1134 30.1477 32.8393 30.324 32.6698C30.4761 32.5235 30.7839 32.4037 31.0079 32.4037C31.2719 32.4037 31.4909 32.5078 31.6305 32.6994C31.749 32.8621 31.8459 33.1016 31.8459 33.2317C31.8459 33.4268 31.7248 33.4682 31.1541 33.4682C30.7736 33.4682 30.4623 33.5207 30.4623 33.5849C30.4623 33.6491 30.5619 33.7812 30.6836 33.8783C30.8054 33.9755 31.0912 34.0413 31.3188 34.0246C31.6017 34.0039 31.7144 34.0479 31.6748 34.1637C31.6429 34.2568 31.3694 34.3509 31.067 34.3726ZM30.8559 33.2021C31.1368 33.2021 31.2924 33.136 31.2924 33.0167C31.2924 32.9148 31.2049 32.7991 31.0979 32.7596C30.9909 32.7201 30.7945 32.8035 30.6614 32.9449C30.4271 33.1939 30.4333 33.2021 30.8559 33.2021ZM32.1857 34.3995C32.0091 34.3995 31.9792 34.2329 32.0128 33.4373L32.0534 32.475L32.5723 32.4371C32.9611 32.4087 33.0911 32.4497 33.0911 32.601C33.0911 32.7121 32.9999 32.8029 32.8884 32.8029C32.777 32.8029 32.6213 32.9187 32.5425 33.0603C32.4638 33.2018 32.3993 33.5611 32.3993 33.8586C32.3993 34.2576 32.3432 34.3995 32.1857 34.3995ZM33.5681 34.3995C33.4111 34.3995 33.3678 34.184 33.3678 33.4016V32.4037H33.9212C34.2747 32.4037 34.4747 32.4644 34.4747 32.5718C34.4747 32.6642 34.3346 32.7989 34.1634 32.8711C33.9067 32.9794 33.8447 33.1251 33.8102 33.701C33.7802 34.2035 33.7122 34.3995 33.5681 34.3995ZM35.5016 34.3677C35.2031 34.3868 34.8904 34.3569 34.8067 34.3012C34.7229 34.2455 34.5776 34.0597 34.4836 33.8882C34.3871 33.7121 34.3527 33.4226 34.4045 33.2229C34.4549 33.0285 34.5944 32.7646 34.7144 32.6366C34.8344 32.5085 35.1053 32.4037 35.3164 32.4037C35.5274 32.4037 35.798 32.4978 35.9175 32.6128C36.0371 32.7278 36.1349 32.9673 36.1349 33.145C36.1349 33.4393 36.0793 33.4682 35.5123 33.4682C35.0625 33.4682 34.8897 33.5214 34.8897 33.6599C34.8897 33.7653 34.9652 33.8965 35.0574 33.9513C35.1497 34.0061 35.4358 34.0373 35.6933 34.0206C36.0231 33.9993 36.1442 34.041 36.1029 34.1617C36.0706 34.2559 35.8001 34.3486 35.5016 34.3677ZM35.3048 33.2021C35.5331 33.2021 35.7199 33.1495 35.7199 33.0853C35.7199 33.0211 35.6331 32.8993 35.527 32.8146C35.3781 32.6957 35.2835 32.7094 35.1119 32.8743C34.9897 32.9919 34.8897 33.1137 34.8897 33.145C34.8897 33.1764 35.0765 33.2021 35.3048 33.2021ZM36.7576 34.3995C36.5915 34.3995 36.55 34.2 36.55 33.4016C36.55 32.6033 36.5915 32.4037 36.7576 32.4037C36.9236 32.4037 36.9651 32.6033 36.9651 33.4016C36.9651 34.2 36.9236 34.3995 36.7576 34.3995ZM38.2202 34.3995C37.9107 34.3995 37.5831 34.3096 37.4594 34.1907C37.34 34.0758 37.2059 33.8427 37.1616 33.6728C37.1172 33.5028 37.1771 33.185 37.2946 32.9664C37.4121 32.7478 37.6091 32.5318 37.7323 32.4864C37.8554 32.4409 38.1379 32.4037 38.36 32.4037C38.6396 32.4037 38.7637 32.4699 38.7637 32.6188C38.7637 32.766 38.6792 32.8127 38.496 32.7666C38.3487 32.7296 38.0997 32.7858 37.9425 32.8917C37.7854 32.9975 37.6569 33.2211 37.6569 33.3886C37.6569 33.556 37.7681 33.7899 37.9041 33.9082C38.0537 34.0384 38.2722 34.093 38.4575 34.0464C38.6803 33.9903 38.7637 34.0279 38.7637 34.1844C38.7637 34.346 38.6285 34.3995 38.2202 34.3995ZM39.248 34.3995C39.0761 34.3995 39.0404 34.1482 39.0404 32.9359C39.0404 31.7237 39.0761 31.4723 39.248 31.4723C39.3929 31.4723 39.4555 31.6128 39.4555 31.938C39.4555 32.3806 39.4793 32.4037 39.9349 32.4037C40.2672 32.4037 40.4582 32.4827 40.5575 32.6611C40.6363 32.8026 40.7007 33.2561 40.7007 33.6688C40.7007 34.3115 40.666 34.4127 40.4586 34.3748C40.2731 34.341 40.2074 34.1753 40.1778 33.6665C40.1565 33.3013 40.1108 32.925 40.0761 32.8304C40.0285 32.7005 39.9448 32.6935 39.7343 32.8018C39.507 32.9188 39.4555 33.0797 39.4555 33.6724C39.4555 34.2301 39.4071 34.3995 39.248 34.3995ZM43.6153 34.3995C43.2388 34.3995 43.0528 34.3409 43.0528 34.2221C43.0528 34.1246 43.0921 34.0069 43.1402 33.9607C43.1882 33.9145 43.3439 33.9366 43.4861 34.0097C43.661 34.0998 43.834 34.0968 44.0213 34.0004C44.1735 33.9221 44.298 33.7844 44.298 33.6945C44.298 33.6045 44.0484 33.3826 43.7433 33.2013C43.4382 33.0199 43.1515 32.7592 43.1061 32.6218C43.0608 32.4844 43.103 32.2295 43.2 32.0552C43.344 31.7964 43.4859 31.7385 43.9755 31.7385C44.4351 31.7385 44.5747 31.7886 44.5747 31.9536C44.5747 32.1064 44.4908 32.1476 44.2847 32.0957C44.1251 32.0556 43.9072 32.055 43.8004 32.0944C43.6936 32.1338 43.6062 32.2487 43.6062 32.3497C43.6062 32.4507 43.8553 32.6846 44.1597 32.8694C44.631 33.1555 44.7131 33.2735 44.7131 33.6647C44.7131 33.9826 44.6307 34.1664 44.4455 34.2618C44.2983 34.3375 43.9247 34.3995 43.6153 34.3995V34.3995ZM46.1231 34.3995C45.838 34.3995 45.4664 34.3063 45.2973 34.1924C45.0679 34.0379 44.9898 33.852 44.9898 33.4606C44.9898 33.1134 45.0834 32.846 45.2665 32.6698C45.4378 32.5051 45.7277 32.4037 46.0275 32.4037C46.3812 32.4037 46.5117 32.4617 46.5117 32.6188C46.5117 32.771 46.4278 32.8128 46.2248 32.7618C46.0465 32.7169 45.8368 32.7867 45.6713 32.9458C45.5248 33.0868 45.4049 33.3184 45.4049 33.4606C45.4049 33.6028 45.5334 33.8058 45.6905 33.9116C45.8477 34.0174 46.0881 34.0759 46.2249 34.0415C46.3701 34.005 46.5085 34.0665 46.5575 34.1892C46.6248 34.3579 46.5387 34.3995 46.1231 34.3995ZM46.996 34.3995C46.8241 34.3995 46.7884 34.1482 46.7884 32.9359C46.7884 31.7237 46.8241 31.4723 46.996 31.4723C47.1443 31.4723 47.2035 31.6176 47.2035 31.9815C47.2035 32.4719 47.2189 32.4885 47.6199 32.4319C47.8488 32.3996 48.129 32.4473 48.2425 32.5378C48.3858 32.6522 48.4487 32.9613 48.4487 33.551C48.4487 34.2166 48.404 34.3995 48.2412 34.3995C48.0828 34.3995 48.0337 34.2325 48.0337 33.6944C48.0337 33.3065 47.9598 32.9181 47.8695 32.8313C47.7429 32.7096 47.648 32.7234 47.4544 32.8919C47.2779 33.0455 47.2035 33.3013 47.2035 33.7549C47.2035 34.2392 47.1519 34.3995 46.996 34.3995ZM49.4279 34.3995C49.2302 34.3995 49.0949 34.1975 48.8765 33.5754C48.7173 33.1221 48.5871 32.673 48.5871 32.5775C48.5871 32.4819 48.6807 32.4037 48.7952 32.4037C48.9244 32.4037 49.0654 32.6275 49.1675 32.9946C49.2579 33.3195 49.3805 33.5565 49.44 33.5212C49.4994 33.4858 49.6144 33.22 49.6955 32.9303C49.8005 32.5553 49.9174 32.4037 50.1016 32.4037C50.2967 32.4037 50.4045 32.5703 50.541 33.0821L50.7217 33.7605L50.9461 33.1154C51.0805 32.7288 51.2649 32.4526 51.4061 32.4262C51.5981 32.3904 51.6246 32.4484 51.5488 32.7385C51.4977 32.9345 51.3522 33.3735 51.2255 33.7139C51.06 34.1589 50.9205 34.333 50.7295 34.333C50.5417 34.333 50.4219 34.1899 50.321 33.845C50.2424 33.5765 50.1395 33.3198 50.0922 33.2744C50.0449 33.229 49.935 33.4636 49.8481 33.7957C49.7302 34.246 49.6233 34.3995 49.4279 34.3995ZM52.6507 34.3726C52.2514 34.4014 52.0366 34.3439 51.8659 34.1626C51.7367 34.0253 51.6309 33.7064 51.6309 33.454C51.6309 33.2016 51.7279 32.8621 51.8463 32.6994C51.9968 32.4928 52.2029 32.4037 52.5303 32.4037C52.8576 32.4037 53.0637 32.4928 53.2142 32.6994C53.3327 32.8621 53.4296 33.1016 53.4296 33.2317C53.4296 33.4268 53.3085 33.4682 52.7378 33.4682C52.3573 33.4682 52.046 33.5207 52.046 33.5849C52.046 33.6491 52.1456 33.7812 52.2673 33.8783C52.3891 33.9755 52.6749 34.0413 52.9025 34.0246C53.1855 34.0039 53.2981 34.0479 53.2585 34.1637C53.2266 34.2568 52.9531 34.3509 52.6507 34.3726ZM52.4396 33.2021C52.6797 33.2021 52.8762 33.1495 52.8762 33.0853C52.8762 33.0211 52.7922 32.9015 52.6896 32.8197C52.5473 32.7061 52.4438 32.7337 52.2531 32.9364C52.0083 33.1966 52.0121 33.2021 52.4396 33.2021ZM53.9138 34.3995C53.7478 34.3995 53.7063 34.2 53.7063 33.4016C53.7063 32.6033 53.7478 32.4037 53.9138 32.4037C54.0799 32.4037 54.1214 32.6033 54.1214 33.4016C54.1214 34.2 54.0799 34.3995 53.9138 34.3995ZM55.159 34.3995C54.6107 34.3995 54.3981 34.3491 54.3981 34.2191C54.3981 34.1199 54.616 33.7642 54.8823 33.4288C55.1487 33.0933 55.3666 32.7853 55.3666 32.7443C55.3666 32.7034 55.1487 32.6698 54.8823 32.6698C54.616 32.6698 54.3981 32.61 54.3981 32.5368C54.3981 32.4636 54.7405 32.4037 55.159 32.4037C55.7635 32.4037 55.92 32.4474 55.92 32.616C55.92 32.7328 55.782 33.0172 55.6133 33.248C55.4445 33.4789 55.2148 33.7576 55.1028 33.8673C54.9225 34.044 54.9577 34.0717 55.4096 34.1082C55.6903 34.1309 55.92 34.2058 55.92 34.2745C55.92 34.3433 55.5776 34.3995 55.159 34.3995ZM36.723 32.1044C36.6215 32.1369 36.55 32.0452 36.55 31.8826C36.55 31.7192 36.6394 31.6054 36.7677 31.6054C36.8965 31.6054 36.9671 31.6959 36.9406 31.8272C36.916 31.9492 36.8181 32.074 36.723 32.1044ZM53.9138 32.1376C53.7985 32.1376 53.7063 32.0193 53.7063 31.8715C53.7063 31.7237 53.7985 31.6054 53.9138 31.6054C54.0291 31.6054 54.1214 31.7237 54.1214 31.8715C54.1214 32.0193 54.0291 32.1376 53.9138 32.1376ZM25.5506 31.6054C25.4365 31.6054 25.3431 31.5156 25.3431 31.4058C25.3431 31.296 25.4365 31.2062 25.5506 31.2062C25.6648 31.2062 25.7582 31.296 25.7582 31.4058C25.7582 31.5156 25.6648 31.6054 25.5506 31.6054ZM26.1617 31.6054C25.9926 31.6054 25.8973 31.5366 25.931 31.4391C25.9627 31.3476 26.0924 31.2534 26.2193 31.2297C26.3558 31.2043 26.45 31.2722 26.45 31.3961C26.45 31.5195 26.3317 31.6054 26.1617 31.6054ZM21.4691 29.0147C20.3657 29.042 19.1827 29.0132 18.8403 28.9507C18.4979 28.8882 17.9064 28.7353 17.5259 28.6111C17.1454 28.4868 16.4606 28.1975 16.004 27.9683C15.5126 27.7215 14.7484 27.1406 14.1314 26.5447C13.3972 25.8357 12.9207 25.2253 12.52 24.4803C12.2071 23.8985 11.8522 23.1388 11.7314 22.792C11.6106 22.4453 11.4174 21.7268 11.3021 21.1954C11.1752 20.6102 11.0925 19.524 11.0924 18.441C11.0924 17.4575 11.1634 16.2899 11.2503 15.8464C11.3372 15.403 11.5319 14.6809 11.6829 14.2418C11.8339 13.8027 12.0194 13.3686 12.0952 13.2771C12.204 13.1459 11.8789 13.1108 10.5558 13.1108H8.8786V20.8945V28.6782H5.76557H2.65254V20.8945V13.1108H1.40732H0.162109V10.7158V8.32085H1.40732H2.65254L2.6527 7.02356C2.65279 6.31006 2.73732 5.30716 2.84055 4.7949C2.94378 4.28264 3.1335 3.62402 3.26215 3.3313C3.3908 3.03858 3.83719 2.48834 4.25412 2.10855C4.67106 1.72875 5.33735 1.2652 5.73477 1.07842C6.13219 0.891647 6.83039 0.645544 7.28631 0.531526C7.86849 0.385934 8.76165 0.324809 10.2866 0.326195C11.4808 0.327286 12.619 0.367052 12.8159 0.414576L13.1739 0.500983L13.1362 2.83878L13.0985 5.17657L11.5766 5.14882C10.5448 5.13 9.94324 5.17686 9.70875 5.29431C9.51851 5.38959 9.25689 5.67546 9.12737 5.92955C8.97425 6.22997 8.88957 6.72894 8.88525 7.3562L8.8786 8.32085H10.7464H12.6142V10.2693V12.2177L13.1187 11.5666C13.3961 11.2084 13.9935 10.5749 14.4461 10.1587C14.9142 9.7282 15.7257 9.1772 16.3283 8.88064C16.9109 8.59392 17.6989 8.27583 18.0794 8.17377C18.5389 8.05051 19.5144 7.98821 20.9848 7.98821C22.3852 7.98821 23.4781 8.05466 23.9595 8.16906C24.3781 8.26853 25.1563 8.55017 25.689 8.79492C26.2217 9.03968 27.0051 9.50518 27.43 9.82937C27.8549 10.1536 28.5237 10.8299 28.9162 11.3324C29.3087 11.8348 29.7823 12.5453 29.9686 12.9112C30.1549 13.2771 30.3807 13.7561 30.4703 13.9757C30.56 14.1952 30.6917 14.5844 30.763 14.8405C30.8343 15.0967 30.9814 15.7553 31.0899 16.3041C31.1983 16.853 31.2881 17.8409 31.2895 18.4995C31.2909 19.1581 31.2039 20.176 31.0961 20.7614C30.9883 21.3469 30.7957 22.1253 30.668 22.4912C30.5403 22.8571 30.2502 23.5116 30.0233 23.9458C29.7964 24.3799 29.435 24.9807 29.2203 25.2809C29.0055 25.581 28.4023 26.2137 27.8798 26.6869C27.3573 27.1601 26.5572 27.7364 26.1018 27.9675C25.6465 28.1986 24.8692 28.5176 24.3746 28.6763C23.6619 28.9051 23.0591 28.9753 21.4691 29.0147ZM21.0844 24.8118C21.7768 24.8176 22.1432 24.7499 22.5197 24.5465C22.7978 24.3963 23.0975 24.2017 23.1857 24.1141C23.2739 24.0265 23.4725 23.7751 23.627 23.5556C23.7815 23.3361 23.9784 22.9169 24.0645 22.6242C24.1506 22.3315 24.2868 21.811 24.367 21.4676C24.4473 21.1242 24.513 19.8249 24.513 18.5802C24.513 17.3356 24.4487 15.9999 24.3701 15.6121C24.2915 15.2243 24.1551 14.6676 24.0669 14.3748C23.9787 14.0821 23.7329 13.5941 23.5207 13.2903C23.281 12.9472 22.8938 12.6257 22.4983 12.4416C21.9699 12.1956 21.7014 12.1563 20.9186 12.2101C20.2287 12.2576 19.8509 12.3591 19.5116 12.5882C19.2566 12.7605 18.9721 12.9935 18.8795 13.1059C18.7869 13.2184 18.6076 13.5154 18.4812 13.7659C18.3547 14.0164 18.158 14.5852 18.0442 15.0299C17.896 15.6092 17.8378 16.574 17.8391 18.433C17.8403 20.2682 17.9009 21.2642 18.046 21.8361C18.1589 22.2808 18.3651 22.8796 18.5044 23.1667C18.6437 23.4538 18.9489 23.8683 19.1828 24.0878C19.4166 24.3074 19.731 24.5583 19.8813 24.6455C20.0317 24.7326 20.5731 24.8075 21.0844 24.8118ZM38.0028 29.0225C37.0135 29.0449 35.9862 29.0161 35.7199 28.9586C35.4535 28.9011 34.9899 28.7527 34.6896 28.6289C34.3894 28.5051 33.935 28.2508 33.6799 28.0637C33.4249 27.8766 32.9933 27.4006 32.7207 27.0059C32.4482 26.6112 32.0976 25.883 31.9417 25.3876C31.6721 24.5316 31.6554 24.0869 31.6033 16.4039L31.5485 8.32085H34.6719H37.7952V15.3012C37.7952 21.9602 37.808 22.3144 38.0725 22.9942C38.291 23.5559 38.4634 23.7682 38.8869 23.9971C39.1849 24.1582 39.662 24.2865 39.9586 24.2854C40.2526 24.2843 40.7421 24.2001 41.0463 24.0983C41.3505 23.9965 41.8334 23.7243 42.1194 23.4933C42.4054 23.2624 42.748 22.8826 42.8807 22.6493C43.0987 22.266 43.1287 21.5576 43.1912 15.3062L43.2603 8.38737L46.4771 8.35166L49.6939 8.31594V18.4971V28.6782H46.7239H43.7539L43.7147 27.2479L43.6754 25.8175L43.438 26.2939C43.3074 26.5558 42.8988 27.0648 42.53 27.4248C42.1613 27.7849 41.5832 28.2066 41.2455 28.362C40.9078 28.5174 40.4448 28.7204 40.2165 28.8132C39.9756 28.911 39.0465 28.9989 38.0028 29.0225ZM77.7138 29.0232C76.8753 29.0457 75.9635 29.0178 75.6874 28.9613C75.4114 28.9048 74.8259 28.6893 74.3864 28.4825C73.9468 28.2757 73.2633 27.801 72.8674 27.4277C72.4716 27.0544 71.9656 26.4795 71.743 26.1502C71.5205 25.8209 71.264 25.4018 71.1731 25.2188C71.0822 25.0359 70.8543 24.4371 70.6666 23.8881C70.4789 23.3392 70.2283 22.2659 70.1097 21.503C69.9911 20.74 69.8941 19.4476 69.8941 18.6308C69.8941 17.8141 69.9822 16.5822 70.0899 15.8934C70.1976 15.2045 70.3284 14.4613 70.3804 14.2418C70.4325 14.0222 70.6006 13.4834 70.7542 13.0443C70.9077 12.6052 71.2283 11.8883 71.4668 11.4512C71.7052 11.0141 72.2516 10.2956 72.6811 9.85453C73.131 9.39248 73.776 8.90322 74.203 8.70006C74.6106 8.50614 75.1309 8.28105 75.3592 8.19985C75.5875 8.11865 76.2412 8.00702 76.8119 7.95179C77.3827 7.89655 78.2748 7.89869 78.7946 7.95655C79.33 8.01615 80.1096 8.22496 80.5932 8.43828C81.0627 8.64538 81.7426 9.06801 82.1041 9.37747L82.7613 9.94012V5.60453V1.26895H85.8743H88.9874V14.9736V28.6782H86.0127H83.038L83.0365 27.3809L83.0349 26.0836L82.6634 26.5493C82.4591 26.8055 82.0089 27.2702 81.6631 27.5821C81.3173 27.8939 80.6302 28.3365 80.1362 28.5656C79.3248 28.942 79.0912 28.9861 77.7137 29.0231L77.7138 29.0232ZM79.8844 24.6363C80.4112 24.5986 80.8256 24.4779 81.1296 24.2736C81.3802 24.1052 81.6996 23.8449 81.8394 23.695C81.9792 23.5452 82.2282 23.1532 82.3928 22.8239C82.6725 22.2644 82.6948 21.995 82.7332 18.7162C82.7716 15.4414 82.7547 15.1484 82.4802 14.3254C82.3184 13.8404 82.0197 13.2735 81.8165 13.0657C81.6132 12.858 81.2788 12.6035 81.0733 12.5003C80.8678 12.397 80.3386 12.3128 79.8972 12.313C79.3224 12.3134 78.9575 12.394 78.6106 12.5973C78.3442 12.7534 78.0091 13.0076 77.8659 13.1623C77.7226 13.317 77.4669 13.7429 77.2976 14.1088C77.1283 14.4747 76.9036 15.1034 76.7983 15.5059C76.6699 15.9967 76.6064 17.048 76.6056 18.6992C76.6048 20.3458 76.666 21.3809 76.7904 21.826C76.8928 22.1919 77.0993 22.7351 77.2493 23.0332C77.3993 23.3313 77.6646 23.7347 77.8388 23.9297C78.013 24.1246 78.3669 24.3761 78.6252 24.4885C78.938 24.6246 79.3584 24.674 79.8844 24.6363ZM100.125 29.0108C98.9836 29.0354 97.863 29.0301 97.6347 28.999C97.4064 28.9679 96.9706 28.8799 96.6662 28.8034C96.3618 28.7269 95.7703 28.5369 95.3518 28.3812C94.9332 28.2255 94.2484 27.8771 93.8298 27.6071C93.4113 27.337 92.812 26.8761 92.4981 26.5828C92.1841 26.2895 91.6762 25.7279 91.3694 25.3348C91.0626 24.9417 90.6233 24.2608 90.3931 23.8217C90.1629 23.3826 89.8341 22.5444 89.6624 21.9589C89.3934 21.0413 89.3507 20.5825 89.3533 18.6326C89.3558 16.712 89.4025 16.21 89.6628 15.3062C89.8314 14.7208 90.1493 13.8688 90.3691 13.4129C90.5889 12.957 90.969 12.3042 91.2138 11.9621C91.4585 11.62 92.0076 11.0051 92.434 10.5955C92.8604 10.186 93.5513 9.63504 93.9692 9.37112C94.3872 9.10721 95.1362 8.73617 95.6337 8.54659C96.1312 8.35702 96.9682 8.13587 97.4936 8.05514C98.0191 7.97442 98.9506 7.9102 99.5638 7.91243C100.177 7.91466 101.021 7.97253 101.439 8.04103C101.858 8.10953 102.502 8.2646 102.87 8.38564C103.239 8.50667 103.83 8.75943 104.185 8.94732C104.539 9.13521 105.109 9.48578 105.452 9.72638C105.794 9.96697 106.331 10.4227 106.645 10.7392C106.958 11.0557 107.439 11.6401 107.712 12.0381C107.986 12.436 108.361 13.1844 108.546 13.7013C108.731 14.2181 108.947 14.8804 109.025 15.1732C109.103 15.4659 109.233 16.1015 109.315 16.5856C109.397 17.0697 109.464 17.9528 109.464 18.5481V19.6305H102.754H96.0436L96.0457 20.5286C96.0468 21.0226 96.1246 21.6718 96.2186 21.9713C96.3126 22.2709 96.5673 22.786 96.7847 23.1161C97.0348 23.4957 97.4648 23.8822 97.9554 24.1681C98.6766 24.5885 98.8133 24.62 99.9122 24.62C100.757 24.62 101.239 24.553 101.604 24.385C101.884 24.2557 102.328 23.9095 102.589 23.6157C102.851 23.3219 103.172 22.754 103.303 22.3539C103.495 21.7661 103.598 21.6268 103.839 21.629C104.003 21.6305 105.071 21.6888 106.213 21.7586C107.354 21.8283 108.525 21.9227 108.815 21.9684C109.322 22.0483 109.338 22.0675 109.247 22.4665C109.195 22.6948 109.102 22.9734 109.04 23.0855C108.978 23.1977 108.73 23.6787 108.489 24.1543C108.248 24.63 107.838 25.2995 107.577 25.6421C107.316 25.9847 106.773 26.5546 106.37 26.9086C105.967 27.2626 105.269 27.7402 104.818 27.97C104.368 28.1998 103.594 28.5179 103.1 28.6769C102.374 28.9104 101.8 28.9748 100.125 29.0108L100.125 29.0108ZM99.5909 15.905H103.138L103.053 15.2064C103.006 14.8222 102.794 14.1809 102.582 13.7812C102.333 13.3118 101.985 12.9115 101.599 12.6503C101.044 12.2752 100.914 12.246 99.802 12.246C98.9635 12.246 98.4576 12.3132 98.1189 12.4696C97.8526 12.5925 97.4706 12.862 97.27 13.0683C97.0694 13.2746 96.7951 13.653 96.6604 13.9091C96.5257 14.1653 96.3326 14.6742 96.2312 15.0401C96.1298 15.406 96.0461 15.7503 96.0452 15.8052C96.0442 15.8601 97.6399 15.905 99.5909 15.905ZM128.973 29.0109C127.641 29.0376 126.396 29.0329 126.205 29.0004C126.015 28.968 125.486 28.8717 125.029 28.7865C124.573 28.7012 123.768 28.4614 123.241 28.2535C122.714 28.0456 122.06 27.7165 121.788 27.5222C121.516 27.3278 121.005 26.8816 120.652 26.5306C120.299 26.1795 119.824 25.5163 119.596 25.0566C119.368 24.597 119.112 24.0534 119.027 23.8487C118.942 23.644 118.872 23.3623 118.872 23.2227C118.872 23.0407 119 22.9475 119.322 22.893C119.569 22.8512 120.394 22.725 121.155 22.6126C121.916 22.5001 122.913 22.3785 123.369 22.3423L124.199 22.2765L124.526 22.9594C124.73 23.3862 125.057 23.784 125.396 24.0205C125.695 24.2286 126.27 24.4991 126.675 24.6215C127.227 24.7885 127.788 24.8328 128.918 24.7986C130.19 24.7602 130.53 24.7018 131.095 24.4241C131.463 24.2432 131.884 23.9346 132.029 23.7383C132.174 23.5421 132.293 23.2025 132.293 22.9837C132.293 22.7313 132.151 22.4396 131.905 22.1859C131.691 21.966 131.271 21.7178 130.971 21.6344C130.671 21.551 129.927 21.4275 129.318 21.36C128.71 21.2925 127.869 21.1806 127.451 21.1112C127.032 21.0419 126.129 20.8551 125.444 20.6961C124.76 20.5371 123.732 20.2209 123.162 19.9934C122.462 19.7146 121.882 19.3606 121.383 18.9075C120.976 18.5378 120.526 18.0159 120.384 17.7477C120.242 17.4796 120.031 17.0002 119.916 16.6824C119.801 16.3646 119.706 15.6705 119.705 15.1399C119.703 14.3689 119.661 14.1753 119.494 14.1753C119.379 14.1753 119.015 14.297 118.686 14.4457C118.357 14.5945 117.895 14.9089 117.66 15.1443C117.424 15.3797 117.068 15.8866 116.869 16.2707C116.669 16.6548 116.417 17.3733 116.308 17.8673C116.157 18.5532 116.11 19.9376 116.108 23.7219L116.105 28.6782H112.992H109.879V18.4995V8.32085H112.785H115.69L115.697 9.88424L115.705 11.4476L115.928 10.9154C116.05 10.6227 116.372 10.0588 116.641 9.66237C116.911 9.26591 117.403 8.75698 117.734 8.5314C118.066 8.30583 118.536 8.05098 118.778 7.96507C119.02 7.87916 119.699 7.80432 120.285 7.79875L121.353 7.78863L121.392 8.98321L121.432 10.1778L122.055 9.69634C122.397 9.43153 123.113 9.02121 123.646 8.7845C124.178 8.54779 124.926 8.28622 125.306 8.20323C125.687 8.12024 126.573 8.0056 127.275 7.94848C127.978 7.89135 129.161 7.8935 129.904 7.95324C130.647 8.01298 131.629 8.17611 132.087 8.31575C132.544 8.45538 133.219 8.7316 133.587 8.92957C133.956 9.12753 134.522 9.53559 134.845 9.83635C135.169 10.1371 135.618 10.6526 135.844 10.9819C136.069 11.3112 136.421 11.916 136.626 12.3257C136.83 12.7355 136.997 13.135 136.997 13.2135C136.997 13.2921 136.795 13.4143 136.548 13.4852C136.3 13.5561 135.569 13.7464 134.922 13.9082C134.275 14.07 133.565 14.2561 133.345 14.3218C133.124 14.3876 132.807 14.4414 132.64 14.4414C132.42 14.4414 132.248 14.276 132.013 13.8369C131.836 13.5044 131.531 13.0793 131.336 12.8921C131.142 12.705 130.732 12.4231 130.427 12.2658C129.95 12.0203 129.647 11.9801 128.281 11.9817C127.054 11.9831 126.591 12.0349 126.261 12.2078C126.025 12.3311 125.729 12.5826 125.603 12.7667C125.478 12.9508 125.375 13.2804 125.375 13.499C125.375 13.7177 125.444 14.0425 125.529 14.2209C125.613 14.3993 125.816 14.6075 125.979 14.6836C126.141 14.7597 126.492 14.8817 126.759 14.9547C127.025 15.0276 127.679 15.1495 128.212 15.2254C128.744 15.3014 129.678 15.4303 130.287 15.5118C130.896 15.5934 131.705 15.7219 132.086 15.7975C132.466 15.8731 132.92 15.9881 133.095 16.053C133.27 16.1179 133.51 16.1711 133.629 16.1711C133.748 16.1711 134.227 16.3467 134.695 16.5613C135.162 16.7759 135.844 17.2399 136.211 17.5925C136.578 17.945 137.053 18.5927 137.267 19.0317C137.484 19.4762 137.732 20.3131 137.827 20.9199C137.957 21.7555 137.96 22.221 137.839 22.9157C137.752 23.414 137.614 24.0013 137.532 24.2209C137.451 24.4404 137.25 24.8866 137.087 25.2125C136.923 25.5384 136.47 26.1371 136.08 26.5431C135.689 26.949 134.973 27.5073 134.489 27.7837C134.004 28.0602 133.109 28.4385 132.501 28.6244C131.529 28.9211 131.097 28.9684 128.972 29.0109H128.973ZM54.3289 28.6782H51.0775V18.4969V8.31566L54.0868 8.35151L57.096 8.38737L57.1355 9.75598C57.1667 10.8359 57.2105 11.0885 57.3431 10.9535C57.4355 10.8594 57.6916 10.5268 57.9121 10.2146C58.1326 9.90227 58.5608 9.4315 58.8636 9.1684C59.1665 8.90529 59.702 8.56455 60.0538 8.4112C60.4055 8.25784 61.1572 8.06816 61.7242 7.98968C62.3363 7.90495 63.1964 7.88802 63.8415 7.94799C64.439 8.00354 65.2204 8.14402 65.5778 8.26017C65.9352 8.37632 66.5216 8.65223 66.881 8.8733C67.2403 9.09437 67.7225 9.4813 67.9524 9.73313C68.1823 9.98496 68.4992 10.4337 68.6565 10.7303C68.8139 11.0269 69.0633 11.7234 69.2108 12.278C69.461 13.2187 69.479 13.8035 69.479 20.9823V28.6782H66.2968H63.1146V21.8848C63.1146 17.4711 63.0624 14.892 62.9655 14.5221C62.8835 14.2089 62.6812 13.8049 62.5158 13.6242C62.3505 13.4435 62.0613 13.1942 61.8732 13.0702C61.6369 12.9144 61.2495 12.8447 60.6205 12.8447C59.8543 12.8447 59.6099 12.9056 59.0801 13.2288C58.663 13.4831 58.3508 13.8105 58.1557 14.1981C57.9937 14.5199 57.7979 15.1037 57.7207 15.4953C57.6383 15.9135 57.5803 18.7813 57.5803 22.4428V28.6782H54.3289ZM109.37 5.79231C108.953 5.79201 108.537 5.69448 108.261 5.53255C108.018 5.38996 107.711 5.11431 107.578 4.91999C107.41 4.67311 107.34 4.3111 107.346 3.71828C107.351 3.15924 107.433 2.75354 107.587 2.52876C107.714 2.34114 108.018 2.07096 108.261 1.92837C108.504 1.78578 108.927 1.66889 109.201 1.66861C109.475 1.66833 109.899 1.7348 110.142 1.81629C110.385 1.89779 110.56 2.03251 110.532 2.11567C110.502 2.20237 110.094 2.28347 109.576 2.3058C108.843 2.33735 108.615 2.40271 108.373 2.65039C108.208 2.8185 108.021 3.1349 107.955 3.3535C107.878 3.61437 107.898 3.92216 108.015 4.24918C108.113 4.52321 108.308 4.82937 108.448 4.92954C108.588 5.0297 108.934 5.15006 109.217 5.19699C109.5 5.24393 109.795 5.24397 109.874 5.19708C109.953 5.15019 110.018 4.84593 110.018 4.52094C110.018 3.95309 110.001 3.93004 109.603 3.93004C109.326 3.93004 109.187 3.86352 109.187 3.73046C109.187 3.57967 109.357 3.53088 109.879 3.53088H110.571V4.52411C110.571 5.36991 110.531 5.53778 110.303 5.65507C110.156 5.73083 109.736 5.79258 109.37 5.79231ZM95.9004 5.65975C95.6426 5.65975 95.6285 5.5596 95.6285 3.73046V1.80117H95.9574C96.1384 1.80117 96.3466 1.87601 96.4201 1.96749C96.4936 2.05896 96.7871 2.70262 97.0724 3.39783C97.3576 4.09304 97.6099 4.68055 97.633 4.7034C97.6561 4.72626 97.7749 4.5524 97.8969 4.31706C98.019 4.08171 98.1189 3.84246 98.1189 3.78539C98.1189 3.72831 98.3167 3.25852 98.5585 2.74139C98.9527 1.89836 99.0385 1.80117 99.3886 1.80117H99.7792V3.73046C99.7792 5.57105 99.7665 5.65975 99.5025 5.65975C99.2426 5.65975 99.2254 5.56895 99.2192 4.16289L99.2127 2.66603L98.5822 4.16289C98.0539 5.41723 97.9037 5.65975 97.6546 5.65975C97.4059 5.65975 97.2672 5.43723 96.8043 4.29594L96.2511 2.93213L96.2117 4.29594C96.1754 5.55009 96.1504 5.65975 95.9004 5.65975ZM101.901 5.65975C101.711 5.65975 101.576 5.61216 101.601 5.55399C101.626 5.49582 101.983 4.65241 102.393 3.67975C102.804 2.70709 103.232 1.87697 103.346 1.83505C103.46 1.79312 103.642 1.81339 103.752 1.8801C103.862 1.9468 104.288 2.80954 104.699 3.7973C105.11 4.78506 105.448 5.61217 105.449 5.63533C105.451 5.65848 105.281 5.65848 105.073 5.63533C104.822 5.60756 104.676 5.50264 104.643 5.32712C104.615 5.18076 104.529 4.98616 104.452 4.89469C104.366 4.79352 103.97 4.72837 103.439 4.72837H102.568L102.408 5.19406C102.282 5.56149 102.175 5.65975 101.901 5.65975ZM103.515 4.19615H104.203L103.916 3.49762C103.759 3.11342 103.604 2.77413 103.572 2.74364C103.541 2.71315 103.489 2.71315 103.457 2.74364C103.426 2.77413 103.271 3.11342 103.113 3.49762L102.827 4.19615H103.515ZM112.832 5.65975C112.641 5.65975 112.506 5.61355 112.531 5.55708C112.556 5.50061 112.92 4.63291 113.338 3.62886C113.981 2.08653 114.145 1.80314 114.394 1.80224C114.555 1.80166 114.751 1.87601 114.828 1.96749C114.905 2.05896 115.073 2.43318 115.201 2.79908C115.329 3.16498 115.527 3.67391 115.642 3.93004C115.756 4.18617 115.97 4.6518 116.116 4.96478C116.262 5.27775 116.382 5.56613 116.382 5.60562C116.382 5.64512 116.211 5.65848 116.003 5.63533C115.753 5.60756 115.606 5.50264 115.573 5.32712C115.545 5.18076 115.459 4.98616 115.382 4.89469C115.296 4.79352 114.9 4.72837 114.37 4.72837H113.498L113.338 5.19406C113.212 5.56149 113.105 5.65975 112.832 5.65975ZM114.439 4.19615H115.122L114.827 3.49762C114.666 3.11342 114.514 2.77413 114.489 2.74364C114.465 2.71315 114.419 2.71315 114.387 2.74364C114.356 2.77413 114.201 3.11342 114.044 3.49762L113.757 4.19615H114.439ZM119.288 5.65975C118.164 5.65975 117.904 5.62307 117.904 5.46469C117.904 5.3574 118.009 5.05803 118.137 4.79941C118.265 4.5408 118.421 4.32921 118.483 4.32921C118.545 4.32921 118.596 4.26605 118.596 4.18885C118.596 4.11166 118.845 3.69582 119.149 3.26477C119.454 2.83372 119.703 2.44782 119.703 2.40722C119.703 2.36661 119.298 2.33339 118.803 2.33339C117.996 2.33339 117.904 2.3061 117.904 2.06728C117.904 1.81985 117.996 1.80117 119.218 1.80117C120.341 1.80117 120.533 1.83286 120.533 2.01783C120.533 2.13699 120.128 2.85446 119.633 3.61219C119.139 4.36993 118.734 5.02087 118.734 5.05872C118.734 5.09657 119.17 5.12754 119.703 5.12754C120.579 5.12754 120.671 5.15288 120.671 5.39364C120.671 5.64201 120.579 5.65975 119.288 5.65975ZM122.816 5.65975H122.47V3.73046V1.80117H122.816H123.162V3.73046V5.65975H122.816ZM125.583 5.65975H125.237V3.72203V1.78431L125.661 1.826C126.01 1.86036 126.15 1.98482 126.456 2.53297C126.661 2.89887 126.859 3.22818 126.897 3.26477C126.935 3.30136 127.115 3.60073 127.297 3.93004C127.48 4.25935 127.682 4.58567 127.747 4.65519C127.814 4.7262 127.866 4.12848 127.866 3.29138C127.866 1.88987 127.882 1.80117 128.142 1.80117C128.406 1.80117 128.419 1.88987 128.419 3.73046V5.65975H128.034C127.69 5.65975 127.557 5.50748 126.789 4.22942L125.93 2.79908L125.929 4.22942L125.929 5.65975H125.583ZM32.6933 5.39061C32.4175 5.38895 32.005 5.29852 31.7767 5.18965C31.5484 5.08079 31.2527 4.80786 31.1195 4.58315C30.9781 4.34456 30.8774 3.89866 30.8774 3.51135C30.8774 3.14657 30.9494 2.71733 31.0375 2.55749C31.1255 2.39764 31.359 2.13222 31.5563 1.96765C31.8572 1.71669 32.0768 1.66841 32.9181 1.66828C33.8189 1.66813 33.9212 1.69447 33.9212 1.92637C33.9212 2.06841 33.8633 2.21908 33.7924 2.26118C33.7216 2.30328 33.6245 2.27688 33.5767 2.2025C33.5289 2.12813 33.2289 2.06735 32.91 2.06744C32.4881 2.06756 32.2184 2.16004 31.92 2.4068C31.5595 2.70498 31.5099 2.83296 31.5099 3.46541C31.5099 4.03289 31.577 4.2536 31.8279 4.51043C32.0029 4.68952 32.3503 4.87289 32.6 4.91794C32.8497 4.96298 33.1557 4.96229 33.2801 4.9164C33.4418 4.8567 33.5062 4.66661 33.5062 4.24845C33.5062 3.68769 33.4893 3.66393 33.0911 3.66393C32.8144 3.66393 32.676 3.59741 32.676 3.46435C32.676 3.31356 32.8451 3.26477 33.3678 3.26477H34.0596V4.24605V5.22733L33.6272 5.31049C33.3894 5.35622 32.9692 5.39228 32.6933 5.39061ZM40.9083 5.38987C40.68 5.38979 40.3388 5.31458 40.15 5.22275C39.9613 5.13091 39.7287 4.90726 39.6332 4.72575C39.5281 4.52586 39.4588 3.85797 39.4576 3.03193C39.4556 1.75617 39.4734 1.66812 39.7322 1.66812C39.9903 1.66812 40.0089 1.75682 40.0089 2.98392C40.0089 4.05555 40.0554 4.35493 40.2594 4.59721C40.4138 4.78049 40.6628 4.89469 40.9083 4.89469C41.1537 4.89469 41.4028 4.78049 41.5571 4.59721C41.7611 4.35493 41.8076 4.05555 41.8076 2.98392C41.8076 1.75682 41.8262 1.66812 42.0843 1.66812C42.3428 1.66812 42.361 1.75682 42.361 3.01182C42.361 3.95608 42.2966 4.48612 42.1442 4.79486C42.025 5.0365 41.7915 5.26926 41.6254 5.31211C41.4593 5.35496 41.1366 5.38995 40.9083 5.38987V5.38987ZM19.6228 5.26059H18.702V3.46435V1.66812L19.705 1.66828C20.5558 1.66841 20.765 1.71551 21.0829 1.97839C21.2992 2.15733 21.5294 2.5465 21.6275 2.89907C21.7658 3.39633 21.7619 3.61298 21.6067 4.06521C21.4959 4.38807 21.2335 4.75461 20.9799 4.94061C20.6202 5.20447 20.3822 5.26059 19.6228 5.26059ZM19.7089 4.86143C19.9583 4.86143 20.301 4.76798 20.4706 4.65377C20.6402 4.53956 20.8774 4.26285 20.9979 4.03886C21.1448 3.76573 21.1871 3.47881 21.1264 3.16763C21.0766 2.91244 20.8752 2.56046 20.6788 2.38546C20.4307 2.16435 20.1592 2.06728 19.7886 2.06728H19.2554V3.46435V4.86143H19.7089ZM23.4061 5.26059C23.143 5.26059 23.1294 5.17189 23.1294 3.46435C23.1294 1.75682 23.1431 1.66812 23.4061 1.66812C23.6691 1.66812 23.6828 1.75682 23.6828 3.46435C23.6828 5.17189 23.6691 5.26059 23.4061 5.26059ZM26.1732 5.26059H25.0664V3.46435V1.66812H26.1041C26.9342 1.66812 27.1417 1.70803 27.1417 1.8677C27.1417 2.01849 26.9726 2.06728 26.45 2.06728H25.7582V2.66603V3.26477H26.45C26.9726 3.26477 27.1417 3.31356 27.1417 3.46435C27.1417 3.61515 26.9726 3.66393 26.45 3.66393H25.7582V4.26268V4.86143H26.5191C27.1033 4.86143 27.2801 4.90779 27.2801 5.06101C27.2801 5.22178 27.0649 5.26059 26.1732 5.26059ZM35.9966 5.26059C35.7335 5.26059 35.7199 5.17189 35.7199 3.46435V1.66812H36.6093C37.2334 1.66812 37.5636 1.73049 37.7162 1.8772C37.8358 1.9922 37.9336 2.29157 37.9336 2.54247C37.9336 2.80699 37.8289 3.0965 37.6844 3.23151C37.4445 3.45564 37.4465 3.48676 37.738 4.0631C37.9046 4.39241 38.0848 4.80146 38.1385 4.9721C38.2226 5.23927 38.1931 5.27622 37.926 5.23821C37.7555 5.21393 37.5703 5.10425 37.5145 4.99448C37.4588 4.88471 37.294 4.5554 37.1485 4.26268C36.9769 3.91759 36.7765 3.71551 36.5786 3.68794C36.2925 3.6481 36.2733 3.69612 36.2733 4.45301C36.2733 5.17189 36.2429 5.26059 35.9966 5.26059ZM36.5192 3.26477C36.6545 3.26477 36.9035 3.17156 37.0727 3.05764C37.2418 2.94373 37.3802 2.74614 37.3802 2.61856C37.3802 2.49099 37.3054 2.31476 37.2141 2.22695C37.1228 2.13913 36.8738 2.06728 36.6607 2.06728C36.2938 2.06728 36.2733 2.09896 36.2733 2.66603C36.2733 3.15108 36.32 3.26477 36.5192 3.26477ZM44.1597 5.26059C43.8966 5.26059 43.8829 5.17189 43.8829 3.46435V1.66812H44.298C44.5263 1.66812 44.7131 1.7178 44.7131 1.77851C44.7131 1.83923 45.04 2.421 45.4395 3.07134L46.1658 4.25377L46.2054 2.96094C46.2417 1.77769 46.2681 1.66812 46.5167 1.66812C46.7734 1.66812 46.7884 1.76786 46.7884 3.46435V5.26059H46.4595C46.2786 5.26059 46.0696 5.18575 45.9952 5.09427C45.9207 5.0028 45.6737 4.59864 45.4462 4.19615C45.2187 3.79366 44.8987 3.25479 44.735 2.99866L44.4374 2.53297L44.4369 3.89678C44.4364 5.17172 44.4183 5.26059 44.1597 5.26059ZM49.1474 5.26059H48.3104V3.46435V1.66812H49.338C50.3561 1.66812 50.3695 1.6727 50.7907 2.16412C51.1475 2.58034 51.2159 2.77404 51.2159 3.36822C51.2159 3.75767 51.1214 4.25195 51.006 4.46662C50.8906 4.68129 50.6135 4.94775 50.3903 5.05876C50.1587 5.17391 49.6249 5.26059 49.1474 5.26059ZM49.2032 4.86143C49.3898 4.86143 49.6981 4.79326 49.8883 4.70994C50.0784 4.62662 50.3372 4.34929 50.4634 4.09366C50.6128 3.79094 50.665 3.46099 50.6131 3.14745C50.5663 2.86463 50.3856 2.54252 50.1751 2.36665C49.9528 2.18083 49.6361 2.06728 49.3403 2.06728H48.8638V3.46435C48.8638 4.85872 48.8645 4.86143 49.2032 4.86143ZM53.7755 5.26059H52.7378V3.46435V1.66812H53.7755C54.6056 1.66812 54.8132 1.70803 54.8132 1.8677C54.8132 2.02091 54.6364 2.06728 54.0522 2.06728H53.2912V2.66603V3.26477H53.983C54.5057 3.26477 54.6748 3.31356 54.6748 3.46435C54.6748 3.61515 54.5057 3.66393 53.983 3.66393H53.2912V4.26268V4.86143H54.0522C54.6364 4.86143 54.8132 4.90779 54.8132 5.06101C54.8132 5.22067 54.6056 5.26059 53.7755 5.26059ZM56.5426 5.26059C56.3684 5.26059 56.3351 4.97231 56.3351 3.46435V1.66812H57.2266C57.9909 1.66812 58.1487 1.71027 58.3334 1.96383C58.4519 2.12647 58.5488 2.41657 58.5488 2.60848C58.5488 2.8004 58.4292 3.0615 58.283 3.18871C58.0219 3.41598 58.0243 3.43502 58.4214 4.28617C58.6437 4.76256 58.8255 5.1767 58.8255 5.20647C58.8255 5.23623 58.68 5.26059 58.5023 5.26059C58.2392 5.26059 58.1123 5.1119 57.8208 4.46226C57.5158 3.78241 57.4098 3.66393 57.1064 3.66393C56.7632 3.66393 56.7502 3.69323 56.7502 4.46226C56.7502 5.08318 56.704 5.26059 56.5426 5.26059ZM56.9512 3.26477C57.0617 3.26477 57.3055 3.1976 57.4929 3.1155C57.6802 3.0334 57.8618 2.86228 57.8964 2.73523C57.9309 2.60819 57.902 2.40592 57.832 2.28576C57.7525 2.149 57.5264 2.06728 57.2275 2.06728C56.754 2.06728 56.7502 2.07209 56.7502 2.66603C56.7502 3.10092 56.8052 3.26477 56.9512 3.26477ZM63.668 5.26059H62.5611V3.46435V1.66812H63.5988C64.429 1.66812 64.6365 1.70803 64.6365 1.8677C64.6365 2.01849 64.4674 2.06728 63.9447 2.06728H63.2529V2.66603V3.26477H63.9447C64.4674 3.26477 64.6365 3.31356 64.6365 3.46435C64.6365 3.61515 64.4674 3.66393 63.9447 3.66393H63.2529V4.26268V4.86143H64.0139C64.5981 4.86143 64.7749 4.90779 64.7749 5.06101C64.7749 5.22178 64.5596 5.26059 63.668 5.26059ZM67.1961 5.26059H66.1584V3.46435C66.1584 1.75682 66.1721 1.66812 66.4351 1.66812C66.6965 1.66812 66.7119 1.75682 66.7119 3.26477V4.86143H67.4728C68.057 4.86143 68.2338 4.90779 68.2338 5.06101C68.2338 5.22067 68.0263 5.26059 67.1961 5.26059ZM69.6865 5.26059H69.3406V3.46435V1.66812H69.6865H70.0324V3.46435V5.26059H69.6865ZM72.4537 5.26059H72.1078V3.66393V2.06728H71.5544C71.1547 2.06728 71.0009 2.01184 71.0009 1.8677C71.0009 1.7036 71.2469 1.66812 72.3845 1.66812C73.5221 1.66812 73.7681 1.7036 73.7681 1.8677C73.7681 2.00709 73.622 2.06728 73.2838 2.06728H72.7996V3.66393V5.26059H72.4537ZM75.9126 5.26059H74.8749V3.46435V1.66812H75.9126C76.7428 1.66812 76.9503 1.70803 76.9503 1.8677C76.9503 2.02091 76.7735 2.06728 76.1893 2.06728H75.4284V2.66603V3.26477H76.1201C76.6428 3.26477 76.8119 3.31356 76.8119 3.46435C76.8119 3.61515 76.6428 3.66393 76.1201 3.66393H75.4284V4.26268V4.86143H76.1893C76.7735 4.86143 76.9503 4.90779 76.9503 5.06101C76.9503 5.22067 76.7428 5.26059 75.9126 5.26059ZM60.555 4.0631C59.9708 4.0631 59.794 4.01673 59.794 3.86352C59.794 3.7103 59.9708 3.66393 60.555 3.66393C61.1391 3.66393 61.3159 3.7103 61.3159 3.86352C61.3159 4.01673 61.1391 4.0631 60.555 4.0631ZM40.4932 1.26895C40.278 1.26895 40.1473 1.19355 40.1473 1.06937C40.1473 0.945186 40.278 0.869789 40.4932 0.869789C40.7084 0.869789 40.8391 0.945186 40.8391 1.06937C40.8391 1.19355 40.7084 1.26895 40.4932 1.26895ZM41.3925 1.26895C41.2388 1.26895 41.1158 1.18025 41.1158 1.06937C41.1158 0.958492 41.2388 0.869789 41.3925 0.869789C41.5462 0.869789 41.6692 0.958492 41.6692 1.06937C41.6692 1.18025 41.5462 1.26895 41.3925 1.26895Z" fill="#949494"/>
</svg>
