<svg width="92" height="25" viewBox="0 0 92 25" fill="none" xmlns="http://www.w3.org/2000/svg">
<path d="M14.9646 24.1657C14.894 24.1657 14.8362 24.0855 14.8362 23.9875C14.8362 23.8895 14.8612 23.7431 14.8918 23.6623C14.9223 23.5815 15.0254 23.5153 15.1207 23.5153C15.2161 23.5153 15.2941 23.53 15.2941 23.5479C15.2941 23.5658 15.2488 23.7122 15.1936 23.8731C15.1383 24.0341 15.0352 24.1657 14.9646 24.1657ZM27.189 24.1657C27.0941 24.1657 27.0165 24.1511 27.0165 24.1331C27.0165 24.1152 27.0618 23.9689 27.1171 23.8079C27.1723 23.647 27.2754 23.5153 27.346 23.5153C27.4166 23.5153 27.4739 23.5676 27.4732 23.6315C27.4724 23.6954 27.4471 23.8417 27.4167 23.9567C27.3842 24.0796 27.2904 24.1657 27.189 24.1657ZM2.02385 23.7941H1.64846V22.8649V21.9358H2.18376C2.58463 21.9358 2.75684 21.9781 2.86953 22.1045C2.9523 22.1973 3.04597 22.4048 3.07769 22.5658C3.10941 22.7267 3.10882 23.0019 3.07637 23.1774C3.03144 23.4204 2.94368 23.532 2.7083 23.6453C2.53831 23.7271 2.2303 23.7941 2.02385 23.7941ZM2.06964 23.6082C2.0998 23.6082 2.26465 23.5408 2.43596 23.4583C2.72594 23.3187 2.74744 23.2778 2.74744 22.8657C2.74744 22.6223 2.6957 22.3795 2.63245 22.3263C2.56921 22.273 2.40436 22.2007 2.26613 22.1655L2.01479 22.1015V22.8549C2.01479 23.2692 2.03947 23.6082 2.06964 23.6082ZM3.93092 23.775C3.75852 23.79 3.53504 23.7411 3.4343 23.6663C3.29296 23.5613 3.25322 23.4298 3.26025 23.0904C3.26673 22.778 3.31822 22.6144 3.43802 22.5255C3.53079 22.4567 3.7201 22.4004 3.85873 22.4004C4.01537 22.4004 4.16474 22.4785 4.25334 22.6069C4.33175 22.7204 4.39591 22.8877 4.39591 22.9785C4.39591 23.1123 4.31766 23.1437 3.98379 23.1437C3.68602 23.1437 3.57167 23.1808 3.57167 23.2776C3.57167 23.3512 3.62201 23.443 3.68353 23.4816C3.74505 23.5202 3.91364 23.5426 4.05818 23.5314C4.23611 23.5177 4.30861 23.5493 4.28268 23.6294C4.26161 23.6944 4.10332 23.7599 3.93092 23.775ZM3.80063 22.9578C3.93527 22.9578 4.02958 22.9045 4.02958 22.8284C4.02958 22.7572 3.97279 22.6769 3.90337 22.6498C3.83395 22.6228 3.73092 22.6476 3.67442 22.7049C3.61791 22.7623 3.57167 22.8426 3.57167 22.8835C3.57167 22.9244 3.6747 22.9578 3.80063 22.9578ZM5.31651 23.7802C5.01779 23.787 4.81494 23.7414 4.72123 23.6463C4.62471 23.5484 4.57907 23.3252 4.57907 22.9512C4.57907 22.5235 4.60978 22.4004 4.71644 22.4004C4.81997 22.4004 4.85381 22.5132 4.85381 22.8583C4.85381 23.1549 4.90563 23.3688 5.00089 23.4654C5.11444 23.5807 5.17706 23.5902 5.27563 23.5072C5.35584 23.4396 5.4033 23.2139 5.4033 22.9V22.4004H5.71316C5.94599 22.4004 6.03491 22.3542 6.07091 22.2145C6.09725 22.1123 6.16388 22.0287 6.21896 22.0287C6.27405 22.0287 6.31912 22.1123 6.31912 22.2145C6.31912 22.3384 6.38017 22.4004 6.50228 22.4004C6.60302 22.4004 6.68544 22.4422 6.68544 22.4933C6.68544 22.5444 6.60086 22.5862 6.49749 22.5862C6.3286 22.5862 6.31235 22.6349 6.33722 23.0669L6.36491 23.5476L6.80448 23.5423C7.04624 23.5394 7.27291 23.5064 7.30818 23.4688C7.34344 23.4313 7.2953 23.3533 7.20118 23.2954C7.10706 23.2375 6.94369 23.1219 6.83814 23.0384C6.67097 22.9063 6.66032 22.8554 6.75546 22.6436C6.84691 22.4399 6.92459 22.4004 7.23297 22.4004C7.50331 22.4004 7.60125 22.4384 7.60125 22.5432C7.60125 22.6425 7.52736 22.678 7.35901 22.6594C7.22578 22.6447 7.10403 22.6745 7.08847 22.7256C7.0729 22.7767 7.20002 22.9089 7.37096 23.0195L7.68175 23.2206L7.7451 22.9279C7.77995 22.767 7.87517 22.5838 7.9567 22.5208C8.03824 22.4578 8.2595 22.4049 8.44838 22.4033C8.70481 22.4011 8.79181 22.4384 8.79181 22.5506C8.79181 22.6588 8.73646 22.6861 8.59384 22.6482C8.48496 22.6194 8.32012 22.6369 8.22752 22.6871C8.11434 22.7486 8.05916 22.883 8.05916 23.0972C8.05916 23.3114 8.11434 23.4458 8.22752 23.5073C8.32012 23.5576 8.48496 23.5751 8.59384 23.5462C8.73646 23.5083 8.79181 23.5357 8.79181 23.6439C8.79181 23.7541 8.70494 23.7941 8.46526 23.7941C8.28565 23.7941 8.05899 23.7508 7.96156 23.6979C7.86413 23.645 7.78316 23.53 7.78163 23.4424C7.77926 23.3067 7.76342 23.3106 7.67498 23.4689C7.61786 23.5711 7.52718 23.684 7.47348 23.7199C7.41977 23.7557 7.10144 23.7842 6.76607 23.7831C6.1599 23.7812 6.15597 23.7795 6.10034 23.4973C6.06956 23.3411 6.04437 23.0722 6.04437 22.8998C6.04437 22.683 6.00197 22.5862 5.907 22.5862C5.79927 22.5862 5.76963 22.7139 5.76963 23.178V23.7698L5.31651 23.7802ZM9.02077 23.7941C8.90698 23.7941 8.88339 23.6186 8.88339 22.772C8.88339 21.9255 8.90698 21.75 9.02077 21.75C9.11877 21.75 9.15814 21.8511 9.15814 22.103C9.15814 22.4492 9.16404 22.4553 9.46739 22.4193C9.71111 22.3905 9.80813 22.4283 9.92529 22.598C10.0169 22.7307 10.074 23.0017 10.074 23.3037C10.074 23.7321 10.0508 23.7941 9.89079 23.7941C9.72835 23.7941 9.70763 23.7321 9.70763 23.2465C9.70763 22.8501 9.67042 22.6845 9.57276 22.6465C9.49479 22.6161 9.37888 22.6794 9.29802 22.7966C9.22108 22.908 9.15814 23.178 9.15814 23.3966C9.15814 23.688 9.12146 23.7941 9.02077 23.7941ZM10.3945 23.7941C10.2807 23.7941 10.2571 23.6186 10.2571 22.772C10.2571 21.9255 10.2807 21.75 10.3945 21.75C10.5083 21.75 10.5319 21.9255 10.5319 22.772C10.5319 23.6186 10.5083 23.7941 10.3945 23.7941ZM11.3997 23.7815C10.9434 23.7921 10.8837 23.7705 10.7894 23.5605C10.6995 23.3605 10.715 23.295 10.899 23.0963C11.0169 22.969 11.2126 22.8649 11.3339 22.8649C11.4709 22.8649 11.5392 22.8209 11.5141 22.7488C11.4919 22.6849 11.4164 22.6385 11.3462 22.6455C11.2761 22.6526 11.1424 22.6901 11.0492 22.7288C10.9149 22.7845 10.8865 22.7624 10.9126 22.623C10.9364 22.4956 11.0372 22.439 11.2768 22.4187C11.4909 22.4005 11.6607 22.4439 11.7568 22.5414C11.8599 22.646 11.9056 22.8578 11.9056 23.231V23.7696L11.3997 23.7815ZM11.288 23.5848C11.342 23.5666 11.4463 23.4598 11.5197 23.3476C11.6452 23.1558 11.6395 23.1437 11.4229 23.1437C11.2962 23.1437 11.1674 23.2102 11.1366 23.2914C11.1059 23.3727 11.1053 23.4794 11.1352 23.5286C11.1652 23.5778 11.2339 23.6031 11.288 23.5848H11.288ZM12.2148 23.7941C12.119 23.7941 12.0887 23.6268 12.0887 23.0972V22.4004H12.5283C12.7701 22.4004 13.0174 22.4505 13.0778 22.5119C13.14 22.575 13.1877 22.8773 13.1877 23.2087C13.1877 23.6671 13.1579 23.7941 13.0503 23.7941C12.9453 23.7941 12.913 23.6766 12.913 23.2944C12.913 23.0011 12.8644 22.7539 12.7954 22.6958C12.7267 22.638 12.6255 22.6297 12.5518 22.6759C12.479 22.7215 12.4078 22.9746 12.3833 23.2745C12.354 23.6327 12.3017 23.7941 12.2148 23.7941ZM14.1999 23.7802C13.9012 23.787 13.6983 23.7414 13.6046 23.6463C13.5196 23.5601 13.4625 23.3392 13.4625 23.0972C13.4625 22.8437 13.5194 22.6346 13.6147 22.538C13.7149 22.4363 13.8713 22.3959 14.0726 22.4197C14.3717 22.4552 14.3783 22.4484 14.3783 22.103C14.3783 21.8511 14.4176 21.75 14.5156 21.75C14.6293 21.75 14.653 21.9241 14.653 22.7599V23.7698L14.1999 23.7802ZM14.1584 23.5454C14.2199 23.5215 14.2964 23.396 14.3284 23.2665C14.3646 23.12 14.3324 22.9472 14.2432 22.809C14.1194 22.6173 14.0751 22.6027 13.9185 22.7018C13.799 22.7776 13.7372 22.9184 13.7372 23.1149C13.7372 23.2983 13.7968 23.447 13.8919 23.501C13.977 23.5494 14.097 23.5693 14.1584 23.5454ZM17.0484 23.7941C16.8301 23.7941 16.6029 23.7241 16.4719 23.6165C16.2883 23.4656 16.2557 23.3551 16.2557 22.8829C16.2557 22.4666 16.2995 22.2778 16.4302 22.1314C16.5611 21.9846 16.7137 21.9358 17.0417 21.9358C17.4048 21.9358 17.5109 21.9772 17.6686 22.1806C17.8021 22.3528 17.8584 22.5608 17.8584 22.8817C17.8584 23.2422 17.8112 23.3858 17.6336 23.566C17.4711 23.7309 17.3089 23.7941 17.0484 23.7941ZM17.0587 23.6082C17.1001 23.6082 17.2352 23.5056 17.3588 23.3802C17.4827 23.2545 17.5836 23.0432 17.5836 22.9095C17.5836 22.7761 17.5415 22.587 17.4899 22.4893C17.4384 22.3916 17.312 22.266 17.2091 22.2101C17.0644 22.1315 16.9712 22.142 16.799 22.2565C16.613 22.3802 16.5762 22.4801 16.5762 22.8618C16.5762 23.2289 16.6163 23.3475 16.7798 23.4636C16.8917 23.5432 17.0172 23.6082 17.0587 23.6082ZM18.253 23.7941C18.0414 23.7941 17.95 23.751 17.95 23.6512C17.95 23.5519 18.0238 23.5165 18.1922 23.535C18.3254 23.5498 18.4525 23.5096 18.4745 23.4457C18.4966 23.3819 18.3878 23.2565 18.2329 23.167C18.0626 23.0687 17.9509 22.9289 17.9505 22.8138C17.9503 22.7091 17.9994 22.5732 18.0598 22.5119C18.1203 22.4505 18.3057 22.4004 18.472 22.4004C18.685 22.4004 18.7742 22.4432 18.7742 22.5456C18.7742 22.6282 18.7051 22.6837 18.6139 22.6742C18.5258 22.6651 18.4021 22.6625 18.3392 22.6684C18.2762 22.6743 18.2247 22.7158 18.2247 22.7607C18.2247 22.8056 18.3489 22.8946 18.5006 22.9583C18.6685 23.0289 18.7993 23.1663 18.8346 23.3093C18.8764 23.478 18.8453 23.5794 18.7244 23.6692C18.6318 23.7379 18.4196 23.7941 18.253 23.7941ZM19.4664 23.7941C19.3435 23.7941 19.218 23.7533 19.1876 23.7034C19.1573 23.6535 19.1073 23.3922 19.0767 23.1227C19.046 22.8531 18.9793 22.6051 18.9285 22.5714C18.8713 22.5335 18.8941 22.4512 18.9883 22.3557C19.072 22.2708 19.1405 22.1624 19.1405 22.115C19.1405 22.0675 19.2023 22.0287 19.2779 22.0287C19.3542 22.0287 19.4153 22.1113 19.4153 22.2145C19.4153 22.3178 19.4763 22.4004 19.5526 22.4004C19.6282 22.4004 19.69 22.4422 19.69 22.4933C19.69 22.5444 19.626 22.5862 19.5478 22.5862C19.4339 22.5862 19.4112 22.683 19.4334 23.074C19.4521 23.4034 19.4982 23.5542 19.5755 23.5386C19.6385 23.5258 19.69 23.578 19.69 23.6547C19.69 23.7405 19.6041 23.7941 19.4664 23.7941ZM20.4566 23.7753C20.1923 23.7954 20.0501 23.7552 19.9371 23.6286C19.8502 23.5312 19.7816 23.3036 19.7816 23.1131C19.7816 22.8959 19.8481 22.7045 19.9647 22.5862C20.0655 22.484 20.2692 22.4004 20.4175 22.4004C20.5922 22.4004 20.7372 22.473 20.8296 22.6069C20.908 22.7204 20.9721 22.8877 20.9721 22.9785C20.9721 23.1148 20.892 23.1437 20.5142 23.1437C20.2624 23.1437 20.0563 23.1804 20.0563 23.2252C20.0563 23.2701 20.1222 23.3623 20.2028 23.4301C20.2834 23.4979 20.4726 23.5439 20.6233 23.5323C20.8105 23.5178 20.8851 23.5485 20.8589 23.6294C20.8378 23.6944 20.6568 23.7601 20.4566 23.7753ZM20.3169 22.9578C20.5028 22.9578 20.6058 22.9117 20.6058 22.8284C20.6058 22.7572 20.5479 22.6764 20.477 22.6488C20.4062 22.6213 20.2762 22.6795 20.1881 22.7783C20.033 22.9521 20.0371 22.9578 20.3169 22.9578ZM21.1971 23.7941C21.0802 23.7941 21.0604 23.6777 21.0826 23.1221L21.1095 22.4501L21.4529 22.4236C21.7103 22.4038 21.7964 22.4325 21.7964 22.5381C21.7964 22.6157 21.736 22.6791 21.6622 22.6791C21.5884 22.6791 21.4854 22.76 21.4333 22.8588C21.3811 22.9577 21.3385 23.2085 21.3385 23.4163C21.3385 23.6949 21.3014 23.7941 21.1971 23.7941ZM22.1121 23.7941C22.0082 23.7941 21.9795 23.6435 21.9795 23.0972V22.4004H22.3459C22.5799 22.4004 22.7122 22.4427 22.7122 22.5177C22.7122 22.5822 22.6195 22.6763 22.5061 22.7268C22.3362 22.8024 22.2952 22.9041 22.2724 23.3063C22.2525 23.6572 22.2075 23.7941 22.1121 23.7941ZM23.3919 23.7719C23.1944 23.7852 22.9874 23.7643 22.932 23.7254C22.8765 23.6865 22.7803 23.5567 22.7181 23.437C22.6542 23.314 22.6314 23.1119 22.6657 22.9724C22.6991 22.8366 22.7914 22.6524 22.8709 22.563C22.9503 22.4735 23.1296 22.4004 23.2693 22.4004C23.409 22.4004 23.5881 22.4661 23.6672 22.5464C23.7464 22.6267 23.8112 22.7939 23.8112 22.918C23.8112 23.1235 23.7743 23.1437 23.399 23.1437C23.1013 23.1437 22.9869 23.1808 22.9869 23.2776C22.9869 23.3512 23.0369 23.4428 23.0979 23.4811C23.159 23.5193 23.3484 23.5411 23.5188 23.5295C23.7371 23.5146 23.8173 23.5437 23.7899 23.628C23.7686 23.6938 23.5895 23.7585 23.3919 23.7719ZM23.2617 22.9578C23.4128 22.9578 23.5364 22.9212 23.5364 22.8763C23.5364 22.8315 23.479 22.7464 23.4087 22.6873C23.3102 22.6043 23.2476 22.6138 23.134 22.729C23.0531 22.8111 22.9869 22.8961 22.9869 22.918C22.9869 22.9399 23.1106 22.9578 23.2617 22.9578ZM24.2233 23.7941C24.1134 23.7941 24.0859 23.6547 24.0859 23.0972C24.0859 22.5397 24.1134 22.4004 24.2233 22.4004C24.3332 22.4004 24.3606 22.5397 24.3606 23.0972C24.3606 23.6547 24.3332 23.7941 24.2233 23.7941ZM25.1914 23.7941C24.9866 23.7941 24.7697 23.7312 24.6879 23.6482C24.6088 23.568 24.5201 23.4052 24.4907 23.2866C24.4613 23.1679 24.501 22.9459 24.5788 22.7933C24.6566 22.6407 24.7869 22.4898 24.8685 22.4581C24.95 22.4263 25.137 22.4004 25.284 22.4004C25.469 22.4004 25.5512 22.4465 25.5512 22.5506C25.5512 22.6534 25.4953 22.6859 25.374 22.6537C25.2765 22.6279 25.1116 22.6672 25.0076 22.7411C24.9036 22.815 24.8186 22.9711 24.8186 23.0881C24.8186 23.205 24.8922 23.3683 24.9822 23.451C25.0812 23.5419 25.2259 23.58 25.3485 23.5474C25.496 23.5083 25.5512 23.5346 25.5512 23.6439C25.5512 23.7567 25.4617 23.7941 25.1914 23.7941ZM25.8717 23.7941C25.758 23.7941 25.7344 23.6186 25.7344 22.772C25.7344 21.9255 25.758 21.75 25.8717 21.75C25.9677 21.75 26.0091 21.848 26.0091 22.0752C26.0091 22.3842 26.0248 22.4004 26.3264 22.4004C26.5464 22.4004 26.6728 22.4555 26.7385 22.5801C26.7907 22.6789 26.8333 22.9956 26.8333 23.2837C26.8333 23.7326 26.8104 23.8033 26.6731 23.7768C26.5503 23.7532 26.5068 23.6375 26.4872 23.2822C26.4731 23.0272 26.4428 22.7644 26.4199 22.6983C26.3884 22.6076 26.333 22.6027 26.1936 22.6784C26.0432 22.76 26.0091 22.8724 26.0091 23.2863C26.0091 23.6757 25.9771 23.7941 25.8717 23.7941ZM28.7626 23.7941C28.5133 23.7941 28.3902 23.7531 28.3902 23.6702C28.3902 23.602 28.4163 23.5199 28.4481 23.4876C28.4799 23.4554 28.5829 23.4708 28.677 23.5219C28.7928 23.5848 28.9073 23.5826 29.0313 23.5153C29.132 23.4606 29.2145 23.3645 29.2145 23.3017C29.2145 23.2389 29.0492 23.0839 28.8473 22.9573C28.6453 22.8307 28.4555 22.6486 28.4255 22.5526C28.3955 22.4567 28.4235 22.2787 28.4877 22.157C28.583 21.9763 28.6769 21.9358 29.001 21.9358C29.3052 21.9358 29.3976 21.9708 29.3976 22.086C29.3976 22.1928 29.3421 22.2215 29.2056 22.1853C29.1 22.1572 28.9558 22.1568 28.8851 22.1843C28.8144 22.2119 28.7566 22.2921 28.7566 22.3626C28.7566 22.4332 28.9214 22.5965 29.1229 22.7255C29.4349 22.9253 29.4892 23.0077 29.4892 23.2809C29.4892 23.5029 29.4347 23.6313 29.3121 23.6979C29.2146 23.7508 28.9674 23.794 28.7626 23.794V23.7941ZM30.4225 23.7941C30.2338 23.7941 29.9879 23.729 29.8759 23.6494C29.7241 23.5415 29.6724 23.4117 29.6724 23.1384C29.6724 22.8959 29.7343 22.7092 29.8555 22.5862C29.9689 22.4711 30.1608 22.4004 30.3592 22.4004C30.5934 22.4004 30.6798 22.4408 30.6798 22.5506C30.6798 22.6568 30.6242 22.686 30.4898 22.6504C30.3718 22.6191 30.233 22.6678 30.1235 22.7789C30.0265 22.8773 29.9471 23.0391 29.9471 23.1384C29.9471 23.2377 30.0322 23.3794 30.1362 23.4533C30.2402 23.5272 30.3994 23.5681 30.4899 23.544C30.586 23.5185 30.6776 23.5615 30.7101 23.6472C30.7546 23.765 30.6976 23.7941 30.4225 23.7941ZM31.0003 23.7941C30.8865 23.7941 30.8629 23.6186 30.8629 22.772C30.8629 21.9255 30.8865 21.75 31.0003 21.75C31.0985 21.75 31.1377 21.8514 31.1377 22.1055C31.1377 22.448 31.1478 22.4596 31.4133 22.4201C31.5648 22.3975 31.7503 22.4307 31.8254 22.494C31.9202 22.5739 31.9619 22.7897 31.9619 23.2015C31.9619 23.6663 31.9323 23.7941 31.8245 23.7941C31.7197 23.7941 31.6872 23.6774 31.6872 23.3016C31.6872 23.0308 31.6383 22.7596 31.5785 22.6989C31.4947 22.6139 31.4319 22.6236 31.3038 22.7412C31.1869 22.8485 31.1377 23.0271 31.1377 23.3439C31.1377 23.6821 31.1035 23.7941 31.0003 23.7941ZM32.6101 23.7941C32.4792 23.7941 32.3897 23.653 32.2451 23.2185C32.1397 22.902 32.0535 22.5884 32.0535 22.5217C32.0535 22.455 32.1155 22.4004 32.1912 22.4004C32.2768 22.4004 32.3701 22.5566 32.4377 22.813C32.4975 23.0399 32.5787 23.2054 32.618 23.1807C32.6574 23.156 32.7335 22.9703 32.7872 22.7681C32.8567 22.5062 32.934 22.4004 33.0559 22.4004C33.1851 22.4004 33.2565 22.5167 33.3468 22.8741L33.4665 23.3478L33.615 22.8973C33.7039 22.6273 33.826 22.4345 33.9195 22.4161C34.0465 22.391 34.0641 22.4315 34.0139 22.6342C33.9801 22.771 33.8838 23.0775 33.7999 23.3153C33.6903 23.626 33.598 23.7476 33.4716 23.7476C33.3473 23.7476 33.268 23.6477 33.2012 23.4068C33.1492 23.2193 33.0811 23.04 33.0497 23.0083C33.0184 22.9767 32.9457 23.1405 32.8882 23.3724C32.8101 23.6869 32.7394 23.7941 32.6101 23.7941ZM34.7433 23.7753C34.4789 23.7954 34.3368 23.7552 34.2238 23.6286C34.1383 23.5327 34.0683 23.31 34.0683 23.1338C34.0683 22.9576 34.1324 22.7204 34.2108 22.6069C34.3104 22.4626 34.4469 22.4004 34.6636 22.4004C34.8802 22.4004 35.0167 22.4626 35.1163 22.6069C35.1947 22.7204 35.2588 22.8877 35.2588 22.9785C35.2588 23.1148 35.1787 23.1437 34.8009 23.1437C34.5491 23.1437 34.343 23.1804 34.343 23.2252C34.343 23.2701 34.4089 23.3623 34.4895 23.4301C34.5701 23.4979 34.7593 23.5439 34.91 23.5323C35.0972 23.5178 35.1718 23.5485 35.1456 23.6294C35.1245 23.6944 34.9435 23.7601 34.7433 23.7753ZM34.6036 22.9578C34.7625 22.9578 34.8925 22.9212 34.8925 22.8763C34.8925 22.8315 34.8369 22.748 34.769 22.6908C34.6748 22.6115 34.6063 22.6308 34.4801 22.7723C34.3181 22.954 34.3206 22.9578 34.6036 22.9578ZM35.5794 23.7941C35.4695 23.7941 35.442 23.6547 35.442 23.0972C35.442 22.5397 35.4695 22.4004 35.5794 22.4004C35.6893 22.4004 35.7167 22.5397 35.7167 23.0972C35.7167 23.6547 35.6893 23.7941 35.5794 23.7941ZM36.4036 23.7941C36.0407 23.7941 35.8999 23.7589 35.8999 23.6681C35.8999 23.5988 36.0441 23.3504 36.2204 23.1161C36.3967 22.8819 36.541 22.6668 36.541 22.6382C36.541 22.6096 36.3967 22.5862 36.2204 22.5862C36.0441 22.5862 35.8999 22.5444 35.8999 22.4933C35.8999 22.4422 36.1266 22.4004 36.4036 22.4004C36.8037 22.4004 36.9073 22.4309 36.9073 22.5486C36.9073 22.6302 36.8159 22.8288 36.7043 22.99C36.5926 23.1512 36.4405 23.3458 36.3664 23.4224C36.247 23.5458 36.2704 23.5651 36.5694 23.5906C36.7553 23.6065 36.9073 23.6587 36.9073 23.7068C36.9073 23.7548 36.6806 23.7941 36.4036 23.7941ZM24.2004 22.1913C24.1332 22.214 24.0859 22.15 24.0859 22.0364C24.0859 21.9223 24.145 21.8429 24.23 21.8429C24.3153 21.8429 24.362 21.9061 24.3445 21.9978C24.3282 22.083 24.2633 22.1701 24.2004 22.1913ZM35.5794 22.2145C35.5031 22.2145 35.442 22.1319 35.442 22.0287C35.442 21.9255 35.5031 21.8429 35.5794 21.8429C35.6557 21.8429 35.7167 21.9255 35.7167 22.0287C35.7167 22.1319 35.6557 22.2145 35.5794 22.2145ZM16.8052 21.8429C16.7296 21.8429 16.6678 21.7802 16.6678 21.7035C16.6678 21.6268 16.7296 21.5641 16.8052 21.5641C16.8807 21.5641 16.9426 21.6268 16.9426 21.7035C16.9426 21.7802 16.8807 21.8429 16.8052 21.8429ZM17.2097 21.8429C17.0978 21.8429 17.0346 21.7948 17.057 21.7267C17.078 21.6628 17.1638 21.5971 17.2478 21.5805C17.3382 21.5628 17.4005 21.6102 17.4005 21.6967C17.4005 21.7829 17.3222 21.8429 17.2097 21.8429ZM14.1035 20.0337C13.3732 20.0528 12.5902 20.0327 12.3635 19.989C12.1368 19.9454 11.7453 19.8387 11.4935 19.7519C11.2416 19.6651 10.7883 19.4631 10.4861 19.303C10.1608 19.1307 9.65498 18.725 9.24655 18.3089C8.76055 17.8138 8.44517 17.3875 8.17994 16.8673C7.97283 16.461 7.73793 15.9305 7.65796 15.6883C7.57798 15.4462 7.45012 14.9444 7.37381 14.5734C7.28979 14.1647 7.23505 13.4062 7.235 12.6499C7.23496 11.9631 7.282 11.1478 7.33952 10.8381C7.39705 10.5284 7.52589 10.0241 7.62584 9.71753C7.72578 9.41091 7.84861 9.10777 7.89878 9.0439C7.97074 8.95228 7.75557 8.92775 6.87982 8.92775H5.76963V14.3633V19.7987H3.70905H1.64846V14.3633V8.92775H0.824232H0V7.25529V5.58283H0.824232H1.64846L1.64857 4.67691C1.64863 4.17866 1.70459 3.47832 1.77292 3.1206C1.84125 2.76287 1.96682 2.30295 2.05198 2.09854C2.13714 1.89412 2.43261 1.50988 2.70859 1.24467C2.98457 0.979449 3.4256 0.655739 3.68866 0.525311C3.95172 0.394882 4.41387 0.223023 4.71565 0.143403C5.10101 0.041733 5.69221 -0.000951726 6.70161 1.60716e-05C7.4921 0.000777971 8.2455 0.028547 8.37583 0.0617339L8.61279 0.122074L8.58783 1.7546L8.56286 3.38713L7.55547 3.36774C6.87252 3.3546 6.47433 3.38733 6.31912 3.46934C6.19319 3.53588 6.02002 3.7355 5.93429 3.91295C5.83294 4.12273 5.77689 4.47117 5.77403 4.9092L5.76963 5.58283H7.00598H8.24232V6.94345V8.30407L8.57623 7.84937C8.75988 7.59928 9.15526 7.15687 9.45485 6.86622C9.76471 6.56561 10.3018 6.18084 10.7007 5.97375C11.0864 5.77352 11.6079 5.55139 11.8598 5.48013C12.164 5.39405 12.8097 5.35054 13.783 5.35054C14.7099 5.35054 15.4334 5.39694 15.752 5.47684C16.029 5.5463 16.5442 5.74297 16.8968 5.91389C17.2494 6.0848 17.7679 6.40987 18.0492 6.63626C18.3304 6.86265 18.7731 7.33496 19.0329 7.68584C19.2928 8.03672 19.6062 8.53287 19.7296 8.78838C19.8529 9.0439 20.0023 9.37839 20.0616 9.5317C20.121 9.68501 20.2081 9.95678 20.2554 10.1356C20.3026 10.3145 20.3999 10.7744 20.4717 11.1577C20.5435 11.541 20.603 12.2309 20.6039 12.6908C20.6048 13.1507 20.5472 13.8615 20.4758 14.2703C20.4045 14.6792 20.277 15.2227 20.1925 15.4782C20.108 15.7337 19.9159 16.1908 19.7657 16.494C19.6155 16.7972 19.3763 17.2167 19.2342 17.4263C19.0921 17.6359 18.6928 18.0778 18.3469 18.4082C18.001 18.7386 17.4714 19.141 17.17 19.3025C16.8686 19.4639 16.3541 19.6866 16.0267 19.7975C15.555 19.9572 15.156 20.0062 14.1035 20.0337ZM13.8489 17.0988C14.3072 17.1028 14.5497 17.0555 14.799 16.9135C14.983 16.8086 15.1814 16.6727 15.2398 16.6115C15.2981 16.5504 15.4296 16.3748 15.5319 16.2215C15.6342 16.0682 15.7645 15.7756 15.8215 15.5711C15.8785 15.3667 15.9686 15.0033 16.0217 14.7634C16.0749 14.5236 16.1183 13.6163 16.1183 12.7471C16.1183 11.878 16.0758 10.9453 16.0238 10.6745C15.9717 10.4037 15.8814 10.0149 15.823 9.81044C15.7647 9.60603 15.602 9.26522 15.4615 9.05308C15.3029 8.81348 15.0466 8.58899 14.7848 8.46042C14.435 8.28864 14.2573 8.26117 13.7391 8.29878C13.2825 8.33193 13.0324 8.40283 12.8079 8.56283C12.639 8.68313 12.4507 8.84581 12.3894 8.92434C12.3281 9.00287 12.2095 9.21025 12.1258 9.38518C12.042 9.56012 11.9119 9.95733 11.8365 10.2679C11.7384 10.6724 11.6999 11.3462 11.7008 12.6443C11.7016 13.9259 11.7417 14.6214 11.8377 15.0208C11.9124 15.3313 12.0489 15.7495 12.1411 15.9499C12.2333 16.1504 12.4354 16.4399 12.5902 16.5932C12.745 16.7465 12.953 16.9217 13.0525 16.9826C13.1521 17.0435 13.5104 17.0958 13.8489 17.0988ZM25.0475 20.0392C24.3927 20.0548 23.7127 20.0347 23.5364 19.9946C23.3601 19.9544 23.0533 19.8508 22.8545 19.7643C22.6557 19.6779 22.355 19.5003 22.1861 19.3696C22.0173 19.239 21.7316 18.9066 21.5512 18.631C21.3708 18.3553 21.1388 17.8468 21.0355 17.5009C20.8571 16.9031 20.846 16.5925 20.8116 11.2274L20.7753 5.58283H22.8427H24.9101V10.4574C24.9101 15.1074 24.9186 15.3548 25.0936 15.8295C25.2383 16.2218 25.3524 16.37 25.6327 16.5298C25.83 16.6423 26.1458 16.7319 26.3421 16.7312C26.5367 16.7304 26.8607 16.6716 27.0621 16.6005C27.2635 16.5294 27.5831 16.3393 27.7724 16.1781C27.9617 16.0168 28.1885 15.7516 28.2763 15.5886C28.4206 15.321 28.4404 14.8263 28.4818 10.4608L28.5276 5.62929L30.6569 5.60435L32.7861 5.5794V12.6891V19.7987H30.8202H28.8543L28.8283 18.7999L28.8023 17.8011L28.6452 18.1337C28.5587 18.3167 28.2883 18.6721 28.0442 18.9235C27.8001 19.1749 27.4175 19.4694 27.194 19.5779C26.9704 19.6865 26.6639 19.8283 26.5128 19.893C26.3534 19.9613 25.7384 20.0227 25.0475 20.0392ZM51.333 20.0396C50.778 20.0554 50.1745 20.0359 49.9918 19.9964C49.8091 19.957 49.4215 19.8065 49.1306 19.6621C48.8396 19.5177 48.3872 19.1862 48.1252 18.9255C47.8631 18.6648 47.5282 18.2634 47.3809 18.0334C47.2336 17.8035 47.0638 17.5108 47.0036 17.383C46.9435 17.2553 46.7926 16.8371 46.6684 16.4537C46.5442 16.0704 46.3783 15.3209 46.2998 14.7881C46.2213 14.2554 46.157 13.3528 46.157 12.7825C46.157 12.2121 46.2154 11.3519 46.2867 10.8709C46.358 10.3898 46.4445 9.87084 46.4789 9.71753C46.5134 9.56422 46.6247 9.18791 46.7263 8.8813C46.8279 8.57468 47.0402 8.07406 47.198 7.76881C47.3558 7.46355 47.7175 6.96182 48.0018 6.65383C48.2996 6.33117 48.7265 5.98952 49.0092 5.84765C49.279 5.71223 49.6234 5.55504 49.7745 5.49834C49.9256 5.44164 50.3583 5.36368 50.7361 5.32511C51.1139 5.28654 51.7044 5.28803 52.0485 5.32844C52.4028 5.37006 52.9189 5.51587 53.239 5.66484C53.5498 5.80946 53.9998 6.10459 54.2391 6.32069L54.6741 6.7136V3.68598V0.658361H56.7347H58.7952V10.2286V19.7987H56.8262H54.8573L54.8562 18.8928L54.8552 17.9869L54.6093 18.3121C54.474 18.491 54.1761 18.8155 53.9472 19.0333C53.7183 19.2511 53.2635 19.5602 52.9365 19.7201C52.3994 19.983 52.2448 20.0138 51.333 20.0396L51.333 20.0396ZM52.7698 16.9762C53.1185 16.9499 53.3928 16.8656 53.5941 16.723C53.7599 16.6054 53.9714 16.4235 54.0639 16.3189C54.1564 16.2143 54.3213 15.9405 54.4302 15.7106C54.6153 15.3199 54.6301 15.1318 54.6555 12.8421C54.6809 10.5552 54.6698 10.3507 54.488 9.77592C54.381 9.43721 54.1832 9.04137 54.0487 8.89627C53.9142 8.75118 53.6928 8.57348 53.5568 8.50139C53.4207 8.4293 53.0704 8.37047 52.7783 8.37066C52.3979 8.37094 52.1562 8.42722 51.9266 8.56917C51.7504 8.67817 51.5285 8.85571 51.4337 8.96371C51.3389 9.07172 51.1696 9.36914 51.0575 9.62466C50.9455 9.88017 50.7968 10.3192 50.7271 10.6003C50.6421 10.943 50.6001 11.6772 50.5995 12.8302C50.599 13.9801 50.6395 14.7029 50.7219 15.0137C50.7896 15.2692 50.9263 15.6486 51.0256 15.8567C51.1249 16.0649 51.3005 16.3466 51.4158 16.4828C51.5311 16.6189 51.7654 16.7945 51.9363 16.873C52.1434 16.9681 52.4216 17.0025 52.7698 16.9762ZM66.1675 20.031C65.412 20.0482 64.6702 20.0445 64.5191 20.0228C64.368 20.0011 64.0795 19.9396 63.878 19.8862C63.6765 19.8327 63.285 19.7001 63.008 19.5913C62.731 19.4826 62.2776 19.2394 62.0006 19.0508C61.7236 18.8622 61.3269 18.5403 61.1191 18.3355C60.9113 18.1307 60.5751 17.7385 60.372 17.464C60.1689 17.1895 59.8781 16.714 59.7257 16.4074C59.5734 16.1007 59.3558 15.5154 59.2421 15.1066C59.064 14.4658 59.0358 14.1454 59.0375 12.7837C59.0391 11.4425 59.07 11.092 59.2424 10.4608C59.354 10.052 59.5643 9.45706 59.7099 9.13871C59.8554 8.82036 60.107 8.36445 60.269 8.12557C60.431 7.88669 60.7944 7.45727 61.0767 7.1713C61.3589 6.88532 61.8162 6.50056 62.0929 6.31626C62.3695 6.13196 62.8653 5.87286 63.1946 5.74047C63.5239 5.60809 64.0779 5.45366 64.4257 5.39728C64.7735 5.34091 65.3902 5.29607 65.796 5.29762C66.2018 5.29918 66.7605 5.33959 67.0376 5.38743C67.3146 5.43526 67.7408 5.54355 67.9846 5.62807C68.2284 5.7126 68.6199 5.8891 68.8546 6.02031C69.0893 6.15151 69.4668 6.39633 69.6934 6.56434C69.9201 6.73235 70.2754 7.05062 70.4831 7.27161C70.6907 7.4926 71.0087 7.90076 71.1898 8.17864C71.3709 8.45651 71.6192 8.97916 71.7417 9.34007C71.8642 9.70098 72.0067 10.1635 72.0583 10.3679C72.11 10.5723 72.1966 11.0162 72.2508 11.3542C72.305 11.6923 72.3493 12.309 72.3493 12.7247V13.4806H67.9076H63.4659L63.4673 14.1077C63.468 14.4527 63.5196 14.906 63.5818 15.1152C63.644 15.3244 63.8126 15.6841 63.9565 15.9146C64.122 16.1797 64.4066 16.4496 64.7314 16.6493C65.2088 16.9428 65.2992 16.9649 66.0266 16.9649C66.5858 16.9649 66.9048 16.9181 67.1462 16.8007C67.3319 16.7104 67.6255 16.4687 67.7986 16.2635C67.9717 16.0583 68.1842 15.6618 68.2708 15.3824C68.3981 14.9719 68.4663 14.8746 68.6259 14.8762C68.7345 14.8772 69.4416 14.9179 70.1971 14.9666C70.9527 15.0153 71.7278 15.0813 71.9196 15.1132C72.2549 15.1689 72.2659 15.1824 72.2056 15.461C72.1711 15.6204 72.1094 15.815 72.0684 15.8933C72.0275 15.9716 71.8635 16.3075 71.7041 16.6397C71.5446 16.9718 71.2728 17.4393 71.1001 17.6786C70.9273 17.9178 70.5679 18.3158 70.3013 18.563C70.0347 18.8102 69.5725 19.1437 69.2742 19.3042C68.9759 19.4646 68.464 19.6868 68.1366 19.7979C67.6561 19.9609 67.2764 20.0058 66.1676 20.031L66.1675 20.031ZM65.814 10.879H68.1621L68.1057 10.3912C68.0746 10.1229 67.9344 9.67501 67.7941 9.39592C67.6293 9.06809 67.3989 8.78856 67.1431 8.60615C66.7759 8.34426 66.6898 8.32381 65.9537 8.32381C65.3987 8.32381 65.0638 8.37074 64.8396 8.47995C64.6633 8.56583 64.4105 8.75398 64.2777 8.89807C64.1449 9.04215 63.9634 9.30638 63.8742 9.48524C63.7851 9.6641 63.6572 10.0195 63.5901 10.275C63.523 10.5305 63.4676 10.7709 63.467 10.8093C63.4663 10.8476 64.5225 10.879 65.814 10.879ZM85.2623 20.0311C84.3808 20.0497 83.5566 20.0464 83.4306 20.0238C83.3047 20.0011 82.9544 19.9339 82.6522 19.8744C82.35 19.8148 81.8172 19.6474 81.4683 19.5022C81.1194 19.357 80.6867 19.1272 80.5067 18.9915C80.3268 18.8557 79.9883 18.5441 79.7547 18.299C79.521 18.0539 79.2065 17.5907 79.0557 17.2697C78.9049 16.9487 78.7355 16.5692 78.6792 16.4262C78.6229 16.2833 78.5768 16.0866 78.5768 15.9891C78.5768 15.8619 78.661 15.7969 78.8745 15.7588C79.0382 15.7297 79.5842 15.6415 80.0879 15.563C80.5916 15.4845 81.251 15.3995 81.5532 15.3743L82.1027 15.3283L82.3191 15.8052C82.4544 16.1032 82.6703 16.3811 82.895 16.5462C83.0927 16.6915 83.4737 16.8804 83.7417 16.9659C84.107 17.0825 84.4783 17.1134 85.2264 17.0896C86.0683 17.0627 86.293 17.022 86.6671 16.8281C86.9109 16.7017 87.1891 16.4862 87.2853 16.3491C87.3815 16.2121 87.4602 15.9749 87.4602 15.8221C87.4602 15.646 87.3662 15.4422 87.2031 15.2651C87.0617 15.1115 86.7835 14.9382 86.5849 14.8799C86.3863 14.8217 85.8942 14.7355 85.4912 14.6883C85.0883 14.6412 84.5319 14.563 84.2549 14.5146C83.9778 14.4662 83.3803 14.3357 82.9269 14.2247C82.4736 14.1137 81.7936 13.8929 81.4159 13.734C80.9529 13.5393 80.5692 13.2921 80.2387 12.9757C79.969 12.7175 79.6714 12.353 79.5772 12.1658C79.4831 11.9786 79.3437 11.6438 79.2675 11.4219C79.1913 11.1999 79.1284 10.7152 79.1276 10.3447C79.1266 9.8063 79.0985 9.67107 78.9879 9.67107C78.9118 9.67107 78.6713 9.75607 78.4535 9.85996C78.2357 9.96385 77.9299 10.1834 77.774 10.3478C77.6181 10.5122 77.3825 10.8661 77.2505 11.1343C77.1185 11.4026 76.9515 11.9043 76.8794 12.2493C76.7794 12.7283 76.748 13.695 76.7468 16.3377L76.7452 19.7987H74.6846H72.624V12.6908V5.58283H74.5472H76.4705L76.4752 6.67458L76.4799 7.76632L76.6276 7.39466C76.7089 7.19025 76.9214 6.79649 77.0999 6.51964C77.2784 6.24279 77.604 5.88739 77.8235 5.72987C78.043 5.57234 78.3538 5.39437 78.5142 5.33438C78.6746 5.27439 79.1236 5.22213 79.5121 5.21824L80.2184 5.21117L80.2447 6.04537L80.2711 6.87957L80.6832 6.54336C80.9099 6.35844 81.3838 6.0719 81.7364 5.90661C82.089 5.74131 82.5835 5.55865 82.8354 5.5007C83.0872 5.44274 83.6737 5.36269 84.1387 5.3228C84.6037 5.28291 85.3867 5.2844 85.8788 5.32612C86.3708 5.36784 87.0209 5.48176 87.3235 5.57927C87.6261 5.67678 88.0732 5.86967 88.317 6.00791C88.5608 6.14615 88.9355 6.43111 89.1496 6.64114C89.3637 6.85116 89.6611 7.21116 89.8104 7.44112C89.9597 7.67108 90.1926 8.09337 90.3279 8.37953C90.4632 8.66569 90.574 8.94467 90.574 8.99949C90.574 9.05432 90.44 9.13967 90.2763 9.18918C90.1126 9.23868 89.6284 9.37161 89.2003 9.48458C88.7721 9.59755 88.3023 9.72754 88.1563 9.77344C88.0103 9.81934 87.8004 9.8569 87.6899 9.8569C87.544 9.8569 87.4305 9.74139 87.275 9.43479C87.1573 9.20264 86.9557 8.90575 86.8268 8.77505C86.698 8.64435 86.4272 8.44754 86.2251 8.3377C85.9096 8.16625 85.7085 8.13816 84.8044 8.13928C83.9921 8.14028 83.6862 8.1764 83.4671 8.29713C83.3109 8.38324 83.1152 8.55888 83.0321 8.68745C82.9491 8.81602 82.8811 9.04615 82.8811 9.19886C82.8811 9.35156 82.9269 9.5784 82.9828 9.70295C83.0388 9.82749 83.1727 9.97289 83.2805 10.026C83.3883 10.0792 83.6207 10.1644 83.797 10.2153C83.9733 10.2663 84.406 10.3514 84.7586 10.4044C85.1112 10.4575 85.7293 10.5475 86.1323 10.6044C86.5352 10.6614 87.071 10.7511 87.3228 10.8039C87.5747 10.8567 87.8754 10.937 87.9911 10.9823C88.1068 11.0277 88.2658 11.0648 88.3444 11.0648C88.4229 11.0648 88.7404 11.1874 89.0498 11.3373C89.3592 11.4871 89.8109 11.8112 90.0536 12.0574C90.2962 12.3035 90.6107 12.7558 90.7524 13.0624C90.8959 13.3728 91.0601 13.9572 91.1229 14.381C91.2094 14.9645 91.2113 15.2896 91.131 15.7747C91.0734 16.1227 90.9821 16.5328 90.928 16.6861C90.874 16.8394 90.7413 17.151 90.6332 17.3786C90.525 17.6061 90.2251 18.0243 89.9667 18.3077C89.7083 18.5912 89.2344 18.9811 88.9136 19.1741C88.5927 19.3672 88.0005 19.6314 87.5975 19.7612C86.9546 19.9684 86.6687 20.0014 85.2622 20.0311H85.2623ZM35.8541 19.7987H33.702V12.689V5.57921L35.6938 5.60425L37.6857 5.62929L37.7119 6.58501C37.7325 7.33911 37.7615 7.51553 37.8492 7.42124C37.9104 7.35552 38.0799 7.12332 38.2259 6.90525C38.3719 6.68717 38.6553 6.35842 38.8558 6.17469C39.0562 5.99096 39.4107 5.75302 39.6435 5.64593C39.8764 5.53884 40.3739 5.40637 40.7492 5.35157C41.1544 5.29241 41.7237 5.28058 42.1507 5.32246C42.5462 5.36125 43.0634 5.45935 43.3 5.54046C43.5365 5.62157 43.9247 5.81424 44.1626 5.96862C44.4005 6.123 44.7196 6.39319 44.8718 6.56905C45.024 6.74492 45.2337 7.05827 45.3379 7.26539C45.442 7.47252 45.6071 7.95888 45.7048 8.34619C45.8703 9.00308 45.8823 9.41147 45.8823 14.4246V19.7987H43.7759H41.6695V15.0548C41.6695 11.9726 41.635 10.1716 41.5709 9.91325C41.5166 9.69458 41.3826 9.41242 41.2732 9.28623C41.1638 9.16004 40.9724 8.98595 40.8478 8.89936C40.6914 8.7906 40.435 8.74192 40.0186 8.74192C39.5115 8.74192 39.3497 8.78447 38.999 9.01013C38.7229 9.18775 38.5163 9.41637 38.3872 9.68701C38.2799 9.91178 38.1503 10.3194 38.0992 10.5929C38.0446 10.8849 38.0063 12.8875 38.0063 15.4444V19.7987H35.8541ZM72.2866 3.81711C72.0112 3.81689 71.7357 3.74879 71.5529 3.63571C71.392 3.53614 71.1886 3.34364 71.1009 3.20795C70.9896 3.03555 70.9432 2.78275 70.9471 2.36877C70.9507 1.97838 71.0051 1.69507 71.1064 1.53811C71.191 1.40709 71.392 1.21842 71.5529 1.11885C71.7139 1.01927 71.994 0.937643 72.1754 0.937452C72.3567 0.937257 72.6368 0.983669 72.7977 1.04058C72.9586 1.09749 73.0748 1.19157 73.0559 1.24964C73.0362 1.31019 72.7663 1.36682 72.423 1.38241C71.9379 1.40444 71.7869 1.45009 71.6268 1.62305C71.518 1.74044 71.3938 1.96139 71.3506 2.11404C71.2992 2.29621 71.3127 2.51114 71.3901 2.73951C71.4549 2.93087 71.5839 3.14467 71.6768 3.21462C71.7696 3.28456 71.9986 3.36861 72.1857 3.40138C72.3727 3.43416 72.5685 3.43419 72.6207 3.40145C72.6729 3.3687 72.7156 3.15623 72.7156 2.92928C72.7156 2.53275 72.7049 2.51665 72.4409 2.51665C72.2577 2.51665 72.1661 2.47019 72.1661 2.37728C72.1661 2.27198 72.2781 2.23791 72.624 2.23791H73.0819V2.9315C73.0819 3.52214 73.0557 3.63936 72.9048 3.72127C72.8074 3.77417 72.5292 3.8173 72.2866 3.81711ZM63.3711 3.72454C63.2005 3.72454 63.1912 3.6546 63.1912 2.37728V1.03002H63.4089C63.5287 1.03002 63.6665 1.08228 63.7151 1.14616C63.7638 1.21004 63.9581 1.65951 64.1469 2.14499C64.3357 2.63047 64.5027 3.04074 64.518 3.0567C64.5333 3.07266 64.6119 2.95126 64.6927 2.78691C64.7735 2.62257 64.8396 2.45549 64.8396 2.41563C64.8396 2.37578 64.9706 2.04771 65.1306 1.68659C65.3915 1.09789 65.4483 1.03002 65.6801 1.03002H65.9386V2.37728C65.9386 3.6626 65.9302 3.72454 65.7554 3.72454C65.5834 3.72454 65.572 3.66113 65.5679 2.67925L65.5636 1.63396L65.1463 2.67925C64.7966 3.55518 64.6971 3.72454 64.5323 3.72454C64.3677 3.72454 64.2758 3.56915 63.9694 2.77217L63.6033 1.81979L63.5772 2.77217C63.5532 3.64796 63.5366 3.72454 63.3711 3.72454ZM67.3434 3.72454C67.2172 3.72454 67.1276 3.6913 67.1444 3.65068C67.1612 3.61006 67.3972 3.02109 67.6688 2.34186C67.9405 1.66264 68.2243 1.08295 68.2995 1.05368C68.3747 1.0244 68.4957 1.03856 68.5685 1.08513C68.6413 1.13171 68.9234 1.73418 69.1953 2.42395C69.4673 3.11372 69.6906 3.69131 69.6916 3.70748C69.6926 3.72365 69.5805 3.72365 69.4424 3.70748C69.2768 3.68809 69.1799 3.61482 69.1578 3.49225C69.1393 3.39005 69.0824 3.25416 69.0313 3.19028C68.9748 3.11964 68.7123 3.07414 68.3614 3.07414H67.7844L67.6786 3.39934C67.5952 3.65592 67.5244 3.72454 67.3434 3.72454ZM68.4113 2.70248H68.8665L68.677 2.21468C68.5728 1.94639 68.4704 1.70946 68.4494 1.68816C68.4285 1.66687 68.3941 1.66687 68.3732 1.68816C68.3522 1.70946 68.2498 1.94639 68.1456 2.21468L67.9561 2.70248H68.4113ZM74.5783 3.72454C74.4521 3.72454 74.3626 3.69227 74.3793 3.65284C74.3961 3.6134 74.6365 3.00747 74.9136 2.30633C75.3391 1.22929 75.4475 1.0314 75.6121 1.03077C75.7193 1.03036 75.8487 1.08228 75.8998 1.14616C75.9508 1.21004 76.0619 1.47136 76.1466 1.72688C76.2313 1.98239 76.3626 2.33779 76.4384 2.51665C76.5143 2.69551 76.6555 3.02067 76.7523 3.23922C76.8492 3.45778 76.9284 3.65916 76.9284 3.68674C76.9284 3.71432 76.8154 3.72365 76.6773 3.70748C76.5117 3.68809 76.4148 3.61482 76.3927 3.49225C76.3743 3.39005 76.3173 3.25416 76.2662 3.19028C76.2097 3.11964 75.9473 3.07414 75.5963 3.07414H75.0194L74.9136 3.39934C74.8301 3.65592 74.7594 3.72454 74.5783 3.72454ZM75.6425 2.70248H76.094L75.8994 2.21468C75.7923 1.94639 75.6916 1.70946 75.6755 1.68816C75.6594 1.66687 75.6291 1.66687 75.6081 1.68816C75.5871 1.70946 75.4847 1.94639 75.3805 2.21468L75.191 2.70248H75.6425ZM78.8516 3.72454C78.108 3.72454 77.9358 3.69892 77.9358 3.58832C77.9358 3.5134 78.0052 3.30434 78.0901 3.12375C78.175 2.94315 78.278 2.79539 78.319 2.79539C78.3601 2.79539 78.3937 2.75129 78.3937 2.69738C78.3937 2.64348 78.5585 2.35309 78.76 2.05208C78.9615 1.75107 79.1263 1.48159 79.1263 1.45323C79.1263 1.42488 78.8584 1.40168 78.531 1.40168C77.9968 1.40168 77.9358 1.38262 77.9358 1.21585C77.9358 1.04306 77.9968 1.03002 78.8058 1.03002C79.5486 1.03002 79.6758 1.05215 79.6758 1.18132C79.6758 1.26453 79.4079 1.76555 79.0805 2.29469C78.7531 2.82383 78.4852 3.27839 78.4852 3.30482C78.4852 3.33126 78.7737 3.35288 79.1263 3.35288C79.7063 3.35288 79.7674 3.37058 79.7674 3.53871C79.7674 3.71215 79.7063 3.72454 78.8516 3.72454ZM81.1869 3.72454H80.9579V2.37728V1.03002H81.1869H81.4159V2.37728V3.72454H81.1869ZM83.0185 3.72454H82.7896V2.37139V1.01825L83.0702 1.04736C83.3014 1.07135 83.3941 1.15826 83.5968 1.54105C83.7321 1.79656 83.8634 2.02653 83.8885 2.05208C83.9137 2.07763 84.033 2.28669 84.1535 2.51665C84.2741 2.74661 84.408 2.97449 84.4511 3.02304C84.4952 3.07262 84.5296 2.65522 84.5296 2.07066C84.5296 1.09196 84.5405 1.03002 84.7128 1.03002C84.8875 1.03002 84.8959 1.09196 84.8959 2.37728V3.72454H84.641C84.4131 3.72454 84.3254 3.6182 83.8172 2.72571L83.2484 1.72688L83.2479 2.72571L83.2474 3.72454H83.0185ZM21.5331 3.53659C21.3505 3.53543 21.0775 3.47228 20.9263 3.39626C20.7752 3.32024 20.5795 3.12965 20.4913 2.97273C20.3977 2.80612 20.3311 2.49473 20.3311 2.22427C20.3311 1.96954 20.3788 1.66979 20.437 1.55817C20.4953 1.44655 20.6499 1.2612 20.7805 1.14628C20.9796 0.971024 21.125 0.937313 21.6819 0.937218C22.2781 0.937116 22.3459 0.955506 22.3459 1.11745C22.3459 1.21664 22.3075 1.32185 22.2606 1.35125C22.2137 1.38065 22.1495 1.36221 22.1178 1.31028C22.0862 1.25834 21.8876 1.2159 21.6765 1.21596C21.3973 1.21604 21.2187 1.28062 21.0212 1.45294C20.7825 1.66116 20.7497 1.75054 20.7497 2.19219C20.7497 2.58847 20.7942 2.74259 20.9603 2.92195C21.0761 3.04701 21.306 3.17506 21.4713 3.20652C21.6366 3.23797 21.8391 3.23749 21.9214 3.20544C22.0285 3.16375 22.0711 3.03101 22.0711 2.739C22.0711 2.34741 22.0599 2.33082 21.7964 2.33082C21.6132 2.33082 21.5216 2.28436 21.5216 2.19145C21.5216 2.08615 21.6336 2.05208 21.9795 2.05208H22.4374V2.73732V3.42257L22.1512 3.48064C21.9938 3.51258 21.7157 3.53776 21.5331 3.53659ZM26.9707 3.53607C26.8196 3.53602 26.5938 3.4835 26.4688 3.41937C26.3439 3.35524 26.19 3.19906 26.1267 3.07231C26.0571 2.93272 26.0113 2.46632 26.0105 1.88948C26.0092 0.998591 26.0209 0.937105 26.1923 0.937105C26.3631 0.937105 26.3754 0.999048 26.3754 1.85596C26.3754 2.6043 26.4062 2.81336 26.5412 2.98254C26.6434 3.11053 26.8083 3.19028 26.9707 3.19028C27.1332 3.19028 27.298 3.11053 27.4002 2.98254C27.5352 2.81336 27.566 2.6043 27.566 1.85596C27.566 0.999048 27.5783 0.937105 27.7492 0.937105C27.9202 0.937105 27.9323 0.999048 27.9323 1.87544C27.9323 2.53484 27.8897 2.90497 27.7888 3.12057C27.7099 3.28931 27.5554 3.45185 27.4454 3.48177C27.3354 3.51169 27.1218 3.53613 26.9707 3.53607V3.53607ZM12.8814 3.4458H12.2719V2.19145V0.937105L12.9359 0.937216C13.499 0.937309 13.6375 0.9702 13.8479 1.15378C13.9911 1.27873 14.1435 1.5505 14.2084 1.7967C14.2999 2.14395 14.2974 2.29524 14.1946 2.61104C14.1213 2.8365 13.9476 3.09246 13.7797 3.22235C13.5416 3.40661 13.3841 3.4458 12.8814 3.4458ZM12.9384 3.16705C13.1035 3.16705 13.3304 3.1018 13.4426 3.02204C13.5548 2.94228 13.7119 2.74905 13.7916 2.59264C13.8888 2.4019 13.9169 2.20154 13.8767 1.98424C13.8437 1.80604 13.7104 1.56025 13.5804 1.43804C13.4162 1.28363 13.2365 1.21585 12.9912 1.21585H12.6382V2.19145V3.16705H12.9384ZM15.3857 3.4458C15.2116 3.4458 15.2025 3.38385 15.2025 2.19145C15.2025 0.999048 15.2116 0.937105 15.3857 0.937105C15.5598 0.937105 15.5688 0.999048 15.5688 2.19145C15.5688 3.38385 15.5598 3.4458 15.3857 3.4458ZM17.2173 3.4458H16.4846V2.19145V0.937105H17.1715C17.721 0.937105 17.8584 0.964979 17.8584 1.07648C17.8584 1.18178 17.7464 1.21585 17.4005 1.21585H16.9426V1.63396V2.05208H17.4005C17.7464 2.05208 17.8584 2.08615 17.8584 2.19145C17.8584 2.29675 17.7464 2.33082 17.4005 2.33082H16.9426V2.74894V3.16705H17.4463C17.8329 3.16705 17.95 3.19943 17.95 3.30642C17.95 3.4187 17.8075 3.4458 17.2173 3.4458ZM23.7196 3.4458C23.5455 3.4458 23.5364 3.38385 23.5364 2.19145V0.937105H24.1252C24.5383 0.937105 24.7568 0.980661 24.8578 1.08311C24.937 1.16342 25.0017 1.37248 25.0017 1.54769C25.0017 1.7324 24.9324 1.93457 24.8368 2.02885C24.678 2.18537 24.6793 2.2071 24.8723 2.60957C24.9825 2.83953 25.1018 3.12518 25.1374 3.24434C25.193 3.43091 25.1735 3.45671 24.9967 3.43017C24.8838 3.41321 24.7613 3.33662 24.7243 3.25997C24.6874 3.18331 24.5784 2.95335 24.482 2.74894C24.3684 2.50795 24.2358 2.36684 24.1048 2.34759C23.9154 2.31976 23.9027 2.3533 23.9027 2.88185C23.9027 3.38385 23.8826 3.4458 23.7196 3.4458ZM24.0655 2.05208C24.1551 2.05208 24.3199 1.98699 24.4319 1.90744C24.5438 1.82789 24.6354 1.68991 24.6354 1.60082C24.6354 1.51173 24.5859 1.38867 24.5255 1.32735C24.4651 1.26602 24.3002 1.21585 24.1592 1.21585C23.9163 1.21585 23.9027 1.23797 23.9027 1.63396C23.9027 1.97269 23.9336 2.05208 24.0655 2.05208ZM29.1229 3.4458C28.9488 3.4458 28.9397 3.38385 28.9397 2.19145V0.937105H29.2145C29.3656 0.937105 29.4892 0.971796 29.4892 1.0142C29.4892 1.0566 29.7056 1.46286 29.97 1.917L30.4508 2.74271L30.477 1.83991C30.501 1.01362 30.5185 0.937105 30.6831 0.937105C30.8529 0.937105 30.8629 1.00676 30.8629 2.19145V3.4458H30.6452C30.5254 3.4458 30.3871 3.39353 30.3378 3.32965C30.2886 3.26577 30.125 2.98355 29.9745 2.70248C29.8239 2.42141 29.612 2.04511 29.5037 1.86625L29.3067 1.54105L29.3064 2.49342C29.3061 3.38374 29.2941 3.4458 29.1229 3.4458ZM32.4244 3.4458H31.8703V2.19145V0.937105H32.5505C33.2244 0.937105 33.2333 0.940308 33.5121 1.28348C33.7483 1.57413 33.7935 1.70939 33.7935 2.12432C33.7935 2.39628 33.731 2.74144 33.6546 2.89135C33.5782 3.04126 33.3948 3.22733 33.247 3.30485C33.0938 3.38527 32.7405 3.4458 32.4244 3.4458ZM32.4613 3.16705C32.5848 3.16705 32.7889 3.11945 32.9148 3.06126C33.0406 3.00308 33.2119 2.80942 33.2954 2.6309C33.3943 2.41951 33.4289 2.1891 33.3945 1.97015C33.3636 1.77265 33.244 1.54772 33.1047 1.42491C32.9575 1.29514 32.7479 1.21585 32.5521 1.21585H32.2366V2.19145C32.2366 3.16516 32.2371 3.16705 32.4613 3.16705ZM35.4878 3.4458H34.8009V2.19145V0.937105H35.4878C36.0373 0.937105 36.1746 0.964979 36.1746 1.07648C36.1746 1.18347 36.0576 1.21585 35.671 1.21585H35.1673V1.63396V2.05208H35.6252C35.9711 2.05208 36.0831 2.08615 36.0831 2.19145C36.0831 2.29675 35.9711 2.33082 35.6252 2.33082H35.1673V2.74894V3.16705H35.671C36.0576 3.16705 36.1746 3.19943 36.1746 3.30642C36.1746 3.41792 36.0373 3.4458 35.4878 3.4458ZM37.3194 3.4458C37.2041 3.4458 37.182 3.24448 37.182 2.19145V0.937105H37.7721C38.2781 0.937105 38.3825 0.966545 38.5048 1.14361C38.5832 1.25718 38.6473 1.45976 38.6473 1.59378C38.6473 1.7278 38.5682 1.91013 38.4714 1.99896C38.2986 2.15767 38.3002 2.17097 38.563 2.76534C38.7101 3.09802 38.8305 3.38721 38.8305 3.408C38.8305 3.42879 38.7342 3.4458 38.6165 3.4458C38.4424 3.4458 38.3584 3.34196 38.1655 2.88831C37.9636 2.41356 37.8934 2.33082 37.6926 2.33082C37.4654 2.33082 37.4568 2.35128 37.4568 2.88831C37.4568 3.32191 37.4263 3.4458 37.3194 3.4458ZM37.5899 2.05208C37.663 2.05208 37.8244 2.00517 37.9484 1.94784C38.0724 1.89051 38.1926 1.77101 38.2155 1.68229C38.2384 1.59357 38.2192 1.45233 38.1729 1.36842C38.1202 1.27291 37.9706 1.21585 37.7728 1.21585C37.4593 1.21585 37.4568 1.21921 37.4568 1.63396C37.4568 1.93766 37.4932 2.05208 37.5899 2.05208ZM42.0359 3.4458H41.3032V2.19145V0.937105H41.9901C42.5396 0.937105 42.6769 0.964979 42.6769 1.07648C42.6769 1.18178 42.565 1.21585 42.219 1.21585H41.7611V1.63396V2.05208H42.219C42.565 2.05208 42.6769 2.08615 42.6769 2.19145C42.6769 2.29675 42.565 2.33082 42.219 2.33082H41.7611V2.74894V3.16705H42.2648C42.6515 3.16705 42.7685 3.19943 42.7685 3.30642C42.7685 3.4187 42.626 3.4458 42.0359 3.4458ZM44.3712 3.4458H43.6843V2.19145C43.6843 0.999048 43.6934 0.937105 43.8675 0.937105C44.0405 0.937105 44.0506 0.999048 44.0506 2.05208V3.16705H44.5543C44.941 3.16705 45.058 3.19943 45.058 3.30642C45.058 3.41792 44.9207 3.4458 44.3712 3.4458ZM46.0196 3.4458H45.7907V2.19145V0.937105H46.0196H46.2486V2.19145V3.4458H46.0196ZM47.8513 3.4458H47.6223V2.33082V1.21585H47.256C46.9914 1.21585 46.8897 1.17713 46.8897 1.07648C46.8897 0.961882 47.0525 0.937105 47.8055 0.937105C48.5585 0.937105 48.7213 0.961882 48.7213 1.07648C48.7213 1.17382 48.6246 1.21585 48.4008 1.21585H48.0802V2.33082V3.4458H47.8513ZM50.1408 3.4458H49.4539V2.19145V0.937105H50.1408C50.6903 0.937105 50.8277 0.964979 50.8277 1.07648C50.8277 1.18347 50.7106 1.21585 50.324 1.21585H49.8203V1.63396V2.05208H50.2782C50.6242 2.05208 50.7361 2.08615 50.7361 2.19145C50.7361 2.29675 50.6242 2.33082 50.2782 2.33082H49.8203V2.74894V3.16705H50.324C50.7106 3.16705 50.8277 3.19943 50.8277 3.30642C50.8277 3.41792 50.6903 3.4458 50.1408 3.4458ZM39.9753 2.60957C39.5886 2.60957 39.4716 2.57719 39.4716 2.47019C39.4716 2.3632 39.5886 2.33082 39.9753 2.33082C40.3619 2.33082 40.479 2.3632 40.479 2.47019C40.479 2.57719 40.3619 2.60957 39.9753 2.60957ZM26.696 0.658361C26.5535 0.658361 26.467 0.60571 26.467 0.518989C26.467 0.432269 26.5535 0.379618 26.696 0.379618C26.8384 0.379618 26.9249 0.432269 26.9249 0.518989C26.9249 0.60571 26.8384 0.658361 26.696 0.658361ZM27.2913 0.658361C27.1895 0.658361 27.1081 0.596418 27.1081 0.518989C27.1081 0.441561 27.1895 0.379618 27.2913 0.379618C27.393 0.379618 27.4744 0.441561 27.4744 0.518989C27.4744 0.596418 27.393 0.658361 27.2913 0.658361Z" fill="#949494"/>
</svg>
