<svg width="211" height="34" viewBox="0 0 211 34" fill="none" xmlns="http://www.w3.org/2000/svg">
<path d="M17.2416 18.6803L7.47677 28.0205L6.54297 27.1273L16.3059 17.7871L17.2416 18.6803Z" fill="#949494"/>
<path d="M18.2593 6.62935L16.1643 8.63324L15.2305 7.74005L17.3255 5.73438L18.2593 6.62935Z" fill="#949494"/>
<path d="M29.8857 1.05335L7.26388 22.6915L6.33008 21.7983L28.9519 0.160156L29.8857 1.05335Z" fill="#949494"/>
<path d="M18.2134 1.08655L13.2443 5.83956L12.3105 4.94636L17.2796 0.193359L18.2134 1.08655Z" fill="#949494"/>
<path d="M35.7128 12.184L27.795 19.7575L26.8594 18.8643L34.779 11.2891L35.7128 12.184Z" fill="#949494"/>
<path d="M35.7138 17.7701L33.4455 19.9381L32.5117 19.0449L34.7801 16.877L35.7138 17.7701Z" fill="#949494"/>
<path d="M24.0838 1.05726L19.1408 5.7853L18.207 4.89211L23.15 0.164062L24.0838 1.05726Z" fill="#949494"/>
<path d="M1.87911 33.3762L6.5537 28.9049L5.6199 28.0117L0.945312 32.483L1.87911 33.3762Z" fill="#949494"/>
<path d="M35.7249 1.00257L18.1057 17.8556L17.1719 16.9624L34.7911 0.109375L35.7249 1.00257Z" fill="#949494"/>
<path d="M35.7006 6.61194L29.7697 12.2849L28.8359 11.3917L34.7649 5.71875L35.7006 6.61194Z" fill="#949494"/>
<path d="M18.1212 23.4258L28.9205 13.0944L27.9867 12.2012L17.1855 22.5326L18.1212 23.4258Z" fill="#949494"/>
<path d="M30.715 22.5513L32.6162 20.7311L31.6824 19.8379L29.7812 21.6564L30.715 22.5513Z" fill="#949494"/>
<path d="M59.8577 9.51579C58.2939 8.15372 56.4729 7.55469 54.0238 7.55469C49.4722 7.55469 45.9961 10.8814 45.9961 15.2208C45.9961 19.7955 49.3101 22.9208 54.1393 22.9208C56.4505 22.9208 58.2007 22.4305 59.9733 21.2681V14.85H54.0928L53.8598 16.9038H57.1737V20.0291C56.2418 20.5194 55.7497 20.6085 54.3779 20.6085C53.143 20.5677 51.9553 20.1448 50.9931 19.4033C49.8748 18.4656 49.1032 16.8147 49.1032 15.3028C49.1032 13.791 49.4293 12.6678 50.1768 11.7532C50.6503 11.1914 51.2518 10.7404 51.9353 10.4349C52.6188 10.1293 53.3663 9.97713 54.1207 9.99002C55.6206 9.9788 57.0671 10.5224 58.1579 11.5072L59.8614 9.52114L59.8577 9.51579ZM66.3682 22.5518H69.2143V16.9484H71.4007L75.1806 22.5518H78.5188L74.0138 16.1229C74.4449 15.9704 74.8471 15.7518 75.2048 15.4758C75.7062 15.0894 76.111 14.6007 76.3896 14.0455C76.6682 13.4903 76.8136 12.8825 76.8152 12.2667C76.8152 9.34286 74.5972 7.75793 70.5135 7.75793C69.1284 7.75083 67.7441 7.82347 66.3682 7.97543V22.5518ZM69.2143 9.91514C69.9375 9.89375 70.0084 9.89375 70.3327 9.89375H70.7054C72.7818 9.89375 73.9952 10.8529 73.9952 12.4824C73.9952 13.7553 72.9682 14.9784 71.9449 14.9784H69.2143V9.91514ZM94.0448 7.90769V16.6899C94.0448 17.9378 93.8808 18.7437 93.4857 19.3017C92.8799 20.1931 91.8529 20.596 90.2183 20.596C89.2621 20.596 88.3283 20.3286 87.745 19.9043C86.9286 19.2785 86.6266 18.4085 86.6266 16.6952V7.90769H83.7768V16.7023C83.7768 18.4852 84.0806 19.7331 84.7572 20.6246C85.8308 22.0972 87.8139 22.878 90.4979 22.878C92.2015 22.878 93.9516 22.3646 95.001 21.5623C96.3318 20.5354 96.891 19.1074 96.891 16.6952V7.90769H94.0448ZM103.355 8.13232V22.5518H105.964V12.568L115.369 22.7693L117.026 22.3218V7.90769H114.417V17.797L105.081 7.66344L103.355 8.13232ZM123.494 22.4626C124.607 22.5902 125.728 22.6569 126.849 22.6623H128.154C129.154 22.6398 130.151 22.5426 131.136 22.3717C132.28 22.1489 133.168 21.8369 133.891 21.368C135.827 20.1628 137.111 17.8416 137.111 15.5203C137.111 12.0599 135.359 9.51579 132.303 8.48889C130.952 8.03975 129.533 7.80606 128.103 7.79715C126.561 7.78174 125.019 7.84124 123.483 7.97543V22.4626H123.494ZM126.34 10.0506C126.472 10.037 126.605 10.0299 126.737 10.0292H127.274C127.632 10.0139 127.991 10.021 128.348 10.0506C129.352 10.1023 130.335 10.3447 131.24 10.7638C132.944 11.5678 134.088 13.4202 134.088 15.3617C134.088 16.7879 133.715 17.9289 132.944 18.8435C132.034 19.9132 130.47 20.4962 128.487 20.4962C127.252 20.4962 127.227 20.4962 126.34 20.3625V10.0506ZM145.911 10.1398H151.886V7.90769H143.119V22.5518H152.624L152.951 20.2965H145.918V16.0177H151.361V13.8463H145.918V10.1398H145.911ZM158.585 22.5518H161.431V16.9484H163.625L167.405 22.5518H170.745L166.24 16.1229C166.671 15.9704 167.073 15.7518 167.431 15.4758C167.932 15.0894 168.337 14.6007 168.616 14.0455C168.894 13.4903 169.04 12.8825 169.041 12.2667C169.041 9.34286 166.823 7.75793 162.74 7.75793C161.352 7.75232 159.965 7.82674 158.587 7.98078V22.5571L158.585 22.5518ZM161.437 9.91514C162.16 9.89375 162.231 9.89375 162.555 9.89375H162.928C165.004 9.89375 166.218 10.8529 166.218 12.4824C166.218 13.7553 165.191 14.9784 164.167 14.9784H161.437V9.91514Z" fill="#949494"/>
<path d="M86.623 3.96289V6.72448H89.5102V3.96289H86.623Z" fill="#949494"/>
<path d="M91.1426 3.96289V6.72448H94.0297V3.96289H91.1426Z" fill="#949494"/>
<path d="M175.379 19.793H178.249V22.5403H175.379V19.793Z" fill="#949494"/>
<path d="M203.452 21.5872V15.2439H209.343V14.3275H203.452V8.79901H210.123V7.88086H202.402V22.525H210.81L211 21.5872H203.452Z" fill="#949494"/>
<path d="M193.615 9.62222C192.042 8.34394 189.915 7.77344 186.719 7.77344C186.273 7.77344 185.425 7.81444 184.776 7.88397L184.538 7.90893C184.381 7.92498 184.191 7.94281 183.979 7.97133L183.861 7.98559V22.3944L183.979 22.4104C185.038 22.5757 186.11 22.6491 187.183 22.6297C189.434 22.6297 191.552 22.1715 192.849 21.4049C194.991 20.1213 196.122 17.9605 196.122 15.165C196.122 13.0256 195.164 10.9005 193.622 9.62579L193.615 9.62222ZM195.043 15.1614C195.043 17.1386 194.454 18.6736 193.246 19.8503C191.973 21.1107 190.051 21.6973 187.2 21.6973C186.433 21.7048 185.667 21.6517 184.909 21.5386V8.78608C185.481 8.72345 186.056 8.69131 186.631 8.68981C190.083 8.68981 192.336 9.50991 193.714 11.2696C194.569 12.4029 195.032 13.7637 195.039 15.1614H195.043Z" fill="#949494"/>
</svg>
