<svg width="123" height="40" viewBox="0 0 123 40" fill="none" xmlns="http://www.w3.org/2000/svg">
<path d="M17.4105 17.3682C17.4105 14.5835 17.3852 13.0501 17.3323 11.4855C17.3071 10.2654 17.1761 7.19847 17.1025 6.72954C17.0575 6.40193 16.8946 6.10011 16.6425 5.87701C16.3903 5.65392 16.065 5.52378 15.7236 5.50943H14.8962C14.7675 5.50943 14.7399 5.41609 14.7399 5.22719V4.4449C14.7399 4.28933 14.7652 4.22266 14.9697 4.22266C15.2547 4.22266 16.0821 4.316 17.9988 4.316C19.5525 4.316 20.173 4.22266 20.458 4.22266C20.6878 4.22266 20.7177 4.28488 20.7177 4.47379V5.22496C20.7177 5.38053 20.6924 5.50721 20.589 5.50721H19.8696C19.4283 5.50721 19.1801 6.03837 19.0928 7.16513C18.9112 9.26087 18.4975 16.3326 18.4975 20.464V25.8156C18.4975 26.2845 18.4723 26.849 18.1091 26.849C17.9121 26.8488 17.7178 26.8034 17.5424 26.7164C17.367 26.6295 17.2155 26.5036 17.1002 26.349C16.6589 25.849 15.3926 24.191 13.839 21.9686L9.40334 15.6147C8.96208 14.988 5.39058 9.61423 4.80683 8.57414H4.59998V14.8902C4.59998 17.4882 4.82981 21.3352 4.85969 22.5242C4.91255 24.3399 5.37679 25.2778 6.46847 25.2778H7.10508C7.28665 25.2778 7.31193 25.3711 7.31193 25.56V26.3112C7.31193 26.4979 7.28665 26.5623 7.10508 26.5623C6.84538 26.5623 5.29406 26.469 4.07598 26.469C3.27389 26.469 1.48814 26.5623 1.22844 26.5623C1.12502 26.5623 1.09974 26.5001 1.09974 26.2801V25.4667C1.09974 25.3734 1.12502 25.28 1.25602 25.28H2.16383C2.7338 25.28 3.14748 24.2777 3.27619 22.182C3.30147 21.5864 3.50601 16.5815 3.50601 11.9589V9.13863C3.50601 7.29181 2.57292 5.54055 1.279 5.50943L0.630891 5.47832C0.502188 5.47832 0.474609 5.35386 0.474609 5.25608V4.41378C0.474609 4.28933 0.49989 4.2271 0.630891 4.2271C0.761892 4.2271 0.966437 4.25821 1.45826 4.25821C1.95009 4.25821 2.80504 4.32044 4.14952 4.32044C5.02976 4.32044 5.80657 4.25821 6.11683 4.25821C6.26984 4.25273 6.42148 4.28796 6.55521 4.36007C6.68894 4.43217 6.79965 4.53839 6.87526 4.66714L12.8806 13.5568L17.3071 20.224H17.4105V17.3682Z" fill="#949494"/>
<path d="M28.8017 14.4888C29.9922 14.4888 31.1321 14.3955 31.4424 14.3021C31.8836 14.1777 32.2445 13.8954 32.6329 13.3332C32.9774 12.7371 33.1807 12.0744 33.2281 11.393C33.2281 11.1708 33.3063 11.1108 33.435 11.1108L34.1244 11.2041C34.2531 11.2352 34.3543 11.2663 34.3313 11.4552C34.2531 11.9864 34.2531 13.6132 34.2531 14.7088C34.2531 16.1179 34.3566 17.618 34.4094 18.2758C34.4347 18.4625 34.3313 18.4981 34.2026 18.527L33.5821 18.6825C33.4786 18.7136 33.4258 18.6514 33.3752 18.4314C33.2452 17.8875 33.0723 17.3541 32.8581 16.8357C32.7207 16.5615 32.5212 16.3207 32.2746 16.131C32.028 15.9414 31.7404 15.8078 31.4332 15.74C30.5637 15.601 29.6828 15.54 28.8017 15.5578V17.4357C28.8017 19.1248 28.9304 22.1606 28.9304 22.7229C28.9304 24.3497 29.2154 24.9142 29.5509 25.1008C29.9393 25.2875 30.4311 25.3831 31.7251 25.3831C32.1663 25.3831 33.2534 25.352 33.7935 25.2898C34.5462 25.1563 35.2353 24.7943 35.7608 24.2563C36.4342 23.5896 37.8844 21.6583 38.4015 20.9094C38.5049 20.7849 38.5831 20.7538 38.6612 20.816L39.1048 21.1138C39.1482 21.1389 39.1818 21.1771 39.2005 21.2225C39.2192 21.2679 39.2219 21.3179 39.2082 21.365L38.043 26.0898C38.0225 26.2213 37.9535 26.3412 37.8487 26.4274C37.744 26.5136 37.6105 26.5602 37.473 26.5588C37.3443 26.5588 36.7835 26.5276 35.1173 26.4965C33.4511 26.4654 30.6908 26.4654 26.2115 26.4654C25.2532 26.4654 24.5292 26.4965 24.0121 26.4965C23.495 26.4965 23.1319 26.5588 22.8997 26.5588C22.7182 26.5588 22.6699 26.4654 22.6699 26.2143V25.5476C22.6699 25.3609 22.7481 25.2653 22.9296 25.2653H23.7064C24.8969 25.2653 25.0004 25.0431 25.0004 23.9519V13.4887C25.0004 10.8907 24.9475 7.04375 24.9222 6.73039C24.8188 5.72808 24.5591 5.51028 23.8604 5.51028H22.8469C22.7435 5.51028 22.7182 5.41694 22.7182 5.19692V4.44575C22.7182 4.35241 22.7435 4.22351 22.8997 4.22351C23.4697 4.22351 24.3752 4.31685 26.7309 4.31685L35.8183 4.28574C36.2319 4.28574 36.7238 4.22351 36.8548 4.22351C36.9033 4.21899 36.9517 4.23258 36.9902 4.26151C37.0287 4.29044 37.0542 4.33251 37.0616 4.37908C37.165 4.82356 38.02 9.10393 38.1234 9.41729C38.1763 9.57285 38.1763 9.63953 38.0453 9.73065L37.6316 9.98178C37.5282 10.044 37.4018 10.0129 37.3213 9.85732C37.1926 9.60619 34.8622 6.79039 34.2669 6.35258C33.7222 5.94588 32.9983 5.53918 32.2996 5.50806L28.8821 5.38361L28.8017 14.4888Z" fill="#949494"/>
<path d="M47.648 5.75861H46.7425C45.9152 5.75861 44.3615 5.78973 43.2745 6.25866C42.7045 6.7587 41.5669 8.66775 40.9187 9.79452C40.8406 9.95008 40.7625 10.0456 40.659 10.0168L40.0891 9.76562C39.9857 9.73451 39.9604 9.57894 39.9857 9.48338C40.2706 8.16993 41.1348 4.03847 41.229 3.41397C41.3071 3.00727 41.4358 2.88281 41.6174 2.88281C41.799 2.88281 41.8771 3.00727 42.1092 3.35174C42.3942 3.79622 42.8861 4.0718 43.8168 4.13403C45.1958 4.22737 46.276 4.32071 48.9695 4.32071H50.4703C53.2926 4.32071 54.4049 4.19626 55.492 4.13403C56.062 4.10292 57.0709 3.72733 57.3812 3.35174C57.6409 3.03838 57.7948 2.88281 57.9764 2.88281C58.158 2.88281 58.2361 3.00727 58.2867 3.38286L59.0635 9.60561C59.0791 9.6572 59.0776 9.71224 59.059 9.76291C59.0404 9.81359 59.0058 9.85731 58.9601 9.88786L58.4154 10.139C58.312 10.1701 58.2591 10.0768 58.1557 9.85674C57.5857 8.72998 56.5768 7.10317 55.9287 6.352C55.2806 5.88307 52.9777 5.75639 52.3825 5.75639H51.5298V14.3638C51.5298 14.8083 51.5298 23.5624 51.5551 24.0313C51.6079 24.8136 51.8148 25.2825 52.4353 25.2825H53.6005C53.8304 25.2825 53.8602 25.3758 53.8602 25.5959V26.3159C53.8602 26.4715 53.8349 26.5671 53.6005 26.5671C53.3661 26.5671 52.5135 26.4737 49.6406 26.4737C46.8965 26.4737 45.8094 26.5671 45.4463 26.5671C45.2395 26.5671 45.2165 26.4426 45.2165 26.1915V25.5959C45.2165 25.3736 45.2418 25.2825 45.398 25.2825H46.7172C47.2344 25.2825 47.5446 24.9069 47.5975 24.3446C47.6503 23.6779 47.6503 14.0815 47.6503 13.4859L47.648 5.75861Z" fill="#949494"/>
<path d="M63.541 24.0644C61.6243 21.9998 60.7188 18.4017 60.7188 15.7104C60.7188 12.4879 61.5737 9.5765 63.3847 7.23185C64.8602 5.3228 67.0091 3.85156 70.2197 3.85156C72.5755 3.85156 74.5175 4.57162 75.423 5.16501C75.7861 5.38725 75.9148 5.35169 75.9677 5.13389L76.1745 4.35161C76.2251 4.16492 76.278 4.16492 76.6664 4.16492C77.0548 4.16492 77.1053 4.22271 77.1053 4.66719C77.1053 5.26279 77.565 10.581 77.7006 11.5189C77.7259 11.7411 77.7006 11.8945 77.5719 11.9256L77.0019 12.1123C76.8732 12.1745 76.7721 12.05 76.6916 11.7678C76.3193 10.2433 75.6141 8.81337 74.6232 7.5741C73.5063 6.25844 72.1434 5.22724 70.1669 5.22724C66.3977 5.22724 64.789 9.38759 64.8096 14.0191C64.8096 15.9904 65.2693 19.8396 67.1079 22.1865C68.7902 24.2822 70.2657 24.5333 71.1459 24.5333C74.0969 24.5333 76.2986 22.9065 77.2547 21.1864C77.3834 20.9352 77.5144 20.8108 77.6431 20.9352L78.0844 21.4042C78.1625 21.4664 78.1878 21.5909 78.0844 21.7798C76.5836 24.4089 74.0716 26.9424 70.422 26.9424C66.9838 26.9424 65.1728 25.8157 63.541 24.0644Z" fill="#949494"/>
<path d="M83.8372 24.9072C81.9986 23.5627 80.0313 20.1824 80.0313 15.6131C80.0286 12.8439 80.8661 10.1348 82.4398 7.82133C84.7174 4.47438 87.6431 3.84766 89.9735 3.84766C92.1224 3.84766 94.1104 4.25436 96.2891 6.31898C98.2564 8.19692 99.8353 11.3572 99.8353 15.6753C99.8362 18.0884 99.162 20.4567 97.8841 22.5293C96.2018 25.0628 94.0001 26.9407 89.9115 26.9407C87.7099 26.9307 85.5739 26.2156 83.8372 24.9072ZM95.772 15.9265C95.772 9.07477 92.0442 5.31889 89.8701 5.31889C89.353 5.31889 88.0591 5.16332 86.4779 7.00793C84.9495 8.75919 84.1796 12.0461 84.1796 14.6108C84.1796 22.6115 87.9855 25.4673 90.1344 25.4673C94.9171 25.4695 95.772 18.4911 95.772 15.9265Z" fill="#949494"/>
<path d="M106.904 24.9072C105.065 23.5627 103.098 20.1824 103.098 15.6131C103.095 12.844 103.933 10.1349 105.506 7.82133C107.784 4.47438 110.709 3.84766 113.04 3.84766C115.189 3.84766 117.177 4.25436 119.356 6.31898C121.323 8.19692 122.902 11.3572 122.902 15.6753C122.905 18.0868 122.234 20.4542 120.96 22.527C119.277 25.0606 117.076 26.9385 112.987 26.9385C110.783 26.931 108.643 26.2166 106.904 24.9072ZM118.838 15.9265C118.838 9.07477 115.111 5.31889 112.937 5.31889C112.419 5.31889 111.125 5.16332 109.544 7.00793C108.016 8.75919 107.246 12.0461 107.246 14.6108C107.246 22.6115 111.052 25.4673 113.201 25.4673C117.983 25.4695 118.838 18.4911 118.838 15.9265Z" fill="#949494"/>
<path d="M1.41992 29.9004H2.87702L6.18421 35.7276H6.20489V29.9004H7.27818V37.1366H5.89923L2.507 31.1872H2.49321V37.1366H1.41992V29.9004Z" fill="#949494"/>
<path d="M13.2234 36.9182L12.9131 37.0271C12.8059 37.0657 12.6864 37.102 12.5546 37.136C12.4033 37.1745 12.2498 37.2042 12.0949 37.2249C11.8976 37.2502 11.6987 37.2621 11.4997 37.2605C11.0701 37.2702 10.6425 37.2001 10.2402 37.0538C9.90473 36.9283 9.60356 36.7298 9.36001 36.4738C9.12098 36.2132 8.94371 35.9052 8.84061 35.5715C8.7219 35.1918 8.66377 34.7969 8.66824 34.4003C8.66338 34.0335 8.72482 33.6687 8.8498 33.3224C8.96335 33.0104 9.13991 32.7233 9.3692 32.4779C9.59464 32.2388 9.87052 32.0493 10.1782 31.9223C10.5106 31.7873 10.8681 31.72 11.2285 31.7245C11.6243 31.7097 12.0181 31.7858 12.3776 31.9467C12.6757 32.0909 12.9305 32.3067 13.1177 32.5734C13.3131 32.8621 13.4496 33.1842 13.5199 33.5224C13.6047 33.9111 13.6463 34.3075 13.644 34.7047H9.73693C9.73354 34.9504 9.78284 35.194 9.88172 35.4203C9.97436 35.6295 10.1096 35.8184 10.2793 35.9759C10.447 36.1309 10.6435 36.2539 10.8585 36.3382C11.0771 36.4252 11.3115 36.469 11.548 36.4671C11.7197 36.4662 11.8908 36.4468 12.0582 36.4093C12.2254 36.3734 12.3904 36.3281 12.5523 36.2737C12.6925 36.2275 12.8285 36.1702 12.9591 36.1026C13.0546 36.054 13.146 35.9983 13.2326 35.9359L13.2234 36.9182ZM12.5684 33.9847C12.5693 33.7908 12.5383 33.598 12.4764 33.4135C12.4202 33.242 12.3314 33.0823 12.2144 32.9424C12.0982 32.8066 11.9511 32.6986 11.7847 32.6268C11.6024 32.549 11.4048 32.5103 11.2055 32.5134C10.9843 32.5072 10.7648 32.5537 10.5666 32.649C10.3973 32.7343 10.2479 32.8523 10.1276 32.9957C10.0108 33.1364 9.92054 33.2958 9.86103 33.4668C9.80111 33.6348 9.75952 33.8083 9.73693 33.9847H12.5684Z" fill="#949494"/>
<path d="M16.1731 34.3698L14.3942 31.8496H15.6491L16.8396 33.7364L18.0508 31.8496H19.1769L17.4187 34.3698L19.3493 37.139H18.1036L16.7568 35.0632L15.4009 37.1367H14.2012L16.1731 34.3698Z" fill="#949494"/>
<path d="M23.175 32.6391H21.7271V35.5282C21.7176 35.6561 21.7351 35.7845 21.7786 35.9056C21.8221 36.0268 21.8906 36.138 21.9799 36.2327C22.0575 36.309 22.1502 36.3694 22.2525 36.4103C22.3548 36.4512 22.4645 36.4716 22.5752 36.4705C22.7117 36.4734 22.8477 36.4539 22.9774 36.4128C23.0771 36.3803 23.1727 36.337 23.2624 36.2839V37.115C23.1475 37.1491 23.0172 37.1817 22.8717 37.2128C22.7206 37.2441 22.5665 37.2598 22.412 37.2595C21.9653 37.2867 21.5236 37.1564 21.1687 36.8928C20.8622 36.6468 20.709 36.2579 20.709 35.726V32.6369H19.4863V31.8479H20.7182V30.6256L21.7248 30.3145V31.8479H23.1727L23.175 32.6391Z" fill="#949494"/>
<path d="M27.4727 29.9004H31.6647V30.8116H28.5459V32.9273H31.3866V33.8385H28.5459V36.2254H31.667V37.1366H27.4727V29.9004Z" fill="#949494"/>
<path d="M36.7053 32.7418C36.5217 32.6686 36.3317 32.6113 36.1376 32.5707C35.9647 32.5338 35.7883 32.5144 35.6113 32.5129C35.3527 32.5087 35.0971 32.5659 34.8667 32.6795C34.6519 32.7875 34.4637 32.9392 34.3151 33.124C34.1627 33.3153 34.0468 33.5313 33.9727 33.7619C33.8945 33.9982 33.855 34.2449 33.8555 34.493C33.8557 34.7312 33.8897 34.9683 33.9566 35.1975C34.0219 35.4277 34.131 35.644 34.2783 35.8354C34.4287 36.0293 34.6228 36.1874 34.846 36.2976C35.1044 36.4208 35.39 36.481 35.678 36.4732C35.8646 36.471 36.0501 36.4449 36.2296 36.3954C36.4171 36.3476 36.5961 36.2727 36.7604 36.1732L36.8363 37.0444C36.6325 37.1403 36.4134 37.2019 36.1882 37.2266C35.9837 37.2493 35.7781 37.2612 35.5722 37.2622C35.1833 37.266 34.798 37.1903 34.4415 37.0399C34.1084 36.9024 33.8075 36.7014 33.5567 36.4488C33.3069 36.1916 33.1117 35.8896 32.9821 35.5598C32.8446 35.2177 32.7752 34.8534 32.7776 34.4864C32.7729 34.1074 32.8399 33.7308 32.9752 33.3752C33.0997 33.0484 33.293 32.7503 33.5429 32.4995C33.793 32.252 34.0924 32.0562 34.4231 31.9239C34.7878 31.7808 35.1787 31.7105 35.5722 31.7172C35.7936 31.7186 36.0144 31.7394 36.2319 31.7795C36.4239 31.8102 36.6124 31.8585 36.7949 31.9239L36.7053 32.7418Z" fill="#949494"/>
<path d="M37.5823 34.4941C37.5776 34.1152 37.6446 33.7386 37.7799 33.3829C37.9044 33.0562 38.0977 32.758 38.3476 32.5073C38.5976 32.2597 38.8971 32.0639 39.2278 31.9317C39.9602 31.6556 40.773 31.6556 41.5054 31.9317C41.837 32.0622 42.1368 32.2583 42.3856 32.5073C42.6328 32.7592 42.8244 33.0571 42.9487 33.3829C43.084 33.7386 43.151 34.1152 43.1463 34.4941C43.1486 34.8612 43.0792 35.2254 42.9418 35.5676C42.813 35.8962 42.6203 36.198 42.3741 36.4565C42.1264 36.7117 41.8267 36.9145 41.4939 37.0521C41.1362 37.1958 40.7527 37.2698 40.3654 37.2698C39.9782 37.2698 39.5947 37.1958 39.237 37.0521C38.9052 36.9099 38.6066 36.7043 38.3591 36.4476C38.1094 36.1904 37.9142 35.8884 37.7845 35.5587C37.6489 35.2192 37.5803 34.8581 37.5823 34.4941ZM38.6532 34.4941C38.6535 34.7323 38.6875 34.9694 38.7544 35.1986C38.8188 35.427 38.9238 35.6429 39.0646 35.8365C39.2035 36.0271 39.385 36.1851 39.5955 36.2987C39.8327 36.4215 40.0989 36.482 40.3677 36.4743C40.6328 36.481 40.8951 36.4205 41.1285 36.2987C41.339 36.1851 41.5205 36.0271 41.6594 35.8365C41.8002 35.6428 41.9052 35.427 41.9696 35.1986C42.0364 34.9694 42.0705 34.7323 42.0708 34.4941C42.0711 34.246 42.0316 33.9993 41.9535 33.763C41.8797 33.534 41.767 33.3185 41.6203 33.1251C41.4785 32.9401 41.2955 32.7882 41.0848 32.6807C40.8611 32.5723 40.6144 32.5159 40.3643 32.5159C40.1142 32.5159 39.8675 32.5723 39.6438 32.6807C39.4344 32.7899 39.2517 32.9415 39.1083 33.1251C38.9587 33.3174 38.8444 33.5332 38.7705 33.763C38.6924 33.9993 38.6529 34.246 38.6532 34.4941Z" fill="#949494"/>
<path d="M44.4437 31.8492H45.4205V32.6892H45.4411C45.594 32.3824 45.8467 32.1326 46.1605 31.9781C46.4909 31.8085 46.8598 31.7214 47.2338 31.7247C47.9417 31.7247 48.4595 31.9255 48.7874 32.327C49.1153 32.7285 49.28 33.2848 49.2815 33.996V37.1363H48.2749V34.4005C48.3039 33.9254 48.2197 33.4502 48.029 33.0115C47.9377 32.855 47.8036 32.7258 47.6415 32.638C47.4794 32.5502 47.2954 32.5072 47.1097 32.5137C46.8517 32.5074 46.596 32.5624 46.365 32.6737C46.1569 32.7785 45.9786 32.9311 45.8456 33.1182C45.7014 33.3275 45.5992 33.5612 45.5446 33.8071C45.4774 34.0989 45.445 34.3972 45.448 34.6961V37.1407H44.4414L44.4437 31.8492Z" fill="#949494"/>
<path d="M50.5784 34.4941C50.5737 34.1152 50.6407 33.7386 50.776 33.3829C50.9005 33.0562 51.0938 32.758 51.3437 32.5073C51.5937 32.2597 51.8932 32.0639 52.2239 31.9317C52.9562 31.6556 53.7691 31.6556 54.5015 31.9317C54.8331 32.0622 55.1329 32.2583 55.3817 32.5073C55.6289 32.7592 55.8205 33.0571 55.9448 33.3829C56.0801 33.7386 56.1471 34.1152 56.1424 34.4941C56.1447 34.8612 56.0753 35.2254 55.9379 35.5676C55.8091 35.8962 55.6164 36.198 55.3702 36.4565C55.1225 36.7117 54.8228 36.9145 54.49 37.0521C54.1323 37.1958 53.7488 37.2698 53.3615 37.2698C52.9742 37.2698 52.5908 37.1958 52.2331 37.0521C51.9013 36.9128 51.6019 36.7103 51.3529 36.4565C51.1032 36.1993 50.908 35.8973 50.7783 35.5676C50.6423 35.2251 50.5745 34.8609 50.5784 34.4941ZM51.6493 34.4941C51.6496 34.7323 51.6836 34.9694 51.7505 35.1986C51.8149 35.427 51.9199 35.6429 52.0607 35.8365C52.1996 36.0271 52.3811 36.1851 52.5916 36.2987C52.8288 36.4215 53.095 36.482 53.3638 36.4743C53.6289 36.481 53.8912 36.4205 54.1246 36.2987C54.3351 36.1851 54.5166 36.0271 54.6555 35.8365C54.7963 35.6428 54.9013 35.427 54.9657 35.1986C55.0325 34.9694 55.0666 34.7323 55.0668 34.4941C55.0672 34.246 55.0277 33.9993 54.9496 33.763C54.8757 33.534 54.7631 33.3185 54.6164 33.1251C54.4746 32.9401 54.2916 32.7882 54.0809 32.6807C53.8572 32.5723 53.6105 32.5159 53.3604 32.5159C53.1102 32.5159 52.8635 32.5723 52.6399 32.6807C52.4305 32.7899 52.2478 32.9415 52.1044 33.1251C51.9547 33.3174 51.8405 33.5332 51.7666 33.763C51.6885 33.9993 51.6489 34.246 51.6493 34.4941Z" fill="#949494"/>
<path d="M57.4375 31.849H58.3821V32.6158H58.4028C58.5688 32.3299 58.8139 32.0944 59.1106 31.9357C59.43 31.7817 59.7835 31.7054 60.1403 31.7135C60.4593 31.7151 60.772 31.7995 61.0458 31.9579C61.3494 32.1377 61.5787 32.4144 61.6939 32.7402C61.7806 32.5613 61.9005 32.3993 62.0478 32.2624C62.1857 32.1359 62.3402 32.0275 62.5075 31.9402C62.6483 31.8684 62.7982 31.8146 62.9533 31.7801C63.0904 31.7482 63.2307 31.7311 63.3716 31.729C63.6746 31.7204 63.976 31.7734 64.2564 31.8846C64.4831 31.9792 64.6833 32.1247 64.8402 32.3091C64.9941 32.4972 65.1052 32.7145 65.1665 32.9469C65.2364 33.2097 65.2704 33.4801 65.2677 33.7514V37.1362H64.261V33.9848C64.2611 33.8145 64.2488 33.6444 64.2243 33.4758C64.2019 33.3124 64.153 33.1534 64.0795 33.0047C64.0099 32.8652 63.9066 32.744 63.7784 32.6513C63.6341 32.5533 63.4604 32.504 63.2843 32.5113C63.0525 32.505 62.8236 32.5629 62.6247 32.678C62.4416 32.7897 62.2887 32.9421 62.1788 33.1225C62.0596 33.3166 61.9742 33.5283 61.926 33.7492C61.872 33.9879 61.8451 34.2316 61.8456 34.4759V37.1428H60.8366V33.9848C60.8366 33.8145 60.8243 33.6445 60.7999 33.4758C60.7774 33.3124 60.7286 33.1534 60.6551 33.0047C60.5856 32.8652 60.4823 32.744 60.354 32.6513C60.2097 32.5533 60.036 32.504 59.8599 32.5113C59.6281 32.5049 59.3992 32.5627 59.2003 32.678C59.0171 32.7897 58.8643 32.9421 58.7544 33.1225C58.6353 33.3166 58.5499 33.5283 58.5016 33.7492C58.4476 33.9879 58.4206 34.2316 58.4212 34.4759V37.1428H57.4375V31.849Z" fill="#949494"/>
<path d="M66.5174 38.5682C66.5929 38.5916 66.6696 38.6109 66.7472 38.626C66.8303 38.6436 66.915 38.6526 67.0001 38.6527C67.2057 38.6583 67.4062 38.5902 67.5631 38.4616C67.7107 38.3403 67.8371 38.197 67.9377 38.0371C68.0267 37.8987 68.0955 37.7491 68.1423 37.5926C68.1692 37.5113 68.1892 37.4281 68.202 37.3437C68.1938 37.2561 68.1705 37.1705 68.1331 37.0903L68.009 36.7836L66.1543 31.8477H67.2598L68.7169 36.2258H68.7375L70.2383 31.8499H71.2564L69.2409 37.2503C69.1474 37.5052 69.047 37.763 68.9398 38.0237C68.8384 38.2725 68.7073 38.5089 68.5491 38.7282C68.3975 38.937 68.2016 39.112 67.9745 39.2416C67.7194 39.3798 67.4302 39.4482 67.138 39.4394C67.0049 39.4414 66.8719 39.4325 66.7403 39.4127L66.4508 39.3661L66.5174 38.5682Z" fill="#949494"/>
<path d="M75.2679 29.9004H77.0376L79.3841 35.9142L81.6824 29.9004H83.452V37.1366H82.381V30.876H82.3604L79.8874 37.1366H78.8371L76.3596 30.8738H76.3389V37.1366H75.2656L75.2679 29.9004Z" fill="#949494"/>
<path d="M85.4952 32.2245C85.7551 32.0751 86.032 31.955 86.3203 31.8667C86.6363 31.771 86.9659 31.7238 87.297 31.7267C88.083 31.7267 88.6461 31.9097 88.9862 32.2756C89.3264 32.6416 89.4964 33.1876 89.4964 33.9135V36.1004C89.4964 36.4041 89.4964 36.6338 89.4964 36.7893C89.4996 36.9054 89.5104 37.0212 89.5286 37.136H88.584V36.4471H88.5634C88.4964 36.5427 88.4194 36.6313 88.3335 36.7116C88.2249 36.8115 88.1046 36.8987 87.975 36.9716C87.8227 37.0566 87.6607 37.1245 87.4924 37.1738C87.2925 37.2311 87.0849 37.2588 86.8764 37.2561C86.6038 37.2584 86.3319 37.227 86.0674 37.1627C85.8357 37.1076 85.6183 37.007 85.4285 36.8671C85.2489 36.7317 85.1068 36.5553 85.0148 36.3538C84.9125 36.1176 84.8631 35.863 84.8701 35.607C84.859 35.3115 84.9478 35.0205 85.1229 34.7781C85.2894 34.5583 85.5035 34.3762 85.7503 34.2447C86.0081 34.1069 86.2864 34.0087 86.5754 33.9535C86.8505 33.8971 87.1307 33.8674 87.4119 33.8647H87.9474C88.1006 33.8647 88.2791 33.8713 88.4829 33.8847C88.5103 33.5184 88.4064 33.1543 88.1887 32.8535C87.9926 32.6223 87.641 32.5068 87.1338 32.5068C86.8431 32.5071 86.5547 32.556 86.2812 32.6512C86.014 32.7394 85.765 32.8726 85.5457 33.0446L85.4952 32.2245ZM88.4829 34.6203C88.3757 34.6203 88.2684 34.6203 88.1612 34.6203C88.0539 34.6203 87.9467 34.6203 87.8394 34.6203C87.703 34.6203 87.5276 34.6292 87.3131 34.6469C87.0992 34.664 86.8883 34.7073 86.6857 34.7758C86.4896 34.8405 86.3101 34.9451 86.1594 35.0825C86.0826 35.1541 86.0224 35.2407 85.9828 35.3365C85.9432 35.4323 85.925 35.5351 85.9296 35.6381C85.9269 35.7673 85.9603 35.8947 86.0261 36.0071C86.0844 36.11 86.1624 36.2012 86.2559 36.276C86.3537 36.3496 86.4642 36.4061 86.5823 36.4426C86.6964 36.4797 86.8158 36.4992 86.9362 36.5004C87.1442 36.5149 87.3531 36.4868 87.5492 36.4178C87.7452 36.3489 87.924 36.2407 88.0738 36.1004C88.3319 35.8326 88.4706 35.4773 88.4599 35.1114L88.4829 34.6203Z" fill="#949494"/>
<path d="M95.9908 36.9109C95.9908 37.7124 95.7655 38.3347 95.3151 38.7777C94.8646 39.2207 94.1499 39.4429 93.1708 39.4444C93.0283 39.4444 92.8873 39.4392 92.7479 39.4289C92.5984 39.417 92.4496 39.3977 92.3021 39.3711C92.1488 39.3429 91.9826 39.3066 91.8033 39.2622C91.6241 39.2177 91.4257 39.157 91.2081 39.08L91.3161 38.1777C91.5092 38.2606 91.6861 38.3347 91.847 38.3999C91.9969 38.4593 92.1504 38.5097 92.3067 38.551C92.4577 38.5889 92.6113 38.6164 92.7663 38.6333C92.9373 38.6514 93.1091 38.6603 93.2811 38.6599C93.5134 38.6727 93.7457 38.6357 93.9614 38.5516C94.1771 38.4674 94.371 38.3382 94.5291 38.1732C94.8449 37.7983 95.004 37.3225 94.9749 36.8398V36.3219H94.9542C94.7453 36.5948 94.4643 36.8082 94.1407 36.9398C93.8189 37.0731 93.4726 37.1419 93.1225 37.142C92.7661 37.147 92.4133 37.0709 92.0929 36.9198C91.8076 36.7846 91.5583 36.5876 91.3644 36.3442C91.1681 36.0961 91.0208 35.815 90.93 35.5152C90.8322 35.1956 90.7834 34.8639 90.7852 34.5307C90.7854 34.1885 90.8357 33.8481 90.9346 33.5195C91.0306 33.1945 91.1863 32.8888 91.3942 32.6172C91.5973 32.3511 91.8566 32.1299 92.155 31.9682C92.4857 31.7959 92.8573 31.7101 93.2329 31.7193C93.6307 31.701 94.0267 31.7829 94.382 31.9571C94.6613 32.1127 94.8868 32.3447 95.0301 32.6238H95.0508V31.8349H95.9839L95.9908 36.9109ZM93.3845 36.3508C93.6089 36.3532 93.8307 36.3053 94.0326 36.2108C94.2269 36.1189 94.3985 35.9878 94.536 35.8263C94.6794 35.6565 94.7899 35.463 94.8623 35.2552C94.942 35.0299 94.9816 34.7932 94.9795 34.5551C94.9848 34.295 94.957 34.0353 94.8968 33.7817C94.8385 33.5494 94.7364 33.3294 94.5957 33.1328C94.464 32.9504 94.2921 32.7986 94.0924 32.6883C93.8816 32.5754 93.6439 32.518 93.4029 32.5216C93.1654 32.5161 92.9317 32.5796 92.7318 32.7039C92.5424 32.8255 92.3819 32.9845 92.2607 33.1706C92.1327 33.3663 92.0366 33.58 91.9757 33.804C91.9126 34.0285 91.8801 34.2602 91.8792 34.4929C91.878 34.7339 91.9144 34.9736 91.9872 35.2041C92.0532 35.4172 92.1549 35.6184 92.2883 35.7997C92.4136 35.9692 92.577 36.109 92.7663 36.2086C92.9578 36.3049 93.171 36.3538 93.3868 36.3508H93.3845Z" fill="#949494"/>
<path d="M97.921 32.2245C98.1809 32.0751 98.4577 31.955 98.746 31.8667C99.0621 31.771 99.3916 31.7238 99.7228 31.7267C100.509 31.7267 101.072 31.9097 101.412 32.2756C101.752 32.6416 101.922 33.1876 101.922 33.9135V36.1004C101.922 36.4041 101.922 36.6338 101.922 36.7893C101.925 36.9054 101.936 37.0212 101.954 37.136H101.01V36.4471H100.989C100.922 36.5427 100.845 36.6313 100.759 36.7116C100.651 36.8115 100.53 36.8987 100.401 36.9716C100.248 37.0566 100.086 37.1245 99.9181 37.1738C99.7183 37.2311 99.5106 37.2588 99.3022 37.2561C99.0295 37.2584 98.7577 37.227 98.4932 37.1627C98.2615 37.1076 98.044 37.007 97.8543 36.8671C97.6747 36.7317 97.5326 36.5553 97.4406 36.3538C97.3382 36.1176 97.2889 35.863 97.2958 35.607C97.2848 35.3115 97.3736 35.0205 97.5486 34.7781C97.7152 34.5583 97.9293 34.3762 98.1761 34.2447C98.4338 34.1069 98.7122 34.0087 99.0011 33.9535C99.2763 33.8971 99.5565 33.8674 99.8377 33.8647H100.373C100.526 33.8647 100.705 33.8713 100.909 33.8847C100.936 33.5184 100.832 33.1543 100.615 32.8535C100.418 32.6223 100.067 32.5068 99.5596 32.5068C99.2689 32.5071 98.9805 32.556 98.707 32.6512C98.4398 32.7394 98.1908 32.8726 97.9715 33.0446L97.921 32.2245ZM100.909 34.6203C100.801 34.6203 100.694 34.6203 100.587 34.6203C100.48 34.6203 100.372 34.6203 100.265 34.6203C100.129 34.6203 99.9534 34.6292 99.7389 34.6469C99.5249 34.664 99.3141 34.7073 99.1115 34.7758C98.9154 34.8405 98.7359 34.9451 98.5852 35.0825C98.5084 35.1541 98.4482 35.2407 98.4086 35.3365C98.369 35.4323 98.3508 35.5351 98.3553 35.6381C98.3527 35.7673 98.3861 35.8947 98.4519 36.0071C98.5102 36.11 98.5882 36.2012 98.6817 36.276C98.7795 36.3496 98.89 36.4061 99.008 36.4426C99.1222 36.4797 99.2416 36.4992 99.362 36.5004C99.57 36.5149 99.7789 36.4868 99.9749 36.4178C100.171 36.3489 100.35 36.2407 100.5 36.1004C100.758 35.8326 100.896 35.4773 100.886 35.1114L100.909 34.6203Z" fill="#949494"/>
<path d="M103.17 36.2878L106.321 32.6386H103.324V31.8496H107.495V32.7008L104.342 36.35H107.612V37.139H103.17V36.2878Z" fill="#949494"/>
<path d="M110.079 30.6698H108.941V29.5586H110.079V30.6698ZM109.006 31.8521H110.012V37.137H109.006V31.8521Z" fill="#949494"/>
<path d="M111.805 31.8492H112.782V32.6892H112.803C112.956 32.3824 113.208 32.1326 113.522 31.9781C113.853 31.8085 114.221 31.7214 114.595 31.7247C115.303 31.7247 115.821 31.9255 116.149 32.327C116.477 32.7285 116.642 33.2848 116.643 33.996V37.1363H115.637V34.4005C115.666 33.9254 115.581 33.4502 115.391 33.0115C115.299 32.855 115.165 32.7258 115.003 32.638C114.841 32.5502 114.657 32.5072 114.471 32.5137C114.213 32.5074 113.958 32.5624 113.727 32.6737C113.519 32.7785 113.34 32.9311 113.207 33.1182C113.063 33.3273 112.961 33.5611 112.906 33.8071C112.839 34.0989 112.807 34.3971 112.81 34.6961V37.1407H111.801L111.805 31.8492Z" fill="#949494"/>
<path d="M122.505 36.9182L122.194 37.0271C122.087 37.0657 121.968 37.102 121.836 37.136C121.685 37.1745 121.531 37.2042 121.376 37.2249C121.179 37.2502 120.98 37.2621 120.781 37.2605C120.351 37.2702 119.924 37.2 119.521 37.0538C119.186 36.9282 118.885 36.7297 118.641 36.4738C118.402 36.2131 118.225 35.9052 118.122 35.5715C118.003 35.1918 117.945 34.7969 117.949 34.4003C117.945 34.0335 118.006 33.6687 118.131 33.3224C118.245 33.0104 118.421 32.7234 118.65 32.4779C118.876 32.2388 119.152 32.0493 119.459 31.9223C119.792 31.7873 120.149 31.72 120.51 31.7245C120.906 31.7097 121.299 31.7858 121.659 31.9467C121.957 32.0909 122.212 32.3067 122.399 32.5734C122.594 32.8621 122.731 33.1842 122.801 33.5224C122.886 33.9111 122.927 34.3075 122.925 34.7047H119.03C119.026 34.9504 119.076 35.194 119.174 35.4203C119.267 35.6295 119.402 35.8185 119.572 35.9759C119.74 36.1309 119.936 36.2539 120.151 36.3382C120.37 36.4252 120.604 36.469 120.841 36.4671C121.012 36.4662 121.184 36.4468 121.351 36.4093C121.518 36.3734 121.683 36.3281 121.845 36.2737C121.985 36.2274 122.121 36.1702 122.252 36.1026C122.347 36.054 122.439 35.9983 122.525 35.9359L122.505 36.9182ZM121.85 33.9847C121.85 33.7908 121.819 33.598 121.758 33.4135C121.701 33.242 121.613 33.0823 121.496 32.9424C121.379 32.8067 121.232 32.6987 121.066 32.6268C120.884 32.549 120.686 32.5103 120.487 32.5134C120.266 32.5072 120.046 32.5537 119.848 32.649C119.679 32.7343 119.529 32.8523 119.409 32.9957C119.291 33.1362 119.2 33.2957 119.14 33.4668C119.08 33.6348 119.039 33.8084 119.016 33.9847H121.85Z" fill="#949494"/>
</svg>
