<svg width="16" height="13" viewBox="0 0 16 13" fill="none" xmlns="http://www.w3.org/2000/svg">
<path d="M0.680848 1.00015C0.415632 1.04259 0.178135 1.18864 0.0206046 1.40618C-0.136926 1.62372 -0.201586 1.89494 -0.159152 2.16015C-0.116717 2.42537 0.0293365 2.66287 0.246879 2.8204C0.464421 2.97793 0.735632 3.04259 1.00085 3.00015H4.00085L4.18085 3.50015L5.00085 6.00015L5.82085 8.50015C5.90085 8.76015 6.24085 9.00015 6.50085 9.00015H13.5009C13.7809 9.00015 14.1009 8.76015 14.1809 8.50015L15.8009 3.50015C15.8809 3.24015 15.7608 3.00015 15.4809 3.00015H6.60085L5.84085 1.56015C5.7599 1.39487 5.63491 1.25513 5.47965 1.15633C5.32438 1.05752 5.14486 1.00348 4.96085 1.00015L0.960848 1.00015C0.90097 0.994741 0.840726 0.994741 0.780848 1.00015C0.740884 0.99775 0.700812 0.99775 0.660848 1.00015L0.680848 1.00015ZM7.00085 11.0002C6.44085 11.0002 6.00085 11.4402 6.00085 12.0002C6.00085 12.5602 6.44085 13.0002 7.00085 13.0002C7.56085 13.0002 8.00085 12.5602 8.00085 12.0002C8.00085 11.4402 7.56085 11.0002 7.00085 11.0002ZM13.0009 11.0002C12.4409 11.0002 12.0009 11.4402 12.0009 12.0002C12.0009 12.5602 12.4409 13.0002 13.0009 13.0002C13.5609 13.0002 14.0009 12.5602 14.0009 12.0002C14.0009 11.4402 13.5609 11.0002 13.0009 11.0002Z" fill="#002B64"/>
</svg>
