<svg width="27" height="31" viewBox="0 0 27 31" fill="none" xmlns="http://www.w3.org/2000/svg">
<path d="M14.1806 0.0258455C15.8768 9.82072e-08 17.5606 0.0134396 19.2433 0C19.2993 2.09968 20.1531 3.9895 21.5115 5.38928L21.5094 5.38721C22.9714 6.70119 24.8738 7.55306 26.971 7.69779L27 7.69986V12.9062C25.0189 12.8565 23.1559 12.4006 21.4762 11.617L21.5612 11.6521C20.7489 11.2624 20.0619 10.8623 19.4091 10.4157L19.463 10.4508C19.4506 14.2232 19.4754 17.9956 19.4371 21.7546C19.3304 23.6702 18.6921 25.4174 17.6684 26.8761L17.6891 26.8441C15.9773 29.2901 13.2046 30.8956 10.0516 30.9907H10.0371C9.9096 30.9969 9.75936 31 9.60808 31C7.81553 31 6.14006 30.5017 4.71223 29.6364L4.75368 29.6602C2.15499 28.1001 0.36244 25.4308 0.030869 22.3263L0.0267244 22.2839C0.000820433 21.6378 -0.0116136 20.9916 0.0142904 20.3589C0.522008 15.4183 4.67079 11.5963 9.71377 11.5963C10.2805 11.5963 10.8359 11.6449 11.3758 11.7369L11.3177 11.7286C11.3436 13.6402 11.2659 15.5527 11.2659 17.4642C10.8276 17.3061 10.322 17.2141 9.79459 17.2141C7.85905 17.2141 6.21259 18.4484 5.60333 20.1718L5.594 20.2028C5.45619 20.6443 5.37641 21.1519 5.37641 21.677C5.37641 21.89 5.38988 22.1009 5.41475 22.3077L5.41268 22.2829C5.75668 24.3981 7.5741 25.9943 9.76558 25.9943C9.82878 25.9943 9.89095 25.9932 9.95312 25.9901H9.9438C11.4597 25.9446 12.7756 25.131 13.5196 23.9287L13.5299 23.9101C13.8066 23.5255 13.9962 23.0603 14.0594 22.5548L14.0605 22.5403C14.19 20.2276 14.1382 17.9284 14.1506 15.6158C14.163 10.4095 14.1382 5.2156 14.1765 0.022744L14.1806 0.0258455Z" fill="#002B64"/>
</svg>
