<svg width="25" height="19" viewBox="0 0 25 19" fill="none" xmlns="http://www.w3.org/2000/svg">
<path d="M16.3418 0.841797H8.65821C3.88402 0.841797 0 4.72581 0 9.50001C0 14.2742 3.88402 18.1582 8.65821 18.1582H16.3419C21.116 18.1582 25 14.2742 25 9.50001C25 4.72581 21.116 0.841797 16.3418 0.841797ZM16.3418 16.5511H8.65821C4.77027 16.5511 1.60714 13.388 1.60714 9.50001C1.60714 5.61206 4.77027 2.44894 8.65821 2.44894H16.3419C20.2297 2.44894 23.3929 5.61206 23.3929 9.50001C23.3929 13.388 20.2297 16.5511 16.3418 16.5511Z" fill="#002B64"/>
<path d="M15.8057 8.546L12.0372 5.39511C11.2284 4.71895 9.99805 5.29395 9.99805 6.34814V12.6499C9.99805 13.7041 11.2284 14.2792 12.0372 13.603L15.8057 10.4521C16.3997 9.95555 16.3997 9.04252 15.8057 8.546Z" fill="#002B64"/>
</svg>
